G75*
%MOIN*%
%OFA0B0*%
%FSLAX25Y25*%
%IPPOS*%
%LPD*%
%AMOC8*
5,1,8,0,0,1.08239X$1,22.5*
%
%ADD10C,0.00000*%
%ADD11C,0.00500*%
%ADD12C,0.00400*%
%ADD13C,0.00300*%
%ADD14C,0.00200*%
%ADD15C,0.00063*%
%ADD16C,0.01200*%
%ADD17C,0.00600*%
%ADD18C,0.02000*%
%ADD19R,0.07500X0.05000*%
%ADD20R,0.07000X0.03000*%
%ADD21R,0.03000X0.05000*%
%ADD22R,0.02400X0.03400*%
%ADD23R,0.03400X0.02400*%
D10*
X0001800Y0001800D02*
X0001800Y0201800D01*
X0401800Y0201800D01*
X0401800Y0001800D01*
X0001800Y0001800D01*
X0315800Y0024300D02*
X0315802Y0024418D01*
X0315808Y0024536D01*
X0315818Y0024654D01*
X0315832Y0024771D01*
X0315850Y0024888D01*
X0315872Y0025005D01*
X0315897Y0025120D01*
X0315927Y0025234D01*
X0315961Y0025348D01*
X0315998Y0025460D01*
X0316039Y0025571D01*
X0316084Y0025680D01*
X0316132Y0025788D01*
X0316184Y0025894D01*
X0316240Y0025999D01*
X0316299Y0026101D01*
X0316361Y0026201D01*
X0316427Y0026299D01*
X0316496Y0026395D01*
X0316569Y0026489D01*
X0316644Y0026580D01*
X0316723Y0026668D01*
X0316804Y0026754D01*
X0316889Y0026837D01*
X0316976Y0026917D01*
X0317065Y0026994D01*
X0317158Y0027068D01*
X0317252Y0027138D01*
X0317349Y0027206D01*
X0317449Y0027270D01*
X0317550Y0027331D01*
X0317653Y0027388D01*
X0317759Y0027442D01*
X0317866Y0027493D01*
X0317974Y0027539D01*
X0318084Y0027582D01*
X0318196Y0027621D01*
X0318309Y0027657D01*
X0318423Y0027688D01*
X0318538Y0027716D01*
X0318653Y0027740D01*
X0318770Y0027760D01*
X0318887Y0027776D01*
X0319005Y0027788D01*
X0319123Y0027796D01*
X0319241Y0027800D01*
X0319359Y0027800D01*
X0319477Y0027796D01*
X0319595Y0027788D01*
X0319713Y0027776D01*
X0319830Y0027760D01*
X0319947Y0027740D01*
X0320062Y0027716D01*
X0320177Y0027688D01*
X0320291Y0027657D01*
X0320404Y0027621D01*
X0320516Y0027582D01*
X0320626Y0027539D01*
X0320734Y0027493D01*
X0320841Y0027442D01*
X0320947Y0027388D01*
X0321050Y0027331D01*
X0321151Y0027270D01*
X0321251Y0027206D01*
X0321348Y0027138D01*
X0321442Y0027068D01*
X0321535Y0026994D01*
X0321624Y0026917D01*
X0321711Y0026837D01*
X0321796Y0026754D01*
X0321877Y0026668D01*
X0321956Y0026580D01*
X0322031Y0026489D01*
X0322104Y0026395D01*
X0322173Y0026299D01*
X0322239Y0026201D01*
X0322301Y0026101D01*
X0322360Y0025999D01*
X0322416Y0025894D01*
X0322468Y0025788D01*
X0322516Y0025680D01*
X0322561Y0025571D01*
X0322602Y0025460D01*
X0322639Y0025348D01*
X0322673Y0025234D01*
X0322703Y0025120D01*
X0322728Y0025005D01*
X0322750Y0024888D01*
X0322768Y0024771D01*
X0322782Y0024654D01*
X0322792Y0024536D01*
X0322798Y0024418D01*
X0322800Y0024300D01*
X0322798Y0024182D01*
X0322792Y0024064D01*
X0322782Y0023946D01*
X0322768Y0023829D01*
X0322750Y0023712D01*
X0322728Y0023595D01*
X0322703Y0023480D01*
X0322673Y0023366D01*
X0322639Y0023252D01*
X0322602Y0023140D01*
X0322561Y0023029D01*
X0322516Y0022920D01*
X0322468Y0022812D01*
X0322416Y0022706D01*
X0322360Y0022601D01*
X0322301Y0022499D01*
X0322239Y0022399D01*
X0322173Y0022301D01*
X0322104Y0022205D01*
X0322031Y0022111D01*
X0321956Y0022020D01*
X0321877Y0021932D01*
X0321796Y0021846D01*
X0321711Y0021763D01*
X0321624Y0021683D01*
X0321535Y0021606D01*
X0321442Y0021532D01*
X0321348Y0021462D01*
X0321251Y0021394D01*
X0321151Y0021330D01*
X0321050Y0021269D01*
X0320947Y0021212D01*
X0320841Y0021158D01*
X0320734Y0021107D01*
X0320626Y0021061D01*
X0320516Y0021018D01*
X0320404Y0020979D01*
X0320291Y0020943D01*
X0320177Y0020912D01*
X0320062Y0020884D01*
X0319947Y0020860D01*
X0319830Y0020840D01*
X0319713Y0020824D01*
X0319595Y0020812D01*
X0319477Y0020804D01*
X0319359Y0020800D01*
X0319241Y0020800D01*
X0319123Y0020804D01*
X0319005Y0020812D01*
X0318887Y0020824D01*
X0318770Y0020840D01*
X0318653Y0020860D01*
X0318538Y0020884D01*
X0318423Y0020912D01*
X0318309Y0020943D01*
X0318196Y0020979D01*
X0318084Y0021018D01*
X0317974Y0021061D01*
X0317866Y0021107D01*
X0317759Y0021158D01*
X0317653Y0021212D01*
X0317550Y0021269D01*
X0317449Y0021330D01*
X0317349Y0021394D01*
X0317252Y0021462D01*
X0317158Y0021532D01*
X0317065Y0021606D01*
X0316976Y0021683D01*
X0316889Y0021763D01*
X0316804Y0021846D01*
X0316723Y0021932D01*
X0316644Y0022020D01*
X0316569Y0022111D01*
X0316496Y0022205D01*
X0316427Y0022301D01*
X0316361Y0022399D01*
X0316299Y0022499D01*
X0316240Y0022601D01*
X0316184Y0022706D01*
X0316132Y0022812D01*
X0316084Y0022920D01*
X0316039Y0023029D01*
X0315998Y0023140D01*
X0315961Y0023252D01*
X0315927Y0023366D01*
X0315897Y0023480D01*
X0315872Y0023595D01*
X0315850Y0023712D01*
X0315832Y0023829D01*
X0315818Y0023946D01*
X0315808Y0024064D01*
X0315802Y0024182D01*
X0315800Y0024300D01*
X0344110Y0024300D02*
X0344243Y0024300D01*
X0344294Y0024300D02*
X0344294Y0024100D01*
X0344294Y0024000D02*
X0344327Y0024000D01*
X0344327Y0023800D01*
X0344294Y0023800D02*
X0344361Y0023800D01*
X0344417Y0023833D02*
X0344417Y0023900D01*
X0344450Y0023933D01*
X0344517Y0023933D01*
X0344550Y0023900D01*
X0344550Y0023867D01*
X0344417Y0023867D01*
X0344417Y0023833D02*
X0344450Y0023800D01*
X0344517Y0023800D01*
X0344601Y0023833D02*
X0344634Y0023867D01*
X0344734Y0023867D01*
X0344734Y0023900D02*
X0344734Y0023800D01*
X0344634Y0023800D01*
X0344601Y0023833D01*
X0344634Y0023933D02*
X0344701Y0023933D01*
X0344734Y0023900D01*
X0344785Y0023900D02*
X0344819Y0023933D01*
X0344919Y0023933D01*
X0344969Y0023900D02*
X0345003Y0023933D01*
X0345069Y0023933D01*
X0345103Y0023900D01*
X0345103Y0023867D01*
X0344969Y0023867D01*
X0344969Y0023900D02*
X0344969Y0023833D01*
X0345003Y0023800D01*
X0345069Y0023800D01*
X0344919Y0023833D02*
X0344885Y0023867D01*
X0344819Y0023867D01*
X0344785Y0023900D01*
X0344785Y0023800D02*
X0344885Y0023800D01*
X0344919Y0023833D01*
X0344847Y0023700D02*
X0344847Y0023500D01*
X0344796Y0023500D02*
X0344796Y0023600D01*
X0344763Y0023633D01*
X0344662Y0023633D01*
X0344662Y0023500D01*
X0344612Y0023500D02*
X0344512Y0023500D01*
X0344478Y0023533D01*
X0344512Y0023567D01*
X0344612Y0023567D01*
X0344612Y0023600D02*
X0344612Y0023500D01*
X0344612Y0023600D02*
X0344578Y0023633D01*
X0344512Y0023633D01*
X0344428Y0023600D02*
X0344428Y0023500D01*
X0344428Y0023600D02*
X0344394Y0023633D01*
X0344327Y0023633D01*
X0344294Y0023600D01*
X0344294Y0023700D02*
X0344294Y0023500D01*
X0344177Y0023500D02*
X0344177Y0023700D01*
X0344243Y0023700D02*
X0344110Y0023700D01*
X0344110Y0023800D02*
X0344110Y0024000D01*
X0344210Y0024000D01*
X0344243Y0023967D01*
X0344243Y0023900D01*
X0344210Y0023867D01*
X0344110Y0023867D01*
X0344177Y0024100D02*
X0344177Y0024300D01*
X0344294Y0024200D02*
X0344327Y0024233D01*
X0344394Y0024233D01*
X0344428Y0024200D01*
X0344428Y0024100D01*
X0344478Y0024100D02*
X0344545Y0024100D01*
X0344512Y0024100D02*
X0344512Y0024233D01*
X0344478Y0024233D01*
X0344512Y0024300D02*
X0344512Y0024334D01*
X0344634Y0024233D02*
X0344734Y0024233D01*
X0344701Y0024167D02*
X0344634Y0024167D01*
X0344601Y0024200D01*
X0344634Y0024233D01*
X0344701Y0024167D02*
X0344734Y0024133D01*
X0344701Y0024100D01*
X0344601Y0024100D01*
X0344969Y0024100D02*
X0345036Y0024100D01*
X0345003Y0024100D02*
X0345003Y0024300D01*
X0344969Y0024300D01*
X0345092Y0024233D02*
X0345125Y0024233D01*
X0345125Y0024100D01*
X0345092Y0024100D02*
X0345159Y0024100D01*
X0345215Y0024100D02*
X0345315Y0024100D01*
X0345348Y0024133D01*
X0345348Y0024200D01*
X0345315Y0024233D01*
X0345215Y0024233D01*
X0345215Y0024300D02*
X0345215Y0024100D01*
X0345399Y0024100D02*
X0345399Y0024233D01*
X0345399Y0024167D02*
X0345466Y0024233D01*
X0345499Y0024233D01*
X0345586Y0024233D02*
X0345653Y0024233D01*
X0345686Y0024200D01*
X0345686Y0024100D01*
X0345586Y0024100D01*
X0345552Y0024133D01*
X0345586Y0024167D01*
X0345686Y0024167D01*
X0345737Y0024167D02*
X0345803Y0024233D01*
X0345837Y0024233D01*
X0345890Y0024233D02*
X0345890Y0024133D01*
X0345923Y0024100D01*
X0346024Y0024100D01*
X0346024Y0024067D02*
X0345990Y0024033D01*
X0345957Y0024033D01*
X0346024Y0024067D02*
X0346024Y0024233D01*
X0346258Y0024233D02*
X0346258Y0024133D01*
X0346292Y0024100D01*
X0346325Y0024133D01*
X0346358Y0024100D01*
X0346392Y0024133D01*
X0346392Y0024233D01*
X0346476Y0024233D02*
X0346543Y0024233D01*
X0346576Y0024200D01*
X0346576Y0024100D01*
X0346476Y0024100D01*
X0346443Y0024133D01*
X0346476Y0024167D01*
X0346576Y0024167D01*
X0346627Y0024200D02*
X0346660Y0024233D01*
X0346760Y0024233D01*
X0346727Y0024167D02*
X0346660Y0024167D01*
X0346627Y0024200D01*
X0346627Y0024100D02*
X0346727Y0024100D01*
X0346760Y0024133D01*
X0346727Y0024167D01*
X0346688Y0023933D02*
X0346788Y0023933D01*
X0346822Y0023900D01*
X0346822Y0023800D01*
X0346872Y0023833D02*
X0346906Y0023800D01*
X0347006Y0023800D01*
X0347006Y0023767D02*
X0346972Y0023733D01*
X0346939Y0023733D01*
X0347006Y0023767D02*
X0347006Y0023933D01*
X0346872Y0023933D02*
X0346872Y0023833D01*
X0346688Y0023800D02*
X0346688Y0023933D01*
X0346637Y0023900D02*
X0346637Y0023800D01*
X0346537Y0023800D01*
X0346504Y0023833D01*
X0346537Y0023867D01*
X0346637Y0023867D01*
X0346637Y0023900D02*
X0346604Y0023933D01*
X0346537Y0023933D01*
X0346264Y0023933D02*
X0346197Y0023933D01*
X0346230Y0023967D02*
X0346230Y0023833D01*
X0346264Y0023800D01*
X0346144Y0023933D02*
X0346110Y0023933D01*
X0346044Y0023867D01*
X0345993Y0023900D02*
X0345959Y0023933D01*
X0345893Y0023933D01*
X0345859Y0023900D01*
X0345859Y0023833D01*
X0345893Y0023800D01*
X0345959Y0023800D01*
X0345993Y0023833D01*
X0345993Y0023900D01*
X0346044Y0023933D02*
X0346044Y0023800D01*
X0346044Y0023734D02*
X0346044Y0023600D01*
X0345982Y0023600D02*
X0345982Y0023734D01*
X0345921Y0023734D02*
X0345921Y0023600D01*
X0345870Y0023633D02*
X0345870Y0023500D01*
X0345770Y0023500D01*
X0345737Y0023533D01*
X0345737Y0023633D01*
X0345686Y0023600D02*
X0345653Y0023633D01*
X0345586Y0023633D01*
X0345552Y0023600D01*
X0345552Y0023533D01*
X0345586Y0023500D01*
X0345653Y0023500D01*
X0345686Y0023533D01*
X0345686Y0023600D01*
X0345675Y0023733D02*
X0345675Y0023933D01*
X0345775Y0023933D01*
X0345809Y0023900D01*
X0345809Y0023833D01*
X0345775Y0023800D01*
X0345675Y0023800D01*
X0345625Y0023867D02*
X0345491Y0023867D01*
X0345491Y0023900D02*
X0345524Y0023933D01*
X0345591Y0023933D01*
X0345625Y0023900D01*
X0345625Y0023867D01*
X0345591Y0023800D02*
X0345524Y0023800D01*
X0345491Y0023833D01*
X0345491Y0023900D01*
X0345438Y0023933D02*
X0345404Y0023933D01*
X0345338Y0023867D01*
X0345338Y0023933D02*
X0345338Y0023800D01*
X0345368Y0023633D02*
X0345368Y0023533D01*
X0345402Y0023500D01*
X0345502Y0023500D01*
X0345502Y0023467D02*
X0345468Y0023433D01*
X0345435Y0023433D01*
X0345502Y0023467D02*
X0345502Y0023633D01*
X0345133Y0023633D02*
X0345033Y0023633D01*
X0345000Y0023600D01*
X0345033Y0023567D01*
X0345100Y0023567D01*
X0345133Y0023533D01*
X0345100Y0023500D01*
X0345000Y0023500D01*
X0344947Y0023500D02*
X0344847Y0023567D01*
X0344947Y0023633D01*
X0345125Y0024300D02*
X0345125Y0024334D01*
X0345737Y0024233D02*
X0345737Y0024100D01*
X0345921Y0023533D02*
X0345921Y0023500D01*
X0345982Y0023500D02*
X0345982Y0023533D01*
X0346044Y0023533D02*
X0346044Y0023500D01*
X0346995Y0024133D02*
X0347028Y0024100D01*
X0347128Y0024100D01*
X0347179Y0024100D02*
X0347179Y0024233D01*
X0347128Y0024233D02*
X0347028Y0024233D01*
X0346995Y0024200D01*
X0346995Y0024133D01*
X0347179Y0024167D02*
X0347246Y0024233D01*
X0347279Y0024233D01*
X0347333Y0024200D02*
X0347366Y0024233D01*
X0347433Y0024233D01*
X0347466Y0024200D01*
X0347466Y0024167D01*
X0347333Y0024167D01*
X0347333Y0024200D02*
X0347333Y0024133D01*
X0347366Y0024100D01*
X0347433Y0024100D01*
X0347517Y0024133D02*
X0347550Y0024167D01*
X0347650Y0024167D01*
X0347650Y0024200D02*
X0347650Y0024100D01*
X0347550Y0024100D01*
X0347517Y0024133D01*
X0347550Y0024233D02*
X0347617Y0024233D01*
X0347650Y0024200D01*
X0347701Y0024233D02*
X0347768Y0024233D01*
X0347734Y0024267D02*
X0347734Y0024133D01*
X0347768Y0024100D01*
X0347824Y0024133D02*
X0347824Y0024200D01*
X0347857Y0024233D01*
X0347924Y0024233D01*
X0347957Y0024200D01*
X0347957Y0024167D01*
X0347824Y0024167D01*
X0347824Y0024133D02*
X0347857Y0024100D01*
X0347924Y0024100D01*
X0348008Y0024133D02*
X0348008Y0024200D01*
X0348041Y0024233D01*
X0348141Y0024233D01*
X0348141Y0024300D02*
X0348141Y0024100D01*
X0348041Y0024100D01*
X0348008Y0024133D01*
X0348016Y0023933D02*
X0347982Y0023933D01*
X0347916Y0023867D01*
X0347865Y0023900D02*
X0347832Y0023933D01*
X0347765Y0023933D01*
X0347732Y0023900D01*
X0347732Y0023833D01*
X0347765Y0023800D01*
X0347832Y0023800D01*
X0347865Y0023833D01*
X0347865Y0023900D01*
X0347916Y0023933D02*
X0347916Y0023800D01*
X0348069Y0023800D02*
X0348169Y0023800D01*
X0348203Y0023833D01*
X0348169Y0023867D01*
X0348103Y0023867D01*
X0348069Y0023900D01*
X0348103Y0023933D01*
X0348203Y0023933D01*
X0348438Y0023900D02*
X0348438Y0023833D01*
X0348471Y0023800D01*
X0348538Y0023800D01*
X0348571Y0023833D01*
X0348571Y0023900D01*
X0348538Y0023933D01*
X0348471Y0023933D01*
X0348438Y0023900D01*
X0348622Y0023867D02*
X0348688Y0023933D01*
X0348722Y0023933D01*
X0348622Y0023933D02*
X0348622Y0023800D01*
X0348627Y0024033D02*
X0348660Y0024033D01*
X0348694Y0024067D01*
X0348694Y0024233D01*
X0348694Y0024100D02*
X0348594Y0024100D01*
X0348560Y0024133D01*
X0348560Y0024233D01*
X0348510Y0024200D02*
X0348476Y0024233D01*
X0348376Y0024233D01*
X0348376Y0024300D02*
X0348376Y0024100D01*
X0348476Y0024100D01*
X0348510Y0024133D01*
X0348510Y0024200D01*
X0348929Y0024200D02*
X0348995Y0024200D01*
X0349113Y0024200D02*
X0349146Y0024233D01*
X0349246Y0024233D01*
X0349297Y0024233D02*
X0349397Y0024233D01*
X0349430Y0024200D01*
X0349430Y0024133D01*
X0349397Y0024100D01*
X0349297Y0024100D01*
X0349246Y0024133D02*
X0349213Y0024167D01*
X0349146Y0024167D01*
X0349113Y0024200D01*
X0349113Y0024100D02*
X0349213Y0024100D01*
X0349246Y0024133D01*
X0349297Y0024033D02*
X0349297Y0024233D01*
X0349481Y0024133D02*
X0349514Y0024133D01*
X0349514Y0024100D01*
X0349481Y0024100D01*
X0349481Y0024133D01*
X0349461Y0023933D02*
X0349361Y0023933D01*
X0349328Y0023900D01*
X0349328Y0023833D01*
X0349361Y0023800D01*
X0349461Y0023800D01*
X0349461Y0023767D02*
X0349461Y0023933D01*
X0349512Y0023900D02*
X0349512Y0023833D01*
X0349545Y0023800D01*
X0349645Y0023800D01*
X0349645Y0023767D02*
X0349645Y0023933D01*
X0349545Y0023933D01*
X0349512Y0023900D01*
X0349461Y0023767D02*
X0349428Y0023733D01*
X0349394Y0023733D01*
X0349277Y0023800D02*
X0349277Y0023933D01*
X0349277Y0023800D02*
X0349177Y0023800D01*
X0349143Y0023833D01*
X0349143Y0023933D01*
X0349093Y0023933D02*
X0348993Y0023933D01*
X0348959Y0023900D01*
X0348993Y0023867D01*
X0349059Y0023867D01*
X0349093Y0023833D01*
X0349059Y0023800D01*
X0348959Y0023800D01*
X0348929Y0024100D02*
X0349062Y0024100D01*
X0348929Y0024100D02*
X0348929Y0024300D01*
X0349062Y0024300D01*
X0349757Y0024300D02*
X0349824Y0024233D01*
X0349891Y0024300D01*
X0349891Y0024100D01*
X0349941Y0024133D02*
X0349975Y0024167D01*
X0350075Y0024167D01*
X0350075Y0024200D02*
X0350075Y0024100D01*
X0349975Y0024100D01*
X0349941Y0024133D01*
X0349975Y0024233D02*
X0350042Y0024233D01*
X0350075Y0024200D01*
X0350126Y0024167D02*
X0350192Y0024233D01*
X0350226Y0024233D01*
X0350279Y0024200D02*
X0350279Y0024133D01*
X0350312Y0024100D01*
X0350412Y0024100D01*
X0350463Y0024133D02*
X0350497Y0024100D01*
X0350563Y0024100D01*
X0350597Y0024133D01*
X0350597Y0024200D01*
X0350563Y0024233D01*
X0350497Y0024233D01*
X0350463Y0024200D01*
X0350463Y0024133D01*
X0350412Y0024233D02*
X0350312Y0024233D01*
X0350279Y0024200D01*
X0350126Y0024233D02*
X0350126Y0024100D01*
X0350220Y0024034D02*
X0350220Y0024000D01*
X0350220Y0023933D02*
X0350220Y0023800D01*
X0350187Y0023800D02*
X0350254Y0023800D01*
X0350310Y0023833D02*
X0350343Y0023800D01*
X0350410Y0023800D01*
X0350443Y0023833D01*
X0350443Y0023900D01*
X0350410Y0023933D01*
X0350343Y0023933D01*
X0350310Y0023900D01*
X0350310Y0023833D01*
X0350220Y0023933D02*
X0350187Y0023933D01*
X0350131Y0023933D02*
X0350064Y0023933D01*
X0350098Y0023967D02*
X0350098Y0023833D01*
X0350131Y0023800D01*
X0350014Y0023833D02*
X0349980Y0023867D01*
X0349913Y0023867D01*
X0349880Y0023900D01*
X0349913Y0023933D01*
X0350014Y0023933D01*
X0350014Y0023833D02*
X0349980Y0023800D01*
X0349880Y0023800D01*
X0349829Y0023867D02*
X0349696Y0023867D01*
X0349696Y0023900D02*
X0349729Y0023933D01*
X0349796Y0023933D01*
X0349829Y0023900D01*
X0349829Y0023867D01*
X0349796Y0023800D02*
X0349729Y0023800D01*
X0349696Y0023833D01*
X0349696Y0023900D01*
X0349645Y0023767D02*
X0349612Y0023733D01*
X0349578Y0023733D01*
X0349757Y0024100D02*
X0349757Y0024300D01*
X0350494Y0023933D02*
X0350594Y0023933D01*
X0350627Y0023900D01*
X0350627Y0023800D01*
X0350678Y0023800D02*
X0350778Y0023800D01*
X0350811Y0023833D01*
X0350778Y0023867D01*
X0350711Y0023867D01*
X0350678Y0023900D01*
X0350711Y0023933D01*
X0350811Y0023933D01*
X0350832Y0024100D02*
X0350965Y0024100D01*
X0351016Y0024133D02*
X0351049Y0024100D01*
X0351149Y0024100D01*
X0351149Y0024233D01*
X0351200Y0024233D02*
X0351233Y0024233D01*
X0351233Y0024100D01*
X0351200Y0024100D02*
X0351267Y0024100D01*
X0351323Y0024100D02*
X0351423Y0024100D01*
X0351456Y0024133D01*
X0351423Y0024167D01*
X0351356Y0024167D01*
X0351323Y0024200D01*
X0351356Y0024233D01*
X0351456Y0024233D01*
X0351233Y0024300D02*
X0351233Y0024334D01*
X0351016Y0024233D02*
X0351016Y0024133D01*
X0351080Y0023967D02*
X0351080Y0023833D01*
X0351113Y0023800D01*
X0351169Y0023833D02*
X0351202Y0023800D01*
X0351269Y0023800D01*
X0351303Y0023833D01*
X0351303Y0023900D01*
X0351269Y0023933D01*
X0351202Y0023933D01*
X0351169Y0023900D01*
X0351169Y0023833D01*
X0351113Y0023933D02*
X0351046Y0023933D01*
X0350832Y0024100D02*
X0350832Y0024300D01*
X0350781Y0024200D02*
X0350647Y0024200D01*
X0350494Y0023933D02*
X0350494Y0023800D01*
X0351353Y0023800D02*
X0351353Y0023833D01*
X0351387Y0023833D01*
X0351387Y0023800D01*
X0351353Y0023800D01*
X0351353Y0023900D02*
X0351353Y0023933D01*
X0351387Y0023933D01*
X0351387Y0023900D01*
X0351353Y0023900D01*
X0351630Y0023967D02*
X0351696Y0023900D01*
X0351696Y0023800D01*
X0351696Y0023900D02*
X0351763Y0023967D01*
X0351763Y0024000D01*
X0351814Y0024000D02*
X0351814Y0023867D01*
X0351880Y0023800D01*
X0351947Y0023867D01*
X0351947Y0024000D01*
X0351998Y0023933D02*
X0352065Y0024000D01*
X0352065Y0023800D01*
X0352131Y0023800D02*
X0351998Y0023800D01*
X0352182Y0023800D02*
X0352182Y0024000D01*
X0352182Y0023900D02*
X0352315Y0023900D01*
X0352315Y0024000D02*
X0352315Y0023800D01*
X0352366Y0023800D02*
X0352500Y0024000D01*
X0352550Y0023967D02*
X0352584Y0024000D01*
X0352650Y0024000D01*
X0352684Y0023967D01*
X0352684Y0023900D01*
X0352650Y0023867D01*
X0352650Y0023933D01*
X0352584Y0023933D01*
X0352584Y0023867D01*
X0352650Y0023867D01*
X0352684Y0023833D02*
X0352650Y0023800D01*
X0352584Y0023800D01*
X0352550Y0023833D01*
X0352550Y0023967D01*
X0352561Y0024100D02*
X0352428Y0024100D01*
X0352428Y0024300D01*
X0352561Y0024300D01*
X0352612Y0024300D02*
X0352712Y0024300D01*
X0352745Y0024267D01*
X0352745Y0024133D01*
X0352712Y0024100D01*
X0352612Y0024100D01*
X0352612Y0024300D01*
X0352494Y0024200D02*
X0352428Y0024200D01*
X0352377Y0024133D02*
X0352343Y0024100D01*
X0352277Y0024100D01*
X0352243Y0024133D01*
X0352243Y0024267D01*
X0352277Y0024300D01*
X0352343Y0024300D01*
X0352377Y0024267D01*
X0352193Y0024100D02*
X0352059Y0024100D01*
X0352059Y0024300D01*
X0352008Y0024233D02*
X0352008Y0024100D01*
X0352008Y0024200D02*
X0351875Y0024200D01*
X0351875Y0024233D02*
X0351942Y0024300D01*
X0352008Y0024233D01*
X0351875Y0024233D02*
X0351875Y0024100D01*
X0351824Y0024133D02*
X0351791Y0024100D01*
X0351724Y0024100D01*
X0351691Y0024133D01*
X0351724Y0024200D02*
X0351791Y0024200D01*
X0351824Y0024167D01*
X0351824Y0024133D01*
X0351724Y0024200D02*
X0351691Y0024233D01*
X0351691Y0024267D01*
X0351724Y0024300D01*
X0351791Y0024300D01*
X0351824Y0024267D01*
X0351630Y0024000D02*
X0351630Y0023967D01*
X0352366Y0024000D02*
X0352500Y0023800D01*
X0352734Y0023833D02*
X0352768Y0023800D01*
X0352834Y0023800D01*
X0352868Y0023833D01*
X0352919Y0023800D02*
X0352919Y0023933D01*
X0352985Y0024000D01*
X0353052Y0023933D01*
X0353052Y0023800D01*
X0353103Y0023800D02*
X0353103Y0024000D01*
X0353236Y0023800D01*
X0353236Y0024000D01*
X0353287Y0024000D02*
X0353420Y0024000D01*
X0353471Y0024000D02*
X0353471Y0023867D01*
X0353538Y0023800D01*
X0353604Y0023867D01*
X0353604Y0024000D01*
X0353599Y0024100D02*
X0353666Y0024167D01*
X0353666Y0024300D01*
X0353717Y0024233D02*
X0353783Y0024300D01*
X0353850Y0024233D01*
X0353850Y0024100D01*
X0353901Y0024100D02*
X0353901Y0024300D01*
X0354001Y0024300D01*
X0354034Y0024267D01*
X0354034Y0024200D01*
X0354001Y0024167D01*
X0353901Y0024167D01*
X0353850Y0024200D02*
X0353717Y0024200D01*
X0353717Y0024233D02*
X0353717Y0024100D01*
X0353747Y0024000D02*
X0353881Y0023800D01*
X0353881Y0024000D01*
X0353931Y0024000D02*
X0353931Y0023800D01*
X0354065Y0023800D01*
X0354182Y0023800D02*
X0354182Y0024000D01*
X0354116Y0024000D02*
X0354249Y0024000D01*
X0354118Y0024100D02*
X0354085Y0024100D01*
X0354085Y0024133D01*
X0354118Y0024133D01*
X0354118Y0024100D01*
X0354034Y0024100D02*
X0353967Y0024167D01*
X0353931Y0024000D02*
X0354065Y0024000D01*
X0353998Y0023900D02*
X0353931Y0023900D01*
X0353747Y0023800D02*
X0353747Y0024000D01*
X0353689Y0023833D02*
X0353689Y0023800D01*
X0353655Y0023800D01*
X0353655Y0023833D01*
X0353689Y0023833D01*
X0353599Y0024100D02*
X0353532Y0024167D01*
X0353532Y0024300D01*
X0353482Y0024267D02*
X0353448Y0024300D01*
X0353382Y0024300D01*
X0353348Y0024267D01*
X0353348Y0024133D01*
X0353382Y0024100D01*
X0353448Y0024100D01*
X0353482Y0024133D01*
X0353482Y0024267D01*
X0353298Y0024300D02*
X0353164Y0024300D01*
X0353231Y0024300D02*
X0353231Y0024100D01*
X0353354Y0024000D02*
X0353354Y0023800D01*
X0353052Y0023900D02*
X0352919Y0023900D01*
X0352868Y0023967D02*
X0352834Y0024000D01*
X0352768Y0024000D01*
X0352734Y0023967D01*
X0352734Y0023833D01*
X0352829Y0024100D02*
X0352896Y0024100D01*
X0352929Y0024133D01*
X0352929Y0024267D01*
X0352896Y0024300D01*
X0352829Y0024300D01*
X0352796Y0024267D01*
X0352796Y0024133D01*
X0352829Y0024100D01*
X0347678Y0023933D02*
X0347645Y0023933D01*
X0347578Y0023867D01*
X0347578Y0023933D02*
X0347578Y0023800D01*
X0347525Y0023933D02*
X0347491Y0023933D01*
X0347425Y0023867D01*
X0347374Y0023867D02*
X0347241Y0023867D01*
X0347241Y0023900D02*
X0347274Y0023933D01*
X0347341Y0023933D01*
X0347374Y0023900D01*
X0347374Y0023867D01*
X0347341Y0023800D02*
X0347274Y0023800D01*
X0347241Y0023833D01*
X0347241Y0023900D01*
X0347425Y0023933D02*
X0347425Y0023800D01*
X0375800Y0024300D02*
X0375802Y0024418D01*
X0375808Y0024536D01*
X0375818Y0024654D01*
X0375832Y0024771D01*
X0375850Y0024888D01*
X0375872Y0025005D01*
X0375897Y0025120D01*
X0375927Y0025234D01*
X0375961Y0025348D01*
X0375998Y0025460D01*
X0376039Y0025571D01*
X0376084Y0025680D01*
X0376132Y0025788D01*
X0376184Y0025894D01*
X0376240Y0025999D01*
X0376299Y0026101D01*
X0376361Y0026201D01*
X0376427Y0026299D01*
X0376496Y0026395D01*
X0376569Y0026489D01*
X0376644Y0026580D01*
X0376723Y0026668D01*
X0376804Y0026754D01*
X0376889Y0026837D01*
X0376976Y0026917D01*
X0377065Y0026994D01*
X0377158Y0027068D01*
X0377252Y0027138D01*
X0377349Y0027206D01*
X0377449Y0027270D01*
X0377550Y0027331D01*
X0377653Y0027388D01*
X0377759Y0027442D01*
X0377866Y0027493D01*
X0377974Y0027539D01*
X0378084Y0027582D01*
X0378196Y0027621D01*
X0378309Y0027657D01*
X0378423Y0027688D01*
X0378538Y0027716D01*
X0378653Y0027740D01*
X0378770Y0027760D01*
X0378887Y0027776D01*
X0379005Y0027788D01*
X0379123Y0027796D01*
X0379241Y0027800D01*
X0379359Y0027800D01*
X0379477Y0027796D01*
X0379595Y0027788D01*
X0379713Y0027776D01*
X0379830Y0027760D01*
X0379947Y0027740D01*
X0380062Y0027716D01*
X0380177Y0027688D01*
X0380291Y0027657D01*
X0380404Y0027621D01*
X0380516Y0027582D01*
X0380626Y0027539D01*
X0380734Y0027493D01*
X0380841Y0027442D01*
X0380947Y0027388D01*
X0381050Y0027331D01*
X0381151Y0027270D01*
X0381251Y0027206D01*
X0381348Y0027138D01*
X0381442Y0027068D01*
X0381535Y0026994D01*
X0381624Y0026917D01*
X0381711Y0026837D01*
X0381796Y0026754D01*
X0381877Y0026668D01*
X0381956Y0026580D01*
X0382031Y0026489D01*
X0382104Y0026395D01*
X0382173Y0026299D01*
X0382239Y0026201D01*
X0382301Y0026101D01*
X0382360Y0025999D01*
X0382416Y0025894D01*
X0382468Y0025788D01*
X0382516Y0025680D01*
X0382561Y0025571D01*
X0382602Y0025460D01*
X0382639Y0025348D01*
X0382673Y0025234D01*
X0382703Y0025120D01*
X0382728Y0025005D01*
X0382750Y0024888D01*
X0382768Y0024771D01*
X0382782Y0024654D01*
X0382792Y0024536D01*
X0382798Y0024418D01*
X0382800Y0024300D01*
X0382798Y0024182D01*
X0382792Y0024064D01*
X0382782Y0023946D01*
X0382768Y0023829D01*
X0382750Y0023712D01*
X0382728Y0023595D01*
X0382703Y0023480D01*
X0382673Y0023366D01*
X0382639Y0023252D01*
X0382602Y0023140D01*
X0382561Y0023029D01*
X0382516Y0022920D01*
X0382468Y0022812D01*
X0382416Y0022706D01*
X0382360Y0022601D01*
X0382301Y0022499D01*
X0382239Y0022399D01*
X0382173Y0022301D01*
X0382104Y0022205D01*
X0382031Y0022111D01*
X0381956Y0022020D01*
X0381877Y0021932D01*
X0381796Y0021846D01*
X0381711Y0021763D01*
X0381624Y0021683D01*
X0381535Y0021606D01*
X0381442Y0021532D01*
X0381348Y0021462D01*
X0381251Y0021394D01*
X0381151Y0021330D01*
X0381050Y0021269D01*
X0380947Y0021212D01*
X0380841Y0021158D01*
X0380734Y0021107D01*
X0380626Y0021061D01*
X0380516Y0021018D01*
X0380404Y0020979D01*
X0380291Y0020943D01*
X0380177Y0020912D01*
X0380062Y0020884D01*
X0379947Y0020860D01*
X0379830Y0020840D01*
X0379713Y0020824D01*
X0379595Y0020812D01*
X0379477Y0020804D01*
X0379359Y0020800D01*
X0379241Y0020800D01*
X0379123Y0020804D01*
X0379005Y0020812D01*
X0378887Y0020824D01*
X0378770Y0020840D01*
X0378653Y0020860D01*
X0378538Y0020884D01*
X0378423Y0020912D01*
X0378309Y0020943D01*
X0378196Y0020979D01*
X0378084Y0021018D01*
X0377974Y0021061D01*
X0377866Y0021107D01*
X0377759Y0021158D01*
X0377653Y0021212D01*
X0377550Y0021269D01*
X0377449Y0021330D01*
X0377349Y0021394D01*
X0377252Y0021462D01*
X0377158Y0021532D01*
X0377065Y0021606D01*
X0376976Y0021683D01*
X0376889Y0021763D01*
X0376804Y0021846D01*
X0376723Y0021932D01*
X0376644Y0022020D01*
X0376569Y0022111D01*
X0376496Y0022205D01*
X0376427Y0022301D01*
X0376361Y0022399D01*
X0376299Y0022499D01*
X0376240Y0022601D01*
X0376184Y0022706D01*
X0376132Y0022812D01*
X0376084Y0022920D01*
X0376039Y0023029D01*
X0375998Y0023140D01*
X0375961Y0023252D01*
X0375927Y0023366D01*
X0375897Y0023480D01*
X0375872Y0023595D01*
X0375850Y0023712D01*
X0375832Y0023829D01*
X0375818Y0023946D01*
X0375808Y0024064D01*
X0375802Y0024182D01*
X0375800Y0024300D01*
X0375800Y0184300D02*
X0375802Y0184418D01*
X0375808Y0184536D01*
X0375818Y0184654D01*
X0375832Y0184771D01*
X0375850Y0184888D01*
X0375872Y0185005D01*
X0375897Y0185120D01*
X0375927Y0185234D01*
X0375961Y0185348D01*
X0375998Y0185460D01*
X0376039Y0185571D01*
X0376084Y0185680D01*
X0376132Y0185788D01*
X0376184Y0185894D01*
X0376240Y0185999D01*
X0376299Y0186101D01*
X0376361Y0186201D01*
X0376427Y0186299D01*
X0376496Y0186395D01*
X0376569Y0186489D01*
X0376644Y0186580D01*
X0376723Y0186668D01*
X0376804Y0186754D01*
X0376889Y0186837D01*
X0376976Y0186917D01*
X0377065Y0186994D01*
X0377158Y0187068D01*
X0377252Y0187138D01*
X0377349Y0187206D01*
X0377449Y0187270D01*
X0377550Y0187331D01*
X0377653Y0187388D01*
X0377759Y0187442D01*
X0377866Y0187493D01*
X0377974Y0187539D01*
X0378084Y0187582D01*
X0378196Y0187621D01*
X0378309Y0187657D01*
X0378423Y0187688D01*
X0378538Y0187716D01*
X0378653Y0187740D01*
X0378770Y0187760D01*
X0378887Y0187776D01*
X0379005Y0187788D01*
X0379123Y0187796D01*
X0379241Y0187800D01*
X0379359Y0187800D01*
X0379477Y0187796D01*
X0379595Y0187788D01*
X0379713Y0187776D01*
X0379830Y0187760D01*
X0379947Y0187740D01*
X0380062Y0187716D01*
X0380177Y0187688D01*
X0380291Y0187657D01*
X0380404Y0187621D01*
X0380516Y0187582D01*
X0380626Y0187539D01*
X0380734Y0187493D01*
X0380841Y0187442D01*
X0380947Y0187388D01*
X0381050Y0187331D01*
X0381151Y0187270D01*
X0381251Y0187206D01*
X0381348Y0187138D01*
X0381442Y0187068D01*
X0381535Y0186994D01*
X0381624Y0186917D01*
X0381711Y0186837D01*
X0381796Y0186754D01*
X0381877Y0186668D01*
X0381956Y0186580D01*
X0382031Y0186489D01*
X0382104Y0186395D01*
X0382173Y0186299D01*
X0382239Y0186201D01*
X0382301Y0186101D01*
X0382360Y0185999D01*
X0382416Y0185894D01*
X0382468Y0185788D01*
X0382516Y0185680D01*
X0382561Y0185571D01*
X0382602Y0185460D01*
X0382639Y0185348D01*
X0382673Y0185234D01*
X0382703Y0185120D01*
X0382728Y0185005D01*
X0382750Y0184888D01*
X0382768Y0184771D01*
X0382782Y0184654D01*
X0382792Y0184536D01*
X0382798Y0184418D01*
X0382800Y0184300D01*
X0382798Y0184182D01*
X0382792Y0184064D01*
X0382782Y0183946D01*
X0382768Y0183829D01*
X0382750Y0183712D01*
X0382728Y0183595D01*
X0382703Y0183480D01*
X0382673Y0183366D01*
X0382639Y0183252D01*
X0382602Y0183140D01*
X0382561Y0183029D01*
X0382516Y0182920D01*
X0382468Y0182812D01*
X0382416Y0182706D01*
X0382360Y0182601D01*
X0382301Y0182499D01*
X0382239Y0182399D01*
X0382173Y0182301D01*
X0382104Y0182205D01*
X0382031Y0182111D01*
X0381956Y0182020D01*
X0381877Y0181932D01*
X0381796Y0181846D01*
X0381711Y0181763D01*
X0381624Y0181683D01*
X0381535Y0181606D01*
X0381442Y0181532D01*
X0381348Y0181462D01*
X0381251Y0181394D01*
X0381151Y0181330D01*
X0381050Y0181269D01*
X0380947Y0181212D01*
X0380841Y0181158D01*
X0380734Y0181107D01*
X0380626Y0181061D01*
X0380516Y0181018D01*
X0380404Y0180979D01*
X0380291Y0180943D01*
X0380177Y0180912D01*
X0380062Y0180884D01*
X0379947Y0180860D01*
X0379830Y0180840D01*
X0379713Y0180824D01*
X0379595Y0180812D01*
X0379477Y0180804D01*
X0379359Y0180800D01*
X0379241Y0180800D01*
X0379123Y0180804D01*
X0379005Y0180812D01*
X0378887Y0180824D01*
X0378770Y0180840D01*
X0378653Y0180860D01*
X0378538Y0180884D01*
X0378423Y0180912D01*
X0378309Y0180943D01*
X0378196Y0180979D01*
X0378084Y0181018D01*
X0377974Y0181061D01*
X0377866Y0181107D01*
X0377759Y0181158D01*
X0377653Y0181212D01*
X0377550Y0181269D01*
X0377449Y0181330D01*
X0377349Y0181394D01*
X0377252Y0181462D01*
X0377158Y0181532D01*
X0377065Y0181606D01*
X0376976Y0181683D01*
X0376889Y0181763D01*
X0376804Y0181846D01*
X0376723Y0181932D01*
X0376644Y0182020D01*
X0376569Y0182111D01*
X0376496Y0182205D01*
X0376427Y0182301D01*
X0376361Y0182399D01*
X0376299Y0182499D01*
X0376240Y0182601D01*
X0376184Y0182706D01*
X0376132Y0182812D01*
X0376084Y0182920D01*
X0376039Y0183029D01*
X0375998Y0183140D01*
X0375961Y0183252D01*
X0375927Y0183366D01*
X0375897Y0183480D01*
X0375872Y0183595D01*
X0375850Y0183712D01*
X0375832Y0183829D01*
X0375818Y0183946D01*
X0375808Y0184064D01*
X0375802Y0184182D01*
X0375800Y0184300D01*
X0315800Y0184300D02*
X0315802Y0184418D01*
X0315808Y0184536D01*
X0315818Y0184654D01*
X0315832Y0184771D01*
X0315850Y0184888D01*
X0315872Y0185005D01*
X0315897Y0185120D01*
X0315927Y0185234D01*
X0315961Y0185348D01*
X0315998Y0185460D01*
X0316039Y0185571D01*
X0316084Y0185680D01*
X0316132Y0185788D01*
X0316184Y0185894D01*
X0316240Y0185999D01*
X0316299Y0186101D01*
X0316361Y0186201D01*
X0316427Y0186299D01*
X0316496Y0186395D01*
X0316569Y0186489D01*
X0316644Y0186580D01*
X0316723Y0186668D01*
X0316804Y0186754D01*
X0316889Y0186837D01*
X0316976Y0186917D01*
X0317065Y0186994D01*
X0317158Y0187068D01*
X0317252Y0187138D01*
X0317349Y0187206D01*
X0317449Y0187270D01*
X0317550Y0187331D01*
X0317653Y0187388D01*
X0317759Y0187442D01*
X0317866Y0187493D01*
X0317974Y0187539D01*
X0318084Y0187582D01*
X0318196Y0187621D01*
X0318309Y0187657D01*
X0318423Y0187688D01*
X0318538Y0187716D01*
X0318653Y0187740D01*
X0318770Y0187760D01*
X0318887Y0187776D01*
X0319005Y0187788D01*
X0319123Y0187796D01*
X0319241Y0187800D01*
X0319359Y0187800D01*
X0319477Y0187796D01*
X0319595Y0187788D01*
X0319713Y0187776D01*
X0319830Y0187760D01*
X0319947Y0187740D01*
X0320062Y0187716D01*
X0320177Y0187688D01*
X0320291Y0187657D01*
X0320404Y0187621D01*
X0320516Y0187582D01*
X0320626Y0187539D01*
X0320734Y0187493D01*
X0320841Y0187442D01*
X0320947Y0187388D01*
X0321050Y0187331D01*
X0321151Y0187270D01*
X0321251Y0187206D01*
X0321348Y0187138D01*
X0321442Y0187068D01*
X0321535Y0186994D01*
X0321624Y0186917D01*
X0321711Y0186837D01*
X0321796Y0186754D01*
X0321877Y0186668D01*
X0321956Y0186580D01*
X0322031Y0186489D01*
X0322104Y0186395D01*
X0322173Y0186299D01*
X0322239Y0186201D01*
X0322301Y0186101D01*
X0322360Y0185999D01*
X0322416Y0185894D01*
X0322468Y0185788D01*
X0322516Y0185680D01*
X0322561Y0185571D01*
X0322602Y0185460D01*
X0322639Y0185348D01*
X0322673Y0185234D01*
X0322703Y0185120D01*
X0322728Y0185005D01*
X0322750Y0184888D01*
X0322768Y0184771D01*
X0322782Y0184654D01*
X0322792Y0184536D01*
X0322798Y0184418D01*
X0322800Y0184300D01*
X0322798Y0184182D01*
X0322792Y0184064D01*
X0322782Y0183946D01*
X0322768Y0183829D01*
X0322750Y0183712D01*
X0322728Y0183595D01*
X0322703Y0183480D01*
X0322673Y0183366D01*
X0322639Y0183252D01*
X0322602Y0183140D01*
X0322561Y0183029D01*
X0322516Y0182920D01*
X0322468Y0182812D01*
X0322416Y0182706D01*
X0322360Y0182601D01*
X0322301Y0182499D01*
X0322239Y0182399D01*
X0322173Y0182301D01*
X0322104Y0182205D01*
X0322031Y0182111D01*
X0321956Y0182020D01*
X0321877Y0181932D01*
X0321796Y0181846D01*
X0321711Y0181763D01*
X0321624Y0181683D01*
X0321535Y0181606D01*
X0321442Y0181532D01*
X0321348Y0181462D01*
X0321251Y0181394D01*
X0321151Y0181330D01*
X0321050Y0181269D01*
X0320947Y0181212D01*
X0320841Y0181158D01*
X0320734Y0181107D01*
X0320626Y0181061D01*
X0320516Y0181018D01*
X0320404Y0180979D01*
X0320291Y0180943D01*
X0320177Y0180912D01*
X0320062Y0180884D01*
X0319947Y0180860D01*
X0319830Y0180840D01*
X0319713Y0180824D01*
X0319595Y0180812D01*
X0319477Y0180804D01*
X0319359Y0180800D01*
X0319241Y0180800D01*
X0319123Y0180804D01*
X0319005Y0180812D01*
X0318887Y0180824D01*
X0318770Y0180840D01*
X0318653Y0180860D01*
X0318538Y0180884D01*
X0318423Y0180912D01*
X0318309Y0180943D01*
X0318196Y0180979D01*
X0318084Y0181018D01*
X0317974Y0181061D01*
X0317866Y0181107D01*
X0317759Y0181158D01*
X0317653Y0181212D01*
X0317550Y0181269D01*
X0317449Y0181330D01*
X0317349Y0181394D01*
X0317252Y0181462D01*
X0317158Y0181532D01*
X0317065Y0181606D01*
X0316976Y0181683D01*
X0316889Y0181763D01*
X0316804Y0181846D01*
X0316723Y0181932D01*
X0316644Y0182020D01*
X0316569Y0182111D01*
X0316496Y0182205D01*
X0316427Y0182301D01*
X0316361Y0182399D01*
X0316299Y0182499D01*
X0316240Y0182601D01*
X0316184Y0182706D01*
X0316132Y0182812D01*
X0316084Y0182920D01*
X0316039Y0183029D01*
X0315998Y0183140D01*
X0315961Y0183252D01*
X0315927Y0183366D01*
X0315897Y0183480D01*
X0315872Y0183595D01*
X0315850Y0183712D01*
X0315832Y0183829D01*
X0315818Y0183946D01*
X0315808Y0184064D01*
X0315802Y0184182D01*
X0315800Y0184300D01*
D11*
X0314300Y0184300D02*
X0314300Y0189300D01*
X0319300Y0189300D01*
X0334300Y0189300D01*
X0334300Y0169300D01*
X0364300Y0169300D01*
X0364300Y0189300D01*
X0379300Y0189300D01*
X0384300Y0189300D01*
X0384300Y0184300D01*
X0384300Y0024300D01*
X0384300Y0019300D01*
X0379300Y0019300D01*
X0339300Y0019300D01*
X0339300Y0039300D01*
X0359300Y0039300D01*
X0359300Y0014300D01*
X0339300Y0014300D01*
X0339300Y0019300D01*
X0314300Y0019300D01*
X0314300Y0184300D01*
X0324300Y0174300D02*
X0329300Y0179300D01*
X0329300Y0169300D01*
X0324300Y0174300D01*
X0324315Y0174285D02*
X0329300Y0174285D01*
X0329300Y0174783D02*
X0324783Y0174783D01*
X0325282Y0175282D02*
X0329300Y0175282D01*
X0329300Y0175780D02*
X0325780Y0175780D01*
X0326279Y0176279D02*
X0329300Y0176279D01*
X0329300Y0176777D02*
X0326777Y0176777D01*
X0327276Y0177276D02*
X0329300Y0177276D01*
X0329300Y0177774D02*
X0327774Y0177774D01*
X0328273Y0178273D02*
X0329300Y0178273D01*
X0329300Y0178772D02*
X0328772Y0178772D01*
X0329270Y0179270D02*
X0329300Y0179270D01*
X0329300Y0173786D02*
X0324814Y0173786D01*
X0325312Y0173288D02*
X0329300Y0173288D01*
X0329300Y0172789D02*
X0325811Y0172789D01*
X0326309Y0172291D02*
X0329300Y0172291D01*
X0329300Y0171792D02*
X0326808Y0171792D01*
X0327306Y0171294D02*
X0329300Y0171294D01*
X0329300Y0170795D02*
X0327805Y0170795D01*
X0328303Y0170297D02*
X0329300Y0170297D01*
X0329300Y0169798D02*
X0328802Y0169798D01*
X0326294Y0167306D02*
X0324300Y0167306D01*
X0324300Y0167804D02*
X0325796Y0167804D01*
X0325297Y0168303D02*
X0324300Y0168303D01*
X0324300Y0168801D02*
X0324799Y0168801D01*
X0324300Y0169300D02*
X0324300Y0169300D01*
X0324300Y0159300D01*
X0329300Y0164300D01*
X0324300Y0169300D01*
X0324300Y0166807D02*
X0326793Y0166807D01*
X0327291Y0166309D02*
X0324300Y0166309D01*
X0324300Y0165810D02*
X0327790Y0165810D01*
X0328288Y0165312D02*
X0324300Y0165312D01*
X0324300Y0164813D02*
X0328787Y0164813D01*
X0329285Y0164315D02*
X0324300Y0164315D01*
X0324300Y0163816D02*
X0328816Y0163816D01*
X0328318Y0163318D02*
X0324300Y0163318D01*
X0324300Y0162819D02*
X0327819Y0162819D01*
X0327321Y0162321D02*
X0324300Y0162321D01*
X0324300Y0161822D02*
X0326822Y0161822D01*
X0326324Y0161324D02*
X0324300Y0161324D01*
X0324300Y0160825D02*
X0325825Y0160825D01*
X0325327Y0160327D02*
X0324300Y0160327D01*
X0324300Y0159828D02*
X0324828Y0159828D01*
X0324330Y0159330D02*
X0324300Y0159330D01*
X0336150Y0174300D02*
X0336152Y0174412D01*
X0336158Y0174523D01*
X0336168Y0174635D01*
X0336182Y0174746D01*
X0336199Y0174856D01*
X0336221Y0174966D01*
X0336247Y0175075D01*
X0336276Y0175183D01*
X0336309Y0175289D01*
X0336346Y0175395D01*
X0336387Y0175499D01*
X0336432Y0175602D01*
X0336480Y0175703D01*
X0336531Y0175802D01*
X0336586Y0175899D01*
X0336645Y0175994D01*
X0336706Y0176088D01*
X0336771Y0176179D01*
X0336840Y0176267D01*
X0336911Y0176353D01*
X0336985Y0176437D01*
X0337063Y0176517D01*
X0337143Y0176595D01*
X0337226Y0176671D01*
X0337311Y0176743D01*
X0337399Y0176812D01*
X0337489Y0176878D01*
X0337582Y0176940D01*
X0337677Y0177000D01*
X0337774Y0177056D01*
X0337872Y0177108D01*
X0337973Y0177157D01*
X0338075Y0177202D01*
X0338179Y0177244D01*
X0338284Y0177282D01*
X0338391Y0177316D01*
X0338498Y0177346D01*
X0338607Y0177373D01*
X0338716Y0177395D01*
X0338827Y0177414D01*
X0338937Y0177429D01*
X0339049Y0177440D01*
X0339160Y0177447D01*
X0339272Y0177450D01*
X0339384Y0177449D01*
X0339496Y0177444D01*
X0339607Y0177435D01*
X0339718Y0177422D01*
X0339829Y0177405D01*
X0339939Y0177385D01*
X0340048Y0177360D01*
X0340156Y0177332D01*
X0340263Y0177299D01*
X0340369Y0177263D01*
X0340473Y0177223D01*
X0340576Y0177180D01*
X0340678Y0177133D01*
X0340777Y0177082D01*
X0340875Y0177028D01*
X0340971Y0176970D01*
X0341065Y0176909D01*
X0341156Y0176845D01*
X0341245Y0176778D01*
X0341332Y0176707D01*
X0341416Y0176633D01*
X0341498Y0176557D01*
X0341576Y0176477D01*
X0341652Y0176395D01*
X0341725Y0176310D01*
X0341795Y0176223D01*
X0341861Y0176133D01*
X0341925Y0176041D01*
X0341985Y0175947D01*
X0342042Y0175851D01*
X0342095Y0175752D01*
X0342145Y0175652D01*
X0342191Y0175551D01*
X0342234Y0175447D01*
X0342273Y0175342D01*
X0342308Y0175236D01*
X0342339Y0175129D01*
X0342367Y0175020D01*
X0342390Y0174911D01*
X0342410Y0174801D01*
X0342426Y0174690D01*
X0342438Y0174579D01*
X0342446Y0174468D01*
X0342450Y0174356D01*
X0342450Y0174244D01*
X0342446Y0174132D01*
X0342438Y0174021D01*
X0342426Y0173910D01*
X0342410Y0173799D01*
X0342390Y0173689D01*
X0342367Y0173580D01*
X0342339Y0173471D01*
X0342308Y0173364D01*
X0342273Y0173258D01*
X0342234Y0173153D01*
X0342191Y0173049D01*
X0342145Y0172948D01*
X0342095Y0172848D01*
X0342042Y0172749D01*
X0341985Y0172653D01*
X0341925Y0172559D01*
X0341861Y0172467D01*
X0341795Y0172377D01*
X0341725Y0172290D01*
X0341652Y0172205D01*
X0341576Y0172123D01*
X0341498Y0172043D01*
X0341416Y0171967D01*
X0341332Y0171893D01*
X0341245Y0171822D01*
X0341156Y0171755D01*
X0341065Y0171691D01*
X0340971Y0171630D01*
X0340875Y0171572D01*
X0340777Y0171518D01*
X0340678Y0171467D01*
X0340576Y0171420D01*
X0340473Y0171377D01*
X0340369Y0171337D01*
X0340263Y0171301D01*
X0340156Y0171268D01*
X0340048Y0171240D01*
X0339939Y0171215D01*
X0339829Y0171195D01*
X0339718Y0171178D01*
X0339607Y0171165D01*
X0339496Y0171156D01*
X0339384Y0171151D01*
X0339272Y0171150D01*
X0339160Y0171153D01*
X0339049Y0171160D01*
X0338937Y0171171D01*
X0338827Y0171186D01*
X0338716Y0171205D01*
X0338607Y0171227D01*
X0338498Y0171254D01*
X0338391Y0171284D01*
X0338284Y0171318D01*
X0338179Y0171356D01*
X0338075Y0171398D01*
X0337973Y0171443D01*
X0337872Y0171492D01*
X0337774Y0171544D01*
X0337677Y0171600D01*
X0337582Y0171660D01*
X0337489Y0171722D01*
X0337399Y0171788D01*
X0337311Y0171857D01*
X0337226Y0171929D01*
X0337143Y0172005D01*
X0337063Y0172083D01*
X0336985Y0172163D01*
X0336911Y0172247D01*
X0336840Y0172333D01*
X0336771Y0172421D01*
X0336706Y0172512D01*
X0336645Y0172606D01*
X0336586Y0172701D01*
X0336531Y0172798D01*
X0336480Y0172897D01*
X0336432Y0172998D01*
X0336387Y0173101D01*
X0336346Y0173205D01*
X0336309Y0173311D01*
X0336276Y0173417D01*
X0336247Y0173525D01*
X0336221Y0173634D01*
X0336199Y0173744D01*
X0336182Y0173854D01*
X0336168Y0173965D01*
X0336158Y0174077D01*
X0336152Y0174188D01*
X0336150Y0174300D01*
X0346150Y0174300D02*
X0346152Y0174412D01*
X0346158Y0174523D01*
X0346168Y0174635D01*
X0346182Y0174746D01*
X0346199Y0174856D01*
X0346221Y0174966D01*
X0346247Y0175075D01*
X0346276Y0175183D01*
X0346309Y0175289D01*
X0346346Y0175395D01*
X0346387Y0175499D01*
X0346432Y0175602D01*
X0346480Y0175703D01*
X0346531Y0175802D01*
X0346586Y0175899D01*
X0346645Y0175994D01*
X0346706Y0176088D01*
X0346771Y0176179D01*
X0346840Y0176267D01*
X0346911Y0176353D01*
X0346985Y0176437D01*
X0347063Y0176517D01*
X0347143Y0176595D01*
X0347226Y0176671D01*
X0347311Y0176743D01*
X0347399Y0176812D01*
X0347489Y0176878D01*
X0347582Y0176940D01*
X0347677Y0177000D01*
X0347774Y0177056D01*
X0347872Y0177108D01*
X0347973Y0177157D01*
X0348075Y0177202D01*
X0348179Y0177244D01*
X0348284Y0177282D01*
X0348391Y0177316D01*
X0348498Y0177346D01*
X0348607Y0177373D01*
X0348716Y0177395D01*
X0348827Y0177414D01*
X0348937Y0177429D01*
X0349049Y0177440D01*
X0349160Y0177447D01*
X0349272Y0177450D01*
X0349384Y0177449D01*
X0349496Y0177444D01*
X0349607Y0177435D01*
X0349718Y0177422D01*
X0349829Y0177405D01*
X0349939Y0177385D01*
X0350048Y0177360D01*
X0350156Y0177332D01*
X0350263Y0177299D01*
X0350369Y0177263D01*
X0350473Y0177223D01*
X0350576Y0177180D01*
X0350678Y0177133D01*
X0350777Y0177082D01*
X0350875Y0177028D01*
X0350971Y0176970D01*
X0351065Y0176909D01*
X0351156Y0176845D01*
X0351245Y0176778D01*
X0351332Y0176707D01*
X0351416Y0176633D01*
X0351498Y0176557D01*
X0351576Y0176477D01*
X0351652Y0176395D01*
X0351725Y0176310D01*
X0351795Y0176223D01*
X0351861Y0176133D01*
X0351925Y0176041D01*
X0351985Y0175947D01*
X0352042Y0175851D01*
X0352095Y0175752D01*
X0352145Y0175652D01*
X0352191Y0175551D01*
X0352234Y0175447D01*
X0352273Y0175342D01*
X0352308Y0175236D01*
X0352339Y0175129D01*
X0352367Y0175020D01*
X0352390Y0174911D01*
X0352410Y0174801D01*
X0352426Y0174690D01*
X0352438Y0174579D01*
X0352446Y0174468D01*
X0352450Y0174356D01*
X0352450Y0174244D01*
X0352446Y0174132D01*
X0352438Y0174021D01*
X0352426Y0173910D01*
X0352410Y0173799D01*
X0352390Y0173689D01*
X0352367Y0173580D01*
X0352339Y0173471D01*
X0352308Y0173364D01*
X0352273Y0173258D01*
X0352234Y0173153D01*
X0352191Y0173049D01*
X0352145Y0172948D01*
X0352095Y0172848D01*
X0352042Y0172749D01*
X0351985Y0172653D01*
X0351925Y0172559D01*
X0351861Y0172467D01*
X0351795Y0172377D01*
X0351725Y0172290D01*
X0351652Y0172205D01*
X0351576Y0172123D01*
X0351498Y0172043D01*
X0351416Y0171967D01*
X0351332Y0171893D01*
X0351245Y0171822D01*
X0351156Y0171755D01*
X0351065Y0171691D01*
X0350971Y0171630D01*
X0350875Y0171572D01*
X0350777Y0171518D01*
X0350678Y0171467D01*
X0350576Y0171420D01*
X0350473Y0171377D01*
X0350369Y0171337D01*
X0350263Y0171301D01*
X0350156Y0171268D01*
X0350048Y0171240D01*
X0349939Y0171215D01*
X0349829Y0171195D01*
X0349718Y0171178D01*
X0349607Y0171165D01*
X0349496Y0171156D01*
X0349384Y0171151D01*
X0349272Y0171150D01*
X0349160Y0171153D01*
X0349049Y0171160D01*
X0348937Y0171171D01*
X0348827Y0171186D01*
X0348716Y0171205D01*
X0348607Y0171227D01*
X0348498Y0171254D01*
X0348391Y0171284D01*
X0348284Y0171318D01*
X0348179Y0171356D01*
X0348075Y0171398D01*
X0347973Y0171443D01*
X0347872Y0171492D01*
X0347774Y0171544D01*
X0347677Y0171600D01*
X0347582Y0171660D01*
X0347489Y0171722D01*
X0347399Y0171788D01*
X0347311Y0171857D01*
X0347226Y0171929D01*
X0347143Y0172005D01*
X0347063Y0172083D01*
X0346985Y0172163D01*
X0346911Y0172247D01*
X0346840Y0172333D01*
X0346771Y0172421D01*
X0346706Y0172512D01*
X0346645Y0172606D01*
X0346586Y0172701D01*
X0346531Y0172798D01*
X0346480Y0172897D01*
X0346432Y0172998D01*
X0346387Y0173101D01*
X0346346Y0173205D01*
X0346309Y0173311D01*
X0346276Y0173417D01*
X0346247Y0173525D01*
X0346221Y0173634D01*
X0346199Y0173744D01*
X0346182Y0173854D01*
X0346168Y0173965D01*
X0346158Y0174077D01*
X0346152Y0174188D01*
X0346150Y0174300D01*
X0356150Y0174300D02*
X0356152Y0174412D01*
X0356158Y0174523D01*
X0356168Y0174635D01*
X0356182Y0174746D01*
X0356199Y0174856D01*
X0356221Y0174966D01*
X0356247Y0175075D01*
X0356276Y0175183D01*
X0356309Y0175289D01*
X0356346Y0175395D01*
X0356387Y0175499D01*
X0356432Y0175602D01*
X0356480Y0175703D01*
X0356531Y0175802D01*
X0356586Y0175899D01*
X0356645Y0175994D01*
X0356706Y0176088D01*
X0356771Y0176179D01*
X0356840Y0176267D01*
X0356911Y0176353D01*
X0356985Y0176437D01*
X0357063Y0176517D01*
X0357143Y0176595D01*
X0357226Y0176671D01*
X0357311Y0176743D01*
X0357399Y0176812D01*
X0357489Y0176878D01*
X0357582Y0176940D01*
X0357677Y0177000D01*
X0357774Y0177056D01*
X0357872Y0177108D01*
X0357973Y0177157D01*
X0358075Y0177202D01*
X0358179Y0177244D01*
X0358284Y0177282D01*
X0358391Y0177316D01*
X0358498Y0177346D01*
X0358607Y0177373D01*
X0358716Y0177395D01*
X0358827Y0177414D01*
X0358937Y0177429D01*
X0359049Y0177440D01*
X0359160Y0177447D01*
X0359272Y0177450D01*
X0359384Y0177449D01*
X0359496Y0177444D01*
X0359607Y0177435D01*
X0359718Y0177422D01*
X0359829Y0177405D01*
X0359939Y0177385D01*
X0360048Y0177360D01*
X0360156Y0177332D01*
X0360263Y0177299D01*
X0360369Y0177263D01*
X0360473Y0177223D01*
X0360576Y0177180D01*
X0360678Y0177133D01*
X0360777Y0177082D01*
X0360875Y0177028D01*
X0360971Y0176970D01*
X0361065Y0176909D01*
X0361156Y0176845D01*
X0361245Y0176778D01*
X0361332Y0176707D01*
X0361416Y0176633D01*
X0361498Y0176557D01*
X0361576Y0176477D01*
X0361652Y0176395D01*
X0361725Y0176310D01*
X0361795Y0176223D01*
X0361861Y0176133D01*
X0361925Y0176041D01*
X0361985Y0175947D01*
X0362042Y0175851D01*
X0362095Y0175752D01*
X0362145Y0175652D01*
X0362191Y0175551D01*
X0362234Y0175447D01*
X0362273Y0175342D01*
X0362308Y0175236D01*
X0362339Y0175129D01*
X0362367Y0175020D01*
X0362390Y0174911D01*
X0362410Y0174801D01*
X0362426Y0174690D01*
X0362438Y0174579D01*
X0362446Y0174468D01*
X0362450Y0174356D01*
X0362450Y0174244D01*
X0362446Y0174132D01*
X0362438Y0174021D01*
X0362426Y0173910D01*
X0362410Y0173799D01*
X0362390Y0173689D01*
X0362367Y0173580D01*
X0362339Y0173471D01*
X0362308Y0173364D01*
X0362273Y0173258D01*
X0362234Y0173153D01*
X0362191Y0173049D01*
X0362145Y0172948D01*
X0362095Y0172848D01*
X0362042Y0172749D01*
X0361985Y0172653D01*
X0361925Y0172559D01*
X0361861Y0172467D01*
X0361795Y0172377D01*
X0361725Y0172290D01*
X0361652Y0172205D01*
X0361576Y0172123D01*
X0361498Y0172043D01*
X0361416Y0171967D01*
X0361332Y0171893D01*
X0361245Y0171822D01*
X0361156Y0171755D01*
X0361065Y0171691D01*
X0360971Y0171630D01*
X0360875Y0171572D01*
X0360777Y0171518D01*
X0360678Y0171467D01*
X0360576Y0171420D01*
X0360473Y0171377D01*
X0360369Y0171337D01*
X0360263Y0171301D01*
X0360156Y0171268D01*
X0360048Y0171240D01*
X0359939Y0171215D01*
X0359829Y0171195D01*
X0359718Y0171178D01*
X0359607Y0171165D01*
X0359496Y0171156D01*
X0359384Y0171151D01*
X0359272Y0171150D01*
X0359160Y0171153D01*
X0359049Y0171160D01*
X0358937Y0171171D01*
X0358827Y0171186D01*
X0358716Y0171205D01*
X0358607Y0171227D01*
X0358498Y0171254D01*
X0358391Y0171284D01*
X0358284Y0171318D01*
X0358179Y0171356D01*
X0358075Y0171398D01*
X0357973Y0171443D01*
X0357872Y0171492D01*
X0357774Y0171544D01*
X0357677Y0171600D01*
X0357582Y0171660D01*
X0357489Y0171722D01*
X0357399Y0171788D01*
X0357311Y0171857D01*
X0357226Y0171929D01*
X0357143Y0172005D01*
X0357063Y0172083D01*
X0356985Y0172163D01*
X0356911Y0172247D01*
X0356840Y0172333D01*
X0356771Y0172421D01*
X0356706Y0172512D01*
X0356645Y0172606D01*
X0356586Y0172701D01*
X0356531Y0172798D01*
X0356480Y0172897D01*
X0356432Y0172998D01*
X0356387Y0173101D01*
X0356346Y0173205D01*
X0356309Y0173311D01*
X0356276Y0173417D01*
X0356247Y0173525D01*
X0356221Y0173634D01*
X0356199Y0173744D01*
X0356182Y0173854D01*
X0356168Y0173965D01*
X0356158Y0174077D01*
X0356152Y0174188D01*
X0356150Y0174300D01*
X0356150Y0184300D02*
X0356152Y0184412D01*
X0356158Y0184523D01*
X0356168Y0184635D01*
X0356182Y0184746D01*
X0356199Y0184856D01*
X0356221Y0184966D01*
X0356247Y0185075D01*
X0356276Y0185183D01*
X0356309Y0185289D01*
X0356346Y0185395D01*
X0356387Y0185499D01*
X0356432Y0185602D01*
X0356480Y0185703D01*
X0356531Y0185802D01*
X0356586Y0185899D01*
X0356645Y0185994D01*
X0356706Y0186088D01*
X0356771Y0186179D01*
X0356840Y0186267D01*
X0356911Y0186353D01*
X0356985Y0186437D01*
X0357063Y0186517D01*
X0357143Y0186595D01*
X0357226Y0186671D01*
X0357311Y0186743D01*
X0357399Y0186812D01*
X0357489Y0186878D01*
X0357582Y0186940D01*
X0357677Y0187000D01*
X0357774Y0187056D01*
X0357872Y0187108D01*
X0357973Y0187157D01*
X0358075Y0187202D01*
X0358179Y0187244D01*
X0358284Y0187282D01*
X0358391Y0187316D01*
X0358498Y0187346D01*
X0358607Y0187373D01*
X0358716Y0187395D01*
X0358827Y0187414D01*
X0358937Y0187429D01*
X0359049Y0187440D01*
X0359160Y0187447D01*
X0359272Y0187450D01*
X0359384Y0187449D01*
X0359496Y0187444D01*
X0359607Y0187435D01*
X0359718Y0187422D01*
X0359829Y0187405D01*
X0359939Y0187385D01*
X0360048Y0187360D01*
X0360156Y0187332D01*
X0360263Y0187299D01*
X0360369Y0187263D01*
X0360473Y0187223D01*
X0360576Y0187180D01*
X0360678Y0187133D01*
X0360777Y0187082D01*
X0360875Y0187028D01*
X0360971Y0186970D01*
X0361065Y0186909D01*
X0361156Y0186845D01*
X0361245Y0186778D01*
X0361332Y0186707D01*
X0361416Y0186633D01*
X0361498Y0186557D01*
X0361576Y0186477D01*
X0361652Y0186395D01*
X0361725Y0186310D01*
X0361795Y0186223D01*
X0361861Y0186133D01*
X0361925Y0186041D01*
X0361985Y0185947D01*
X0362042Y0185851D01*
X0362095Y0185752D01*
X0362145Y0185652D01*
X0362191Y0185551D01*
X0362234Y0185447D01*
X0362273Y0185342D01*
X0362308Y0185236D01*
X0362339Y0185129D01*
X0362367Y0185020D01*
X0362390Y0184911D01*
X0362410Y0184801D01*
X0362426Y0184690D01*
X0362438Y0184579D01*
X0362446Y0184468D01*
X0362450Y0184356D01*
X0362450Y0184244D01*
X0362446Y0184132D01*
X0362438Y0184021D01*
X0362426Y0183910D01*
X0362410Y0183799D01*
X0362390Y0183689D01*
X0362367Y0183580D01*
X0362339Y0183471D01*
X0362308Y0183364D01*
X0362273Y0183258D01*
X0362234Y0183153D01*
X0362191Y0183049D01*
X0362145Y0182948D01*
X0362095Y0182848D01*
X0362042Y0182749D01*
X0361985Y0182653D01*
X0361925Y0182559D01*
X0361861Y0182467D01*
X0361795Y0182377D01*
X0361725Y0182290D01*
X0361652Y0182205D01*
X0361576Y0182123D01*
X0361498Y0182043D01*
X0361416Y0181967D01*
X0361332Y0181893D01*
X0361245Y0181822D01*
X0361156Y0181755D01*
X0361065Y0181691D01*
X0360971Y0181630D01*
X0360875Y0181572D01*
X0360777Y0181518D01*
X0360678Y0181467D01*
X0360576Y0181420D01*
X0360473Y0181377D01*
X0360369Y0181337D01*
X0360263Y0181301D01*
X0360156Y0181268D01*
X0360048Y0181240D01*
X0359939Y0181215D01*
X0359829Y0181195D01*
X0359718Y0181178D01*
X0359607Y0181165D01*
X0359496Y0181156D01*
X0359384Y0181151D01*
X0359272Y0181150D01*
X0359160Y0181153D01*
X0359049Y0181160D01*
X0358937Y0181171D01*
X0358827Y0181186D01*
X0358716Y0181205D01*
X0358607Y0181227D01*
X0358498Y0181254D01*
X0358391Y0181284D01*
X0358284Y0181318D01*
X0358179Y0181356D01*
X0358075Y0181398D01*
X0357973Y0181443D01*
X0357872Y0181492D01*
X0357774Y0181544D01*
X0357677Y0181600D01*
X0357582Y0181660D01*
X0357489Y0181722D01*
X0357399Y0181788D01*
X0357311Y0181857D01*
X0357226Y0181929D01*
X0357143Y0182005D01*
X0357063Y0182083D01*
X0356985Y0182163D01*
X0356911Y0182247D01*
X0356840Y0182333D01*
X0356771Y0182421D01*
X0356706Y0182512D01*
X0356645Y0182606D01*
X0356586Y0182701D01*
X0356531Y0182798D01*
X0356480Y0182897D01*
X0356432Y0182998D01*
X0356387Y0183101D01*
X0356346Y0183205D01*
X0356309Y0183311D01*
X0356276Y0183417D01*
X0356247Y0183525D01*
X0356221Y0183634D01*
X0356199Y0183744D01*
X0356182Y0183854D01*
X0356168Y0183965D01*
X0356158Y0184077D01*
X0356152Y0184188D01*
X0356150Y0184300D01*
X0346150Y0184300D02*
X0346152Y0184412D01*
X0346158Y0184523D01*
X0346168Y0184635D01*
X0346182Y0184746D01*
X0346199Y0184856D01*
X0346221Y0184966D01*
X0346247Y0185075D01*
X0346276Y0185183D01*
X0346309Y0185289D01*
X0346346Y0185395D01*
X0346387Y0185499D01*
X0346432Y0185602D01*
X0346480Y0185703D01*
X0346531Y0185802D01*
X0346586Y0185899D01*
X0346645Y0185994D01*
X0346706Y0186088D01*
X0346771Y0186179D01*
X0346840Y0186267D01*
X0346911Y0186353D01*
X0346985Y0186437D01*
X0347063Y0186517D01*
X0347143Y0186595D01*
X0347226Y0186671D01*
X0347311Y0186743D01*
X0347399Y0186812D01*
X0347489Y0186878D01*
X0347582Y0186940D01*
X0347677Y0187000D01*
X0347774Y0187056D01*
X0347872Y0187108D01*
X0347973Y0187157D01*
X0348075Y0187202D01*
X0348179Y0187244D01*
X0348284Y0187282D01*
X0348391Y0187316D01*
X0348498Y0187346D01*
X0348607Y0187373D01*
X0348716Y0187395D01*
X0348827Y0187414D01*
X0348937Y0187429D01*
X0349049Y0187440D01*
X0349160Y0187447D01*
X0349272Y0187450D01*
X0349384Y0187449D01*
X0349496Y0187444D01*
X0349607Y0187435D01*
X0349718Y0187422D01*
X0349829Y0187405D01*
X0349939Y0187385D01*
X0350048Y0187360D01*
X0350156Y0187332D01*
X0350263Y0187299D01*
X0350369Y0187263D01*
X0350473Y0187223D01*
X0350576Y0187180D01*
X0350678Y0187133D01*
X0350777Y0187082D01*
X0350875Y0187028D01*
X0350971Y0186970D01*
X0351065Y0186909D01*
X0351156Y0186845D01*
X0351245Y0186778D01*
X0351332Y0186707D01*
X0351416Y0186633D01*
X0351498Y0186557D01*
X0351576Y0186477D01*
X0351652Y0186395D01*
X0351725Y0186310D01*
X0351795Y0186223D01*
X0351861Y0186133D01*
X0351925Y0186041D01*
X0351985Y0185947D01*
X0352042Y0185851D01*
X0352095Y0185752D01*
X0352145Y0185652D01*
X0352191Y0185551D01*
X0352234Y0185447D01*
X0352273Y0185342D01*
X0352308Y0185236D01*
X0352339Y0185129D01*
X0352367Y0185020D01*
X0352390Y0184911D01*
X0352410Y0184801D01*
X0352426Y0184690D01*
X0352438Y0184579D01*
X0352446Y0184468D01*
X0352450Y0184356D01*
X0352450Y0184244D01*
X0352446Y0184132D01*
X0352438Y0184021D01*
X0352426Y0183910D01*
X0352410Y0183799D01*
X0352390Y0183689D01*
X0352367Y0183580D01*
X0352339Y0183471D01*
X0352308Y0183364D01*
X0352273Y0183258D01*
X0352234Y0183153D01*
X0352191Y0183049D01*
X0352145Y0182948D01*
X0352095Y0182848D01*
X0352042Y0182749D01*
X0351985Y0182653D01*
X0351925Y0182559D01*
X0351861Y0182467D01*
X0351795Y0182377D01*
X0351725Y0182290D01*
X0351652Y0182205D01*
X0351576Y0182123D01*
X0351498Y0182043D01*
X0351416Y0181967D01*
X0351332Y0181893D01*
X0351245Y0181822D01*
X0351156Y0181755D01*
X0351065Y0181691D01*
X0350971Y0181630D01*
X0350875Y0181572D01*
X0350777Y0181518D01*
X0350678Y0181467D01*
X0350576Y0181420D01*
X0350473Y0181377D01*
X0350369Y0181337D01*
X0350263Y0181301D01*
X0350156Y0181268D01*
X0350048Y0181240D01*
X0349939Y0181215D01*
X0349829Y0181195D01*
X0349718Y0181178D01*
X0349607Y0181165D01*
X0349496Y0181156D01*
X0349384Y0181151D01*
X0349272Y0181150D01*
X0349160Y0181153D01*
X0349049Y0181160D01*
X0348937Y0181171D01*
X0348827Y0181186D01*
X0348716Y0181205D01*
X0348607Y0181227D01*
X0348498Y0181254D01*
X0348391Y0181284D01*
X0348284Y0181318D01*
X0348179Y0181356D01*
X0348075Y0181398D01*
X0347973Y0181443D01*
X0347872Y0181492D01*
X0347774Y0181544D01*
X0347677Y0181600D01*
X0347582Y0181660D01*
X0347489Y0181722D01*
X0347399Y0181788D01*
X0347311Y0181857D01*
X0347226Y0181929D01*
X0347143Y0182005D01*
X0347063Y0182083D01*
X0346985Y0182163D01*
X0346911Y0182247D01*
X0346840Y0182333D01*
X0346771Y0182421D01*
X0346706Y0182512D01*
X0346645Y0182606D01*
X0346586Y0182701D01*
X0346531Y0182798D01*
X0346480Y0182897D01*
X0346432Y0182998D01*
X0346387Y0183101D01*
X0346346Y0183205D01*
X0346309Y0183311D01*
X0346276Y0183417D01*
X0346247Y0183525D01*
X0346221Y0183634D01*
X0346199Y0183744D01*
X0346182Y0183854D01*
X0346168Y0183965D01*
X0346158Y0184077D01*
X0346152Y0184188D01*
X0346150Y0184300D01*
X0346152Y0184412D01*
X0346158Y0184523D01*
X0346168Y0184635D01*
X0346182Y0184746D01*
X0346199Y0184856D01*
X0346221Y0184966D01*
X0346247Y0185075D01*
X0346276Y0185183D01*
X0346309Y0185289D01*
X0346346Y0185395D01*
X0346387Y0185499D01*
X0346432Y0185602D01*
X0346480Y0185703D01*
X0346531Y0185802D01*
X0346586Y0185899D01*
X0346645Y0185994D01*
X0346706Y0186088D01*
X0346771Y0186179D01*
X0346840Y0186267D01*
X0346911Y0186353D01*
X0346985Y0186437D01*
X0347063Y0186517D01*
X0347143Y0186595D01*
X0347226Y0186671D01*
X0347311Y0186743D01*
X0347399Y0186812D01*
X0347489Y0186878D01*
X0347582Y0186940D01*
X0347677Y0187000D01*
X0347774Y0187056D01*
X0347872Y0187108D01*
X0347973Y0187157D01*
X0348075Y0187202D01*
X0348179Y0187244D01*
X0348284Y0187282D01*
X0348391Y0187316D01*
X0348498Y0187346D01*
X0348607Y0187373D01*
X0348716Y0187395D01*
X0348827Y0187414D01*
X0348937Y0187429D01*
X0349049Y0187440D01*
X0349160Y0187447D01*
X0349272Y0187450D01*
X0349384Y0187449D01*
X0349496Y0187444D01*
X0349607Y0187435D01*
X0349718Y0187422D01*
X0349829Y0187405D01*
X0349939Y0187385D01*
X0350048Y0187360D01*
X0350156Y0187332D01*
X0350263Y0187299D01*
X0350369Y0187263D01*
X0350473Y0187223D01*
X0350576Y0187180D01*
X0350678Y0187133D01*
X0350777Y0187082D01*
X0350875Y0187028D01*
X0350971Y0186970D01*
X0351065Y0186909D01*
X0351156Y0186845D01*
X0351245Y0186778D01*
X0351332Y0186707D01*
X0351416Y0186633D01*
X0351498Y0186557D01*
X0351576Y0186477D01*
X0351652Y0186395D01*
X0351725Y0186310D01*
X0351795Y0186223D01*
X0351861Y0186133D01*
X0351925Y0186041D01*
X0351985Y0185947D01*
X0352042Y0185851D01*
X0352095Y0185752D01*
X0352145Y0185652D01*
X0352191Y0185551D01*
X0352234Y0185447D01*
X0352273Y0185342D01*
X0352308Y0185236D01*
X0352339Y0185129D01*
X0352367Y0185020D01*
X0352390Y0184911D01*
X0352410Y0184801D01*
X0352426Y0184690D01*
X0352438Y0184579D01*
X0352446Y0184468D01*
X0352450Y0184356D01*
X0352450Y0184244D01*
X0352446Y0184132D01*
X0352438Y0184021D01*
X0352426Y0183910D01*
X0352410Y0183799D01*
X0352390Y0183689D01*
X0352367Y0183580D01*
X0352339Y0183471D01*
X0352308Y0183364D01*
X0352273Y0183258D01*
X0352234Y0183153D01*
X0352191Y0183049D01*
X0352145Y0182948D01*
X0352095Y0182848D01*
X0352042Y0182749D01*
X0351985Y0182653D01*
X0351925Y0182559D01*
X0351861Y0182467D01*
X0351795Y0182377D01*
X0351725Y0182290D01*
X0351652Y0182205D01*
X0351576Y0182123D01*
X0351498Y0182043D01*
X0351416Y0181967D01*
X0351332Y0181893D01*
X0351245Y0181822D01*
X0351156Y0181755D01*
X0351065Y0181691D01*
X0350971Y0181630D01*
X0350875Y0181572D01*
X0350777Y0181518D01*
X0350678Y0181467D01*
X0350576Y0181420D01*
X0350473Y0181377D01*
X0350369Y0181337D01*
X0350263Y0181301D01*
X0350156Y0181268D01*
X0350048Y0181240D01*
X0349939Y0181215D01*
X0349829Y0181195D01*
X0349718Y0181178D01*
X0349607Y0181165D01*
X0349496Y0181156D01*
X0349384Y0181151D01*
X0349272Y0181150D01*
X0349160Y0181153D01*
X0349049Y0181160D01*
X0348937Y0181171D01*
X0348827Y0181186D01*
X0348716Y0181205D01*
X0348607Y0181227D01*
X0348498Y0181254D01*
X0348391Y0181284D01*
X0348284Y0181318D01*
X0348179Y0181356D01*
X0348075Y0181398D01*
X0347973Y0181443D01*
X0347872Y0181492D01*
X0347774Y0181544D01*
X0347677Y0181600D01*
X0347582Y0181660D01*
X0347489Y0181722D01*
X0347399Y0181788D01*
X0347311Y0181857D01*
X0347226Y0181929D01*
X0347143Y0182005D01*
X0347063Y0182083D01*
X0346985Y0182163D01*
X0346911Y0182247D01*
X0346840Y0182333D01*
X0346771Y0182421D01*
X0346706Y0182512D01*
X0346645Y0182606D01*
X0346586Y0182701D01*
X0346531Y0182798D01*
X0346480Y0182897D01*
X0346432Y0182998D01*
X0346387Y0183101D01*
X0346346Y0183205D01*
X0346309Y0183311D01*
X0346276Y0183417D01*
X0346247Y0183525D01*
X0346221Y0183634D01*
X0346199Y0183744D01*
X0346182Y0183854D01*
X0346168Y0183965D01*
X0346158Y0184077D01*
X0346152Y0184188D01*
X0346150Y0184300D01*
X0336150Y0184300D02*
X0336152Y0184412D01*
X0336158Y0184523D01*
X0336168Y0184635D01*
X0336182Y0184746D01*
X0336199Y0184856D01*
X0336221Y0184966D01*
X0336247Y0185075D01*
X0336276Y0185183D01*
X0336309Y0185289D01*
X0336346Y0185395D01*
X0336387Y0185499D01*
X0336432Y0185602D01*
X0336480Y0185703D01*
X0336531Y0185802D01*
X0336586Y0185899D01*
X0336645Y0185994D01*
X0336706Y0186088D01*
X0336771Y0186179D01*
X0336840Y0186267D01*
X0336911Y0186353D01*
X0336985Y0186437D01*
X0337063Y0186517D01*
X0337143Y0186595D01*
X0337226Y0186671D01*
X0337311Y0186743D01*
X0337399Y0186812D01*
X0337489Y0186878D01*
X0337582Y0186940D01*
X0337677Y0187000D01*
X0337774Y0187056D01*
X0337872Y0187108D01*
X0337973Y0187157D01*
X0338075Y0187202D01*
X0338179Y0187244D01*
X0338284Y0187282D01*
X0338391Y0187316D01*
X0338498Y0187346D01*
X0338607Y0187373D01*
X0338716Y0187395D01*
X0338827Y0187414D01*
X0338937Y0187429D01*
X0339049Y0187440D01*
X0339160Y0187447D01*
X0339272Y0187450D01*
X0339384Y0187449D01*
X0339496Y0187444D01*
X0339607Y0187435D01*
X0339718Y0187422D01*
X0339829Y0187405D01*
X0339939Y0187385D01*
X0340048Y0187360D01*
X0340156Y0187332D01*
X0340263Y0187299D01*
X0340369Y0187263D01*
X0340473Y0187223D01*
X0340576Y0187180D01*
X0340678Y0187133D01*
X0340777Y0187082D01*
X0340875Y0187028D01*
X0340971Y0186970D01*
X0341065Y0186909D01*
X0341156Y0186845D01*
X0341245Y0186778D01*
X0341332Y0186707D01*
X0341416Y0186633D01*
X0341498Y0186557D01*
X0341576Y0186477D01*
X0341652Y0186395D01*
X0341725Y0186310D01*
X0341795Y0186223D01*
X0341861Y0186133D01*
X0341925Y0186041D01*
X0341985Y0185947D01*
X0342042Y0185851D01*
X0342095Y0185752D01*
X0342145Y0185652D01*
X0342191Y0185551D01*
X0342234Y0185447D01*
X0342273Y0185342D01*
X0342308Y0185236D01*
X0342339Y0185129D01*
X0342367Y0185020D01*
X0342390Y0184911D01*
X0342410Y0184801D01*
X0342426Y0184690D01*
X0342438Y0184579D01*
X0342446Y0184468D01*
X0342450Y0184356D01*
X0342450Y0184244D01*
X0342446Y0184132D01*
X0342438Y0184021D01*
X0342426Y0183910D01*
X0342410Y0183799D01*
X0342390Y0183689D01*
X0342367Y0183580D01*
X0342339Y0183471D01*
X0342308Y0183364D01*
X0342273Y0183258D01*
X0342234Y0183153D01*
X0342191Y0183049D01*
X0342145Y0182948D01*
X0342095Y0182848D01*
X0342042Y0182749D01*
X0341985Y0182653D01*
X0341925Y0182559D01*
X0341861Y0182467D01*
X0341795Y0182377D01*
X0341725Y0182290D01*
X0341652Y0182205D01*
X0341576Y0182123D01*
X0341498Y0182043D01*
X0341416Y0181967D01*
X0341332Y0181893D01*
X0341245Y0181822D01*
X0341156Y0181755D01*
X0341065Y0181691D01*
X0340971Y0181630D01*
X0340875Y0181572D01*
X0340777Y0181518D01*
X0340678Y0181467D01*
X0340576Y0181420D01*
X0340473Y0181377D01*
X0340369Y0181337D01*
X0340263Y0181301D01*
X0340156Y0181268D01*
X0340048Y0181240D01*
X0339939Y0181215D01*
X0339829Y0181195D01*
X0339718Y0181178D01*
X0339607Y0181165D01*
X0339496Y0181156D01*
X0339384Y0181151D01*
X0339272Y0181150D01*
X0339160Y0181153D01*
X0339049Y0181160D01*
X0338937Y0181171D01*
X0338827Y0181186D01*
X0338716Y0181205D01*
X0338607Y0181227D01*
X0338498Y0181254D01*
X0338391Y0181284D01*
X0338284Y0181318D01*
X0338179Y0181356D01*
X0338075Y0181398D01*
X0337973Y0181443D01*
X0337872Y0181492D01*
X0337774Y0181544D01*
X0337677Y0181600D01*
X0337582Y0181660D01*
X0337489Y0181722D01*
X0337399Y0181788D01*
X0337311Y0181857D01*
X0337226Y0181929D01*
X0337143Y0182005D01*
X0337063Y0182083D01*
X0336985Y0182163D01*
X0336911Y0182247D01*
X0336840Y0182333D01*
X0336771Y0182421D01*
X0336706Y0182512D01*
X0336645Y0182606D01*
X0336586Y0182701D01*
X0336531Y0182798D01*
X0336480Y0182897D01*
X0336432Y0182998D01*
X0336387Y0183101D01*
X0336346Y0183205D01*
X0336309Y0183311D01*
X0336276Y0183417D01*
X0336247Y0183525D01*
X0336221Y0183634D01*
X0336199Y0183744D01*
X0336182Y0183854D01*
X0336168Y0183965D01*
X0336158Y0184077D01*
X0336152Y0184188D01*
X0336150Y0184300D01*
X0334300Y0189300D02*
X0364300Y0189300D01*
X0295656Y0168050D02*
X0292654Y0168050D01*
X0294155Y0168050D02*
X0294155Y0172554D01*
X0292654Y0171053D01*
X0291053Y0171803D02*
X0290302Y0172554D01*
X0288801Y0172554D01*
X0288050Y0171803D01*
X0288050Y0168801D01*
X0288801Y0168050D01*
X0290302Y0168050D01*
X0291053Y0168801D01*
X0243726Y0155054D02*
X0240723Y0155054D01*
X0240723Y0152802D01*
X0242224Y0153553D01*
X0242975Y0153553D01*
X0243726Y0152802D01*
X0243726Y0151301D01*
X0242975Y0150550D01*
X0241474Y0150550D01*
X0240723Y0151301D01*
X0239122Y0151301D02*
X0238371Y0150550D01*
X0236870Y0150550D01*
X0236119Y0151301D01*
X0236119Y0154303D01*
X0236870Y0155054D01*
X0238371Y0155054D01*
X0239122Y0154303D01*
X0234551Y0155054D02*
X0233050Y0155054D01*
X0233801Y0155054D02*
X0233801Y0150550D01*
X0234551Y0150550D02*
X0233050Y0150550D01*
X0190156Y0135054D02*
X0190156Y0134303D01*
X0187154Y0131301D01*
X0187154Y0130550D01*
X0185553Y0130550D02*
X0184051Y0132051D01*
X0184802Y0132051D02*
X0182550Y0132051D01*
X0182550Y0130550D02*
X0182550Y0135054D01*
X0184802Y0135054D01*
X0185553Y0134303D01*
X0185553Y0132802D01*
X0184802Y0132051D01*
X0187154Y0135054D02*
X0190156Y0135054D01*
X0167550Y0152342D02*
X0163046Y0152342D01*
X0163046Y0154594D01*
X0163797Y0155345D01*
X0165298Y0155345D01*
X0166049Y0154594D01*
X0166049Y0152342D01*
X0166049Y0153843D02*
X0167550Y0155345D01*
X0166799Y0156946D02*
X0167550Y0157697D01*
X0167550Y0159198D01*
X0166799Y0159949D01*
X0166049Y0159949D01*
X0165298Y0159198D01*
X0165298Y0158447D01*
X0165298Y0159198D02*
X0164547Y0159949D01*
X0163797Y0159949D01*
X0163046Y0159198D01*
X0163046Y0157697D01*
X0163797Y0156946D01*
X0148050Y0155553D02*
X0146549Y0154051D01*
X0146549Y0154802D02*
X0146549Y0152550D01*
X0148050Y0152550D02*
X0143546Y0152550D01*
X0143546Y0154802D01*
X0144297Y0155553D01*
X0145798Y0155553D01*
X0146549Y0154802D01*
X0145798Y0157154D02*
X0145798Y0160156D01*
X0148050Y0159406D02*
X0143546Y0159406D01*
X0145798Y0157154D01*
X0127550Y0156946D02*
X0124547Y0159949D01*
X0123797Y0159949D01*
X0123046Y0159198D01*
X0123046Y0157697D01*
X0123797Y0156946D01*
X0123797Y0155345D02*
X0125298Y0155345D01*
X0126049Y0154594D01*
X0126049Y0152342D01*
X0127550Y0152342D02*
X0123046Y0152342D01*
X0123046Y0154594D01*
X0123797Y0155345D01*
X0126049Y0153843D02*
X0127550Y0155345D01*
X0127550Y0156946D02*
X0127550Y0159949D01*
X0048226Y0191050D02*
X0045223Y0191050D01*
X0048226Y0194053D01*
X0048226Y0194803D01*
X0047475Y0195554D01*
X0045974Y0195554D01*
X0045223Y0194803D01*
X0043622Y0194803D02*
X0042871Y0195554D01*
X0041370Y0195554D01*
X0040619Y0194803D01*
X0040619Y0191801D01*
X0041370Y0191050D01*
X0042871Y0191050D01*
X0043622Y0191801D01*
X0039051Y0191050D02*
X0037550Y0191050D01*
X0038301Y0191050D02*
X0038301Y0195554D01*
X0039051Y0195554D02*
X0037550Y0195554D01*
X0217050Y0182754D02*
X0218551Y0182754D01*
X0217801Y0182754D02*
X0217801Y0178250D01*
X0218551Y0178250D02*
X0217050Y0178250D01*
X0220119Y0179001D02*
X0220870Y0178250D01*
X0222371Y0178250D01*
X0223122Y0179001D01*
X0224723Y0179001D02*
X0225474Y0178250D01*
X0226975Y0178250D01*
X0227726Y0179001D01*
X0227726Y0179751D01*
X0226975Y0180502D01*
X0226224Y0180502D01*
X0226975Y0180502D02*
X0227726Y0181253D01*
X0227726Y0182003D01*
X0226975Y0182754D01*
X0225474Y0182754D01*
X0224723Y0182003D01*
X0223122Y0182003D02*
X0222371Y0182754D01*
X0220870Y0182754D01*
X0220119Y0182003D01*
X0220119Y0179001D01*
X0268546Y0125156D02*
X0268546Y0122154D01*
X0270798Y0122154D01*
X0270047Y0123655D01*
X0270047Y0124406D01*
X0270798Y0125156D01*
X0272299Y0125156D01*
X0273050Y0124406D01*
X0273050Y0122905D01*
X0272299Y0122154D01*
X0273050Y0120553D02*
X0271549Y0119051D01*
X0271549Y0119802D02*
X0271549Y0117550D01*
X0273050Y0117550D02*
X0268546Y0117550D01*
X0268546Y0119802D01*
X0269297Y0120553D01*
X0270798Y0120553D01*
X0271549Y0119802D01*
X0207550Y0096698D02*
X0207550Y0095197D01*
X0206799Y0094446D01*
X0205298Y0094446D01*
X0205298Y0096698D01*
X0206049Y0097449D01*
X0206799Y0097449D01*
X0207550Y0096698D01*
X0205298Y0094446D02*
X0203797Y0095947D01*
X0203046Y0097449D01*
X0203797Y0092845D02*
X0205298Y0092845D01*
X0206049Y0092094D01*
X0206049Y0089842D01*
X0207550Y0089842D02*
X0203046Y0089842D01*
X0203046Y0092094D01*
X0203797Y0092845D01*
X0206049Y0091343D02*
X0207550Y0092845D01*
X0158226Y0092551D02*
X0157475Y0093302D01*
X0155223Y0093302D01*
X0155223Y0091801D01*
X0155974Y0091050D01*
X0157475Y0091050D01*
X0158226Y0091801D01*
X0158226Y0092551D01*
X0156724Y0094803D02*
X0155223Y0093302D01*
X0156724Y0094803D02*
X0158226Y0095554D01*
X0153622Y0094803D02*
X0152871Y0095554D01*
X0151370Y0095554D01*
X0150619Y0094803D01*
X0150619Y0091801D01*
X0151370Y0091050D01*
X0152871Y0091050D01*
X0153622Y0091801D01*
X0149051Y0091050D02*
X0147550Y0091050D01*
X0148301Y0091050D02*
X0148301Y0095554D01*
X0149051Y0095554D02*
X0147550Y0095554D01*
X0123050Y0080156D02*
X0123050Y0077154D01*
X0123050Y0078655D02*
X0118546Y0078655D01*
X0120047Y0077154D01*
X0119297Y0075553D02*
X0120798Y0075553D01*
X0121549Y0074802D01*
X0121549Y0072550D01*
X0123050Y0072550D02*
X0118546Y0072550D01*
X0118546Y0074802D01*
X0119297Y0075553D01*
X0121549Y0074051D02*
X0123050Y0075553D01*
X0183546Y0057406D02*
X0183546Y0055905D01*
X0184297Y0055154D01*
X0184297Y0053553D02*
X0183546Y0052802D01*
X0183546Y0051301D01*
X0184297Y0050550D01*
X0187299Y0050550D01*
X0188050Y0051301D01*
X0188050Y0052802D01*
X0187299Y0053553D01*
X0188050Y0055154D02*
X0185047Y0058156D01*
X0184297Y0058156D01*
X0183546Y0057406D01*
X0188050Y0058156D02*
X0188050Y0055154D01*
X0228546Y0057550D02*
X0228546Y0059802D01*
X0229297Y0060553D01*
X0230798Y0060553D01*
X0231549Y0059802D01*
X0231549Y0057550D01*
X0233050Y0057550D02*
X0228546Y0057550D01*
X0231549Y0059051D02*
X0233050Y0060553D01*
X0232299Y0062154D02*
X0231549Y0062154D01*
X0230798Y0062905D01*
X0230798Y0064406D01*
X0231549Y0065156D01*
X0232299Y0065156D01*
X0233050Y0064406D01*
X0233050Y0062905D01*
X0232299Y0062154D01*
X0230798Y0062905D02*
X0230047Y0062154D01*
X0229297Y0062154D01*
X0228546Y0062905D01*
X0228546Y0064406D01*
X0229297Y0065156D01*
X0230047Y0065156D01*
X0230798Y0064406D01*
X0269273Y0022554D02*
X0270774Y0022554D01*
X0270023Y0022554D02*
X0270023Y0018050D01*
X0269273Y0018050D02*
X0270774Y0018050D01*
X0272342Y0018801D02*
X0273093Y0018050D01*
X0274594Y0018050D01*
X0275345Y0018801D01*
X0276946Y0020302D02*
X0279949Y0020302D01*
X0279198Y0018050D02*
X0279198Y0022554D01*
X0276946Y0020302D01*
X0275345Y0021803D02*
X0274594Y0022554D01*
X0273093Y0022554D01*
X0272342Y0021803D01*
X0272342Y0018801D01*
X0342229Y0114300D02*
X0342231Y0114474D01*
X0342238Y0114647D01*
X0342248Y0114820D01*
X0342263Y0114993D01*
X0342282Y0115166D01*
X0342306Y0115338D01*
X0342333Y0115509D01*
X0342365Y0115679D01*
X0342401Y0115849D01*
X0342441Y0116018D01*
X0342485Y0116186D01*
X0342533Y0116353D01*
X0342586Y0116518D01*
X0342642Y0116682D01*
X0342703Y0116845D01*
X0342767Y0117006D01*
X0342836Y0117165D01*
X0342908Y0117323D01*
X0342984Y0117479D01*
X0343064Y0117633D01*
X0343148Y0117785D01*
X0343235Y0117935D01*
X0343326Y0118083D01*
X0343421Y0118228D01*
X0343519Y0118372D01*
X0343621Y0118512D01*
X0343726Y0118650D01*
X0343834Y0118786D01*
X0343946Y0118919D01*
X0344061Y0119049D01*
X0344179Y0119176D01*
X0344300Y0119300D01*
X0344424Y0119421D01*
X0344551Y0119539D01*
X0344681Y0119654D01*
X0344814Y0119766D01*
X0344950Y0119874D01*
X0345088Y0119979D01*
X0345228Y0120081D01*
X0345372Y0120179D01*
X0345517Y0120274D01*
X0345665Y0120365D01*
X0345815Y0120452D01*
X0345967Y0120536D01*
X0346121Y0120616D01*
X0346277Y0120692D01*
X0346435Y0120764D01*
X0346594Y0120833D01*
X0346755Y0120897D01*
X0346918Y0120958D01*
X0347082Y0121014D01*
X0347247Y0121067D01*
X0347414Y0121115D01*
X0347582Y0121159D01*
X0347751Y0121199D01*
X0347921Y0121235D01*
X0348091Y0121267D01*
X0348262Y0121294D01*
X0348434Y0121318D01*
X0348607Y0121337D01*
X0348780Y0121352D01*
X0348953Y0121362D01*
X0349126Y0121369D01*
X0349300Y0121371D01*
X0349474Y0121369D01*
X0349647Y0121362D01*
X0349820Y0121352D01*
X0349993Y0121337D01*
X0350166Y0121318D01*
X0350338Y0121294D01*
X0350509Y0121267D01*
X0350679Y0121235D01*
X0350849Y0121199D01*
X0351018Y0121159D01*
X0351186Y0121115D01*
X0351353Y0121067D01*
X0351518Y0121014D01*
X0351682Y0120958D01*
X0351845Y0120897D01*
X0352006Y0120833D01*
X0352165Y0120764D01*
X0352323Y0120692D01*
X0352479Y0120616D01*
X0352633Y0120536D01*
X0352785Y0120452D01*
X0352935Y0120365D01*
X0353083Y0120274D01*
X0353228Y0120179D01*
X0353372Y0120081D01*
X0353512Y0119979D01*
X0353650Y0119874D01*
X0353786Y0119766D01*
X0353919Y0119654D01*
X0354049Y0119539D01*
X0354176Y0119421D01*
X0354300Y0119300D01*
X0354421Y0119176D01*
X0354539Y0119049D01*
X0354654Y0118919D01*
X0354766Y0118786D01*
X0354874Y0118650D01*
X0354979Y0118512D01*
X0355081Y0118372D01*
X0355179Y0118228D01*
X0355274Y0118083D01*
X0355365Y0117935D01*
X0355452Y0117785D01*
X0355536Y0117633D01*
X0355616Y0117479D01*
X0355692Y0117323D01*
X0355764Y0117165D01*
X0355833Y0117006D01*
X0355897Y0116845D01*
X0355958Y0116682D01*
X0356014Y0116518D01*
X0356067Y0116353D01*
X0356115Y0116186D01*
X0356159Y0116018D01*
X0356199Y0115849D01*
X0356235Y0115679D01*
X0356267Y0115509D01*
X0356294Y0115338D01*
X0356318Y0115166D01*
X0356337Y0114993D01*
X0356352Y0114820D01*
X0356362Y0114647D01*
X0356369Y0114474D01*
X0356371Y0114300D01*
X0356369Y0114126D01*
X0356362Y0113953D01*
X0356352Y0113780D01*
X0356337Y0113607D01*
X0356318Y0113434D01*
X0356294Y0113262D01*
X0356267Y0113091D01*
X0356235Y0112921D01*
X0356199Y0112751D01*
X0356159Y0112582D01*
X0356115Y0112414D01*
X0356067Y0112247D01*
X0356014Y0112082D01*
X0355958Y0111918D01*
X0355897Y0111755D01*
X0355833Y0111594D01*
X0355764Y0111435D01*
X0355692Y0111277D01*
X0355616Y0111121D01*
X0355536Y0110967D01*
X0355452Y0110815D01*
X0355365Y0110665D01*
X0355274Y0110517D01*
X0355179Y0110372D01*
X0355081Y0110228D01*
X0354979Y0110088D01*
X0354874Y0109950D01*
X0354766Y0109814D01*
X0354654Y0109681D01*
X0354539Y0109551D01*
X0354421Y0109424D01*
X0354300Y0109300D01*
X0354176Y0109179D01*
X0354049Y0109061D01*
X0353919Y0108946D01*
X0353786Y0108834D01*
X0353650Y0108726D01*
X0353512Y0108621D01*
X0353372Y0108519D01*
X0353228Y0108421D01*
X0353083Y0108326D01*
X0352935Y0108235D01*
X0352785Y0108148D01*
X0352633Y0108064D01*
X0352479Y0107984D01*
X0352323Y0107908D01*
X0352165Y0107836D01*
X0352006Y0107767D01*
X0351845Y0107703D01*
X0351682Y0107642D01*
X0351518Y0107586D01*
X0351353Y0107533D01*
X0351186Y0107485D01*
X0351018Y0107441D01*
X0350849Y0107401D01*
X0350679Y0107365D01*
X0350509Y0107333D01*
X0350338Y0107306D01*
X0350166Y0107282D01*
X0349993Y0107263D01*
X0349820Y0107248D01*
X0349647Y0107238D01*
X0349474Y0107231D01*
X0349300Y0107229D01*
X0349126Y0107231D01*
X0348953Y0107238D01*
X0348780Y0107248D01*
X0348607Y0107263D01*
X0348434Y0107282D01*
X0348262Y0107306D01*
X0348091Y0107333D01*
X0347921Y0107365D01*
X0347751Y0107401D01*
X0347582Y0107441D01*
X0347414Y0107485D01*
X0347247Y0107533D01*
X0347082Y0107586D01*
X0346918Y0107642D01*
X0346755Y0107703D01*
X0346594Y0107767D01*
X0346435Y0107836D01*
X0346277Y0107908D01*
X0346121Y0107984D01*
X0345967Y0108064D01*
X0345815Y0108148D01*
X0345665Y0108235D01*
X0345517Y0108326D01*
X0345372Y0108421D01*
X0345228Y0108519D01*
X0345088Y0108621D01*
X0344950Y0108726D01*
X0344814Y0108834D01*
X0344681Y0108946D01*
X0344551Y0109061D01*
X0344424Y0109179D01*
X0344300Y0109300D01*
X0344179Y0109424D01*
X0344061Y0109551D01*
X0343946Y0109681D01*
X0343834Y0109814D01*
X0343726Y0109950D01*
X0343621Y0110088D01*
X0343519Y0110228D01*
X0343421Y0110372D01*
X0343326Y0110517D01*
X0343235Y0110665D01*
X0343148Y0110815D01*
X0343064Y0110967D01*
X0342984Y0111121D01*
X0342908Y0111277D01*
X0342836Y0111435D01*
X0342767Y0111594D01*
X0342703Y0111755D01*
X0342642Y0111918D01*
X0342586Y0112082D01*
X0342533Y0112247D01*
X0342485Y0112414D01*
X0342441Y0112582D01*
X0342401Y0112751D01*
X0342365Y0112921D01*
X0342333Y0113091D01*
X0342306Y0113262D01*
X0342282Y0113434D01*
X0342263Y0113607D01*
X0342248Y0113780D01*
X0342238Y0113953D01*
X0342231Y0114126D01*
X0342229Y0114300D01*
X0048226Y0096050D02*
X0045223Y0096050D01*
X0046724Y0096050D02*
X0046724Y0100554D01*
X0045223Y0099053D01*
X0043622Y0099803D02*
X0042871Y0100554D01*
X0041370Y0100554D01*
X0040619Y0099803D01*
X0040619Y0096801D01*
X0041370Y0096050D01*
X0042871Y0096050D01*
X0043622Y0096801D01*
X0039051Y0096050D02*
X0037550Y0096050D01*
X0038301Y0096050D02*
X0038301Y0100554D01*
X0039051Y0100554D02*
X0037550Y0100554D01*
D12*
X0344496Y0099747D02*
X0349100Y0099747D01*
X0349100Y0098212D02*
X0349100Y0101282D01*
X0346031Y0098212D02*
X0344496Y0099747D01*
X0345263Y0096678D02*
X0344496Y0095910D01*
X0344496Y0094376D01*
X0345263Y0093609D01*
X0348333Y0093609D01*
X0349100Y0094376D01*
X0349100Y0095910D01*
X0348333Y0096678D01*
X0345263Y0096678D01*
X0344496Y0092074D02*
X0349100Y0092074D01*
X0344496Y0089005D01*
X0349100Y0089005D01*
X0349100Y0087470D02*
X0346031Y0087470D01*
X0344496Y0085935D01*
X0346031Y0084401D01*
X0349100Y0084401D01*
X0349100Y0082866D02*
X0344496Y0082866D01*
X0346798Y0084401D02*
X0346798Y0087470D01*
X0349100Y0082866D02*
X0344496Y0079797D01*
X0349100Y0079797D01*
X0349867Y0078262D02*
X0349867Y0075193D01*
X0348333Y0073658D02*
X0345263Y0073658D01*
X0344496Y0072891D01*
X0344496Y0071356D01*
X0345263Y0070589D01*
X0348333Y0070589D01*
X0349100Y0071356D01*
X0349100Y0072891D01*
X0348333Y0073658D01*
X0349100Y0069054D02*
X0344496Y0069054D01*
X0344496Y0065985D02*
X0349100Y0069054D01*
X0349100Y0065985D02*
X0344496Y0065985D01*
X0344496Y0064450D02*
X0344496Y0062916D01*
X0344496Y0063683D02*
X0349100Y0063683D01*
X0349100Y0062916D02*
X0349100Y0064450D01*
X0348333Y0061381D02*
X0344496Y0061381D01*
X0348333Y0061381D02*
X0349100Y0060614D01*
X0349100Y0059079D01*
X0348333Y0058312D01*
X0344496Y0058312D01*
X0345263Y0056777D02*
X0344496Y0056010D01*
X0344496Y0053708D01*
X0349100Y0053708D01*
X0349100Y0056010D01*
X0348333Y0056777D01*
X0345263Y0056777D01*
X0345263Y0052173D02*
X0346798Y0052173D01*
X0347565Y0051406D01*
X0347565Y0049104D01*
X0347565Y0050639D02*
X0349100Y0052173D01*
X0349100Y0049104D02*
X0344496Y0049104D01*
X0344496Y0051406D01*
X0345263Y0052173D01*
X0346031Y0047569D02*
X0349100Y0047569D01*
X0346798Y0047569D02*
X0346798Y0044500D01*
X0346031Y0044500D02*
X0344496Y0046035D01*
X0346031Y0047569D01*
X0346031Y0044500D02*
X0349100Y0044500D01*
D13*
X0370447Y0035684D02*
X0374150Y0035684D01*
X0374150Y0034450D02*
X0374150Y0036919D01*
X0371681Y0034450D02*
X0370447Y0035684D01*
X0355328Y0122850D02*
X0354845Y0123334D01*
X0354845Y0125269D01*
X0355328Y0124785D02*
X0354361Y0124785D01*
X0353349Y0124301D02*
X0353349Y0123817D01*
X0351414Y0123817D01*
X0351414Y0123334D02*
X0351414Y0124301D01*
X0351898Y0124785D01*
X0352866Y0124785D01*
X0353349Y0124301D01*
X0352866Y0122850D02*
X0351898Y0122850D01*
X0351414Y0123334D01*
X0350403Y0123334D02*
X0349919Y0123817D01*
X0348952Y0123817D01*
X0348468Y0124301D01*
X0348952Y0124785D01*
X0350403Y0124785D01*
X0350403Y0123334D02*
X0349919Y0122850D01*
X0348468Y0122850D01*
X0347456Y0123817D02*
X0345521Y0123817D01*
X0345521Y0123334D02*
X0345521Y0124301D01*
X0346005Y0124785D01*
X0346973Y0124785D01*
X0347456Y0124301D01*
X0347456Y0123817D01*
X0346973Y0122850D02*
X0346005Y0122850D01*
X0345521Y0123334D01*
X0344510Y0122850D02*
X0343542Y0123817D01*
X0344026Y0123817D02*
X0342575Y0123817D01*
X0342575Y0122850D02*
X0342575Y0125752D01*
X0344026Y0125752D01*
X0344510Y0125269D01*
X0344510Y0124301D01*
X0344026Y0123817D01*
X0344450Y0164450D02*
X0345417Y0164450D01*
X0344934Y0164450D02*
X0344934Y0167352D01*
X0345417Y0167352D02*
X0344450Y0167352D01*
X0346414Y0166869D02*
X0346898Y0167352D01*
X0347866Y0167352D01*
X0348349Y0166869D01*
X0349361Y0166869D02*
X0349361Y0166385D01*
X0349845Y0165901D01*
X0350812Y0165901D01*
X0351296Y0165417D01*
X0351296Y0164934D01*
X0350812Y0164450D01*
X0349845Y0164450D01*
X0349361Y0164934D01*
X0348349Y0164934D02*
X0347866Y0164450D01*
X0346898Y0164450D01*
X0346414Y0164934D01*
X0346414Y0166869D01*
X0349361Y0166869D02*
X0349845Y0167352D01*
X0350812Y0167352D01*
X0351296Y0166869D01*
X0352307Y0167352D02*
X0352307Y0164450D01*
X0352307Y0165417D02*
X0353759Y0165417D01*
X0354242Y0165901D01*
X0354242Y0166869D01*
X0353759Y0167352D01*
X0352307Y0167352D01*
X0366950Y0184450D02*
X0369419Y0184450D01*
X0368184Y0184450D02*
X0368184Y0188153D01*
X0366950Y0186919D01*
D14*
X0354184Y0032202D02*
X0354551Y0031835D01*
X0354551Y0031468D01*
X0354184Y0031101D01*
X0353083Y0031101D01*
X0352341Y0031101D02*
X0350873Y0031101D01*
X0349767Y0031468D02*
X0349767Y0030000D01*
X0349400Y0030000D02*
X0350134Y0030000D01*
X0350505Y0028602D02*
X0351606Y0028602D01*
X0351973Y0028235D01*
X0351973Y0027868D01*
X0351606Y0027501D01*
X0350505Y0027501D01*
X0349763Y0027134D02*
X0349763Y0026767D01*
X0349396Y0026400D01*
X0348662Y0026400D01*
X0348295Y0026767D01*
X0347553Y0026767D02*
X0347553Y0028602D01*
X0348295Y0028235D02*
X0348662Y0028602D01*
X0349396Y0028602D01*
X0349763Y0028235D01*
X0349396Y0027501D02*
X0349763Y0027134D01*
X0349396Y0027501D02*
X0348662Y0027501D01*
X0348295Y0027868D01*
X0348295Y0028235D01*
X0347553Y0026767D02*
X0347186Y0026400D01*
X0346452Y0026400D01*
X0346085Y0026767D01*
X0346085Y0028602D01*
X0346084Y0030000D02*
X0346084Y0031468D01*
X0345717Y0031468D01*
X0346084Y0032202D02*
X0346084Y0032569D01*
X0344975Y0032202D02*
X0344975Y0030000D01*
X0345717Y0030000D02*
X0346451Y0030000D01*
X0347190Y0030000D02*
X0347190Y0031468D01*
X0348291Y0031468D01*
X0348658Y0031101D01*
X0348658Y0030000D01*
X0349400Y0031468D02*
X0349767Y0031468D01*
X0349767Y0032202D02*
X0349767Y0032569D01*
X0353083Y0032202D02*
X0353083Y0030000D01*
X0354184Y0030000D01*
X0354551Y0030367D01*
X0354551Y0030734D01*
X0354184Y0031101D01*
X0354184Y0032202D02*
X0353083Y0032202D01*
X0350505Y0028602D02*
X0350505Y0026400D01*
X0351606Y0026400D01*
X0351973Y0026767D01*
X0351973Y0027134D01*
X0351606Y0027501D01*
X0344975Y0032202D02*
X0344241Y0031468D01*
X0343507Y0032202D01*
X0343507Y0030000D01*
D15*
X0324300Y0024300D02*
X0314300Y0024300D01*
X0319300Y0019300D02*
X0319300Y0029300D01*
X0374300Y0024300D02*
X0384300Y0024300D01*
X0379300Y0019300D02*
X0379300Y0029300D01*
X0379300Y0179300D02*
X0379300Y0189300D01*
X0384300Y0184300D02*
X0374300Y0184300D01*
X0324300Y0184300D02*
X0314300Y0184300D01*
X0319300Y0179300D02*
X0319300Y0189300D01*
D16*
X0270600Y0166800D02*
X0270600Y0164300D01*
X0270600Y0161800D01*
X0268100Y0161800D02*
X0268100Y0164300D01*
X0268100Y0166800D01*
X0191800Y0075600D02*
X0189300Y0075600D01*
X0186800Y0075600D01*
X0186800Y0073100D02*
X0189300Y0073100D01*
X0191800Y0073100D01*
D17*
X0189300Y0073100D02*
X0189300Y0068300D01*
X0189300Y0075600D02*
X0189300Y0080300D01*
X0182300Y0087800D02*
X0182302Y0087860D01*
X0182307Y0087921D01*
X0182316Y0087980D01*
X0182329Y0088039D01*
X0182345Y0088098D01*
X0182365Y0088155D01*
X0182388Y0088210D01*
X0182415Y0088265D01*
X0182444Y0088317D01*
X0182477Y0088368D01*
X0182513Y0088417D01*
X0182551Y0088463D01*
X0182593Y0088507D01*
X0182637Y0088549D01*
X0182683Y0088587D01*
X0182732Y0088623D01*
X0182783Y0088656D01*
X0182835Y0088685D01*
X0182890Y0088712D01*
X0182945Y0088735D01*
X0183002Y0088755D01*
X0183061Y0088771D01*
X0183120Y0088784D01*
X0183179Y0088793D01*
X0183240Y0088798D01*
X0183300Y0088800D01*
X0195300Y0088800D01*
X0195360Y0088798D01*
X0195421Y0088793D01*
X0195480Y0088784D01*
X0195539Y0088771D01*
X0195598Y0088755D01*
X0195655Y0088735D01*
X0195710Y0088712D01*
X0195765Y0088685D01*
X0195817Y0088656D01*
X0195868Y0088623D01*
X0195917Y0088587D01*
X0195963Y0088549D01*
X0196007Y0088507D01*
X0196049Y0088463D01*
X0196087Y0088417D01*
X0196123Y0088368D01*
X0196156Y0088317D01*
X0196185Y0088265D01*
X0196212Y0088210D01*
X0196235Y0088155D01*
X0196255Y0088098D01*
X0196271Y0088039D01*
X0196284Y0087980D01*
X0196293Y0087921D01*
X0196298Y0087860D01*
X0196300Y0087800D01*
X0196300Y0060800D01*
X0196298Y0060740D01*
X0196293Y0060679D01*
X0196284Y0060620D01*
X0196271Y0060561D01*
X0196255Y0060502D01*
X0196235Y0060445D01*
X0196212Y0060390D01*
X0196185Y0060335D01*
X0196156Y0060283D01*
X0196123Y0060232D01*
X0196087Y0060183D01*
X0196049Y0060137D01*
X0196007Y0060093D01*
X0195963Y0060051D01*
X0195917Y0060013D01*
X0195868Y0059977D01*
X0195817Y0059944D01*
X0195765Y0059915D01*
X0195710Y0059888D01*
X0195655Y0059865D01*
X0195598Y0059845D01*
X0195539Y0059829D01*
X0195480Y0059816D01*
X0195421Y0059807D01*
X0195360Y0059802D01*
X0195300Y0059800D01*
X0183300Y0059800D01*
X0183240Y0059802D01*
X0183179Y0059807D01*
X0183120Y0059816D01*
X0183061Y0059829D01*
X0183002Y0059845D01*
X0182945Y0059865D01*
X0182890Y0059888D01*
X0182835Y0059915D01*
X0182783Y0059944D01*
X0182732Y0059977D01*
X0182683Y0060013D01*
X0182637Y0060051D01*
X0182593Y0060093D01*
X0182551Y0060137D01*
X0182513Y0060183D01*
X0182477Y0060232D01*
X0182444Y0060283D01*
X0182415Y0060335D01*
X0182388Y0060390D01*
X0182365Y0060445D01*
X0182345Y0060502D01*
X0182329Y0060561D01*
X0182316Y0060620D01*
X0182307Y0060679D01*
X0182302Y0060740D01*
X0182300Y0060800D01*
X0182300Y0087800D01*
X0170800Y0089300D02*
X0163300Y0089300D01*
X0163298Y0089174D01*
X0163292Y0089049D01*
X0163282Y0088924D01*
X0163268Y0088799D01*
X0163251Y0088674D01*
X0163229Y0088550D01*
X0163204Y0088427D01*
X0163174Y0088305D01*
X0163141Y0088184D01*
X0163104Y0088064D01*
X0163064Y0087945D01*
X0163019Y0087828D01*
X0162971Y0087711D01*
X0162919Y0087597D01*
X0162864Y0087484D01*
X0162805Y0087373D01*
X0162743Y0087264D01*
X0162677Y0087157D01*
X0162608Y0087052D01*
X0162536Y0086949D01*
X0162461Y0086848D01*
X0162382Y0086750D01*
X0162300Y0086655D01*
X0162216Y0086562D01*
X0162128Y0086472D01*
X0162038Y0086384D01*
X0161945Y0086300D01*
X0161850Y0086218D01*
X0161752Y0086139D01*
X0161651Y0086064D01*
X0161548Y0085992D01*
X0161443Y0085923D01*
X0161336Y0085857D01*
X0161227Y0085795D01*
X0161116Y0085736D01*
X0161003Y0085681D01*
X0160889Y0085629D01*
X0160772Y0085581D01*
X0160655Y0085536D01*
X0160536Y0085496D01*
X0160416Y0085459D01*
X0160295Y0085426D01*
X0160173Y0085396D01*
X0160050Y0085371D01*
X0159926Y0085349D01*
X0159801Y0085332D01*
X0159676Y0085318D01*
X0159551Y0085308D01*
X0159426Y0085302D01*
X0159300Y0085300D01*
X0159174Y0085302D01*
X0159049Y0085308D01*
X0158924Y0085318D01*
X0158799Y0085332D01*
X0158674Y0085349D01*
X0158550Y0085371D01*
X0158427Y0085396D01*
X0158305Y0085426D01*
X0158184Y0085459D01*
X0158064Y0085496D01*
X0157945Y0085536D01*
X0157828Y0085581D01*
X0157711Y0085629D01*
X0157597Y0085681D01*
X0157484Y0085736D01*
X0157373Y0085795D01*
X0157264Y0085857D01*
X0157157Y0085923D01*
X0157052Y0085992D01*
X0156949Y0086064D01*
X0156848Y0086139D01*
X0156750Y0086218D01*
X0156655Y0086300D01*
X0156562Y0086384D01*
X0156472Y0086472D01*
X0156384Y0086562D01*
X0156300Y0086655D01*
X0156218Y0086750D01*
X0156139Y0086848D01*
X0156064Y0086949D01*
X0155992Y0087052D01*
X0155923Y0087157D01*
X0155857Y0087264D01*
X0155795Y0087373D01*
X0155736Y0087484D01*
X0155681Y0087597D01*
X0155629Y0087711D01*
X0155581Y0087828D01*
X0155536Y0087945D01*
X0155496Y0088064D01*
X0155459Y0088184D01*
X0155426Y0088305D01*
X0155396Y0088427D01*
X0155371Y0088550D01*
X0155349Y0088674D01*
X0155332Y0088799D01*
X0155318Y0088924D01*
X0155308Y0089049D01*
X0155302Y0089174D01*
X0155300Y0089300D01*
X0147800Y0089300D01*
X0147800Y0019300D01*
X0170800Y0019300D01*
X0170800Y0089300D01*
X0133800Y0094300D02*
X0133800Y0095800D01*
X0133798Y0095860D01*
X0133793Y0095921D01*
X0133784Y0095980D01*
X0133771Y0096039D01*
X0133755Y0096098D01*
X0133735Y0096155D01*
X0133712Y0096210D01*
X0133685Y0096265D01*
X0133656Y0096317D01*
X0133623Y0096368D01*
X0133587Y0096417D01*
X0133549Y0096463D01*
X0133507Y0096507D01*
X0133463Y0096549D01*
X0133417Y0096587D01*
X0133368Y0096623D01*
X0133317Y0096656D01*
X0133265Y0096685D01*
X0133210Y0096712D01*
X0133155Y0096735D01*
X0133098Y0096755D01*
X0133039Y0096771D01*
X0132980Y0096784D01*
X0132921Y0096793D01*
X0132860Y0096798D01*
X0132800Y0096800D01*
X0125800Y0096800D01*
X0125740Y0096798D01*
X0125679Y0096793D01*
X0125620Y0096784D01*
X0125561Y0096771D01*
X0125502Y0096755D01*
X0125445Y0096735D01*
X0125390Y0096712D01*
X0125335Y0096685D01*
X0125283Y0096656D01*
X0125232Y0096623D01*
X0125183Y0096587D01*
X0125137Y0096549D01*
X0125093Y0096507D01*
X0125051Y0096463D01*
X0125013Y0096417D01*
X0124977Y0096368D01*
X0124944Y0096317D01*
X0124915Y0096265D01*
X0124888Y0096210D01*
X0124865Y0096155D01*
X0124845Y0096098D01*
X0124829Y0096039D01*
X0124816Y0095980D01*
X0124807Y0095921D01*
X0124802Y0095860D01*
X0124800Y0095800D01*
X0124800Y0094300D01*
X0125300Y0093800D01*
X0125300Y0074800D01*
X0124800Y0074300D01*
X0124800Y0072800D01*
X0124802Y0072740D01*
X0124807Y0072679D01*
X0124816Y0072620D01*
X0124829Y0072561D01*
X0124845Y0072502D01*
X0124865Y0072445D01*
X0124888Y0072390D01*
X0124915Y0072335D01*
X0124944Y0072283D01*
X0124977Y0072232D01*
X0125013Y0072183D01*
X0125051Y0072137D01*
X0125093Y0072093D01*
X0125137Y0072051D01*
X0125183Y0072013D01*
X0125232Y0071977D01*
X0125283Y0071944D01*
X0125335Y0071915D01*
X0125390Y0071888D01*
X0125445Y0071865D01*
X0125502Y0071845D01*
X0125561Y0071829D01*
X0125620Y0071816D01*
X0125679Y0071807D01*
X0125740Y0071802D01*
X0125800Y0071800D01*
X0132800Y0071800D01*
X0132860Y0071802D01*
X0132921Y0071807D01*
X0132980Y0071816D01*
X0133039Y0071829D01*
X0133098Y0071845D01*
X0133155Y0071865D01*
X0133210Y0071888D01*
X0133265Y0071915D01*
X0133317Y0071944D01*
X0133368Y0071977D01*
X0133417Y0072013D01*
X0133463Y0072051D01*
X0133507Y0072093D01*
X0133549Y0072137D01*
X0133587Y0072183D01*
X0133623Y0072232D01*
X0133656Y0072283D01*
X0133685Y0072335D01*
X0133712Y0072390D01*
X0133735Y0072445D01*
X0133755Y0072502D01*
X0133771Y0072561D01*
X0133784Y0072620D01*
X0133793Y0072679D01*
X0133798Y0072740D01*
X0133800Y0072800D01*
X0133800Y0074300D01*
X0133300Y0074800D01*
X0133300Y0093800D01*
X0133800Y0094300D01*
X0182800Y0119800D02*
X0184300Y0119800D01*
X0184800Y0120300D01*
X0203800Y0120300D01*
X0204300Y0119800D01*
X0205800Y0119800D01*
X0205860Y0119802D01*
X0205921Y0119807D01*
X0205980Y0119816D01*
X0206039Y0119829D01*
X0206098Y0119845D01*
X0206155Y0119865D01*
X0206210Y0119888D01*
X0206265Y0119915D01*
X0206317Y0119944D01*
X0206368Y0119977D01*
X0206417Y0120013D01*
X0206463Y0120051D01*
X0206507Y0120093D01*
X0206549Y0120137D01*
X0206587Y0120183D01*
X0206623Y0120232D01*
X0206656Y0120283D01*
X0206685Y0120335D01*
X0206712Y0120390D01*
X0206735Y0120445D01*
X0206755Y0120502D01*
X0206771Y0120561D01*
X0206784Y0120620D01*
X0206793Y0120679D01*
X0206798Y0120740D01*
X0206800Y0120800D01*
X0206800Y0127800D01*
X0206798Y0127860D01*
X0206793Y0127921D01*
X0206784Y0127980D01*
X0206771Y0128039D01*
X0206755Y0128098D01*
X0206735Y0128155D01*
X0206712Y0128210D01*
X0206685Y0128265D01*
X0206656Y0128317D01*
X0206623Y0128368D01*
X0206587Y0128417D01*
X0206549Y0128463D01*
X0206507Y0128507D01*
X0206463Y0128549D01*
X0206417Y0128587D01*
X0206368Y0128623D01*
X0206317Y0128656D01*
X0206265Y0128685D01*
X0206210Y0128712D01*
X0206155Y0128735D01*
X0206098Y0128755D01*
X0206039Y0128771D01*
X0205980Y0128784D01*
X0205921Y0128793D01*
X0205860Y0128798D01*
X0205800Y0128800D01*
X0204300Y0128800D01*
X0203800Y0128300D01*
X0184800Y0128300D01*
X0184300Y0128800D01*
X0182800Y0128800D01*
X0182740Y0128798D01*
X0182679Y0128793D01*
X0182620Y0128784D01*
X0182561Y0128771D01*
X0182502Y0128755D01*
X0182445Y0128735D01*
X0182390Y0128712D01*
X0182335Y0128685D01*
X0182283Y0128656D01*
X0182232Y0128623D01*
X0182183Y0128587D01*
X0182137Y0128549D01*
X0182093Y0128507D01*
X0182051Y0128463D01*
X0182013Y0128417D01*
X0181977Y0128368D01*
X0181944Y0128317D01*
X0181915Y0128265D01*
X0181888Y0128210D01*
X0181865Y0128155D01*
X0181845Y0128098D01*
X0181829Y0128039D01*
X0181816Y0127980D01*
X0181807Y0127921D01*
X0181802Y0127860D01*
X0181800Y0127800D01*
X0181800Y0120800D01*
X0181802Y0120740D01*
X0181807Y0120679D01*
X0181816Y0120620D01*
X0181829Y0120561D01*
X0181845Y0120502D01*
X0181865Y0120445D01*
X0181888Y0120390D01*
X0181915Y0120335D01*
X0181944Y0120283D01*
X0181977Y0120232D01*
X0182013Y0120183D01*
X0182051Y0120137D01*
X0182093Y0120093D01*
X0182137Y0120051D01*
X0182183Y0120013D01*
X0182232Y0119977D01*
X0182283Y0119944D01*
X0182335Y0119915D01*
X0182390Y0119888D01*
X0182445Y0119865D01*
X0182502Y0119845D01*
X0182561Y0119829D01*
X0182620Y0119816D01*
X0182679Y0119807D01*
X0182740Y0119802D01*
X0182800Y0119800D01*
X0209800Y0105800D02*
X0209800Y0104300D01*
X0210300Y0103800D01*
X0210300Y0084800D01*
X0209800Y0084300D01*
X0209800Y0082800D01*
X0209802Y0082740D01*
X0209807Y0082679D01*
X0209816Y0082620D01*
X0209829Y0082561D01*
X0209845Y0082502D01*
X0209865Y0082445D01*
X0209888Y0082390D01*
X0209915Y0082335D01*
X0209944Y0082283D01*
X0209977Y0082232D01*
X0210013Y0082183D01*
X0210051Y0082137D01*
X0210093Y0082093D01*
X0210137Y0082051D01*
X0210183Y0082013D01*
X0210232Y0081977D01*
X0210283Y0081944D01*
X0210335Y0081915D01*
X0210390Y0081888D01*
X0210445Y0081865D01*
X0210502Y0081845D01*
X0210561Y0081829D01*
X0210620Y0081816D01*
X0210679Y0081807D01*
X0210740Y0081802D01*
X0210800Y0081800D01*
X0217800Y0081800D01*
X0217860Y0081802D01*
X0217921Y0081807D01*
X0217980Y0081816D01*
X0218039Y0081829D01*
X0218098Y0081845D01*
X0218155Y0081865D01*
X0218210Y0081888D01*
X0218265Y0081915D01*
X0218317Y0081944D01*
X0218368Y0081977D01*
X0218417Y0082013D01*
X0218463Y0082051D01*
X0218507Y0082093D01*
X0218549Y0082137D01*
X0218587Y0082183D01*
X0218623Y0082232D01*
X0218656Y0082283D01*
X0218685Y0082335D01*
X0218712Y0082390D01*
X0218735Y0082445D01*
X0218755Y0082502D01*
X0218771Y0082561D01*
X0218784Y0082620D01*
X0218793Y0082679D01*
X0218798Y0082740D01*
X0218800Y0082800D01*
X0218800Y0084300D01*
X0218300Y0084800D01*
X0218300Y0103800D01*
X0218800Y0104300D01*
X0218800Y0105800D01*
X0218798Y0105860D01*
X0218793Y0105921D01*
X0218784Y0105980D01*
X0218771Y0106039D01*
X0218755Y0106098D01*
X0218735Y0106155D01*
X0218712Y0106210D01*
X0218685Y0106265D01*
X0218656Y0106317D01*
X0218623Y0106368D01*
X0218587Y0106417D01*
X0218549Y0106463D01*
X0218507Y0106507D01*
X0218463Y0106549D01*
X0218417Y0106587D01*
X0218368Y0106623D01*
X0218317Y0106656D01*
X0218265Y0106685D01*
X0218210Y0106712D01*
X0218155Y0106735D01*
X0218098Y0106755D01*
X0218039Y0106771D01*
X0217980Y0106784D01*
X0217921Y0106793D01*
X0217860Y0106798D01*
X0217800Y0106800D01*
X0210800Y0106800D01*
X0210740Y0106798D01*
X0210679Y0106793D01*
X0210620Y0106784D01*
X0210561Y0106771D01*
X0210502Y0106755D01*
X0210445Y0106735D01*
X0210390Y0106712D01*
X0210335Y0106685D01*
X0210283Y0106656D01*
X0210232Y0106623D01*
X0210183Y0106587D01*
X0210137Y0106549D01*
X0210093Y0106507D01*
X0210051Y0106463D01*
X0210013Y0106417D01*
X0209977Y0106368D01*
X0209944Y0106317D01*
X0209915Y0106265D01*
X0209888Y0106210D01*
X0209865Y0106155D01*
X0209845Y0106098D01*
X0209829Y0106039D01*
X0209816Y0105980D01*
X0209807Y0105921D01*
X0209802Y0105860D01*
X0209800Y0105800D01*
X0232800Y0109300D02*
X0255800Y0109300D01*
X0274800Y0117800D02*
X0274800Y0119300D01*
X0275300Y0119800D01*
X0275300Y0138800D01*
X0274800Y0139300D01*
X0274800Y0140800D01*
X0274802Y0140860D01*
X0274807Y0140921D01*
X0274816Y0140980D01*
X0274829Y0141039D01*
X0274845Y0141098D01*
X0274865Y0141155D01*
X0274888Y0141210D01*
X0274915Y0141265D01*
X0274944Y0141317D01*
X0274977Y0141368D01*
X0275013Y0141417D01*
X0275051Y0141463D01*
X0275093Y0141507D01*
X0275137Y0141549D01*
X0275183Y0141587D01*
X0275232Y0141623D01*
X0275283Y0141656D01*
X0275335Y0141685D01*
X0275390Y0141712D01*
X0275445Y0141735D01*
X0275502Y0141755D01*
X0275561Y0141771D01*
X0275620Y0141784D01*
X0275679Y0141793D01*
X0275740Y0141798D01*
X0275800Y0141800D01*
X0282800Y0141800D01*
X0282860Y0141798D01*
X0282921Y0141793D01*
X0282980Y0141784D01*
X0283039Y0141771D01*
X0283098Y0141755D01*
X0283155Y0141735D01*
X0283210Y0141712D01*
X0283265Y0141685D01*
X0283317Y0141656D01*
X0283368Y0141623D01*
X0283417Y0141587D01*
X0283463Y0141549D01*
X0283507Y0141507D01*
X0283549Y0141463D01*
X0283587Y0141417D01*
X0283623Y0141368D01*
X0283656Y0141317D01*
X0283685Y0141265D01*
X0283712Y0141210D01*
X0283735Y0141155D01*
X0283755Y0141098D01*
X0283771Y0141039D01*
X0283784Y0140980D01*
X0283793Y0140921D01*
X0283798Y0140860D01*
X0283800Y0140800D01*
X0283800Y0139300D01*
X0283300Y0138800D01*
X0283300Y0119800D01*
X0283800Y0119300D01*
X0283800Y0117800D01*
X0283798Y0117740D01*
X0283793Y0117679D01*
X0283784Y0117620D01*
X0283771Y0117561D01*
X0283755Y0117502D01*
X0283735Y0117445D01*
X0283712Y0117390D01*
X0283685Y0117335D01*
X0283656Y0117283D01*
X0283623Y0117232D01*
X0283587Y0117183D01*
X0283549Y0117137D01*
X0283507Y0117093D01*
X0283463Y0117051D01*
X0283417Y0117013D01*
X0283368Y0116977D01*
X0283317Y0116944D01*
X0283265Y0116915D01*
X0283210Y0116888D01*
X0283155Y0116865D01*
X0283098Y0116845D01*
X0283039Y0116829D01*
X0282980Y0116816D01*
X0282921Y0116807D01*
X0282860Y0116802D01*
X0282800Y0116800D01*
X0275800Y0116800D01*
X0275740Y0116802D01*
X0275679Y0116807D01*
X0275620Y0116816D01*
X0275561Y0116829D01*
X0275502Y0116845D01*
X0275445Y0116865D01*
X0275390Y0116888D01*
X0275335Y0116915D01*
X0275283Y0116944D01*
X0275232Y0116977D01*
X0275183Y0117013D01*
X0275137Y0117051D01*
X0275093Y0117093D01*
X0275051Y0117137D01*
X0275013Y0117183D01*
X0274977Y0117232D01*
X0274944Y0117283D01*
X0274915Y0117335D01*
X0274888Y0117390D01*
X0274865Y0117445D01*
X0274845Y0117502D01*
X0274829Y0117561D01*
X0274816Y0117620D01*
X0274807Y0117679D01*
X0274802Y0117740D01*
X0274800Y0117800D01*
X0280800Y0094300D02*
X0257800Y0094300D01*
X0242800Y0081800D02*
X0235800Y0081800D01*
X0235740Y0081798D01*
X0235679Y0081793D01*
X0235620Y0081784D01*
X0235561Y0081771D01*
X0235502Y0081755D01*
X0235445Y0081735D01*
X0235390Y0081712D01*
X0235335Y0081685D01*
X0235283Y0081656D01*
X0235232Y0081623D01*
X0235183Y0081587D01*
X0235137Y0081549D01*
X0235093Y0081507D01*
X0235051Y0081463D01*
X0235013Y0081417D01*
X0234977Y0081368D01*
X0234944Y0081317D01*
X0234915Y0081265D01*
X0234888Y0081210D01*
X0234865Y0081155D01*
X0234845Y0081098D01*
X0234829Y0081039D01*
X0234816Y0080980D01*
X0234807Y0080921D01*
X0234802Y0080860D01*
X0234800Y0080800D01*
X0234800Y0079300D01*
X0235300Y0078800D01*
X0235300Y0059800D01*
X0234800Y0059300D01*
X0234800Y0057800D01*
X0234802Y0057740D01*
X0234807Y0057679D01*
X0234816Y0057620D01*
X0234829Y0057561D01*
X0234845Y0057502D01*
X0234865Y0057445D01*
X0234888Y0057390D01*
X0234915Y0057335D01*
X0234944Y0057283D01*
X0234977Y0057232D01*
X0235013Y0057183D01*
X0235051Y0057137D01*
X0235093Y0057093D01*
X0235137Y0057051D01*
X0235183Y0057013D01*
X0235232Y0056977D01*
X0235283Y0056944D01*
X0235335Y0056915D01*
X0235390Y0056888D01*
X0235445Y0056865D01*
X0235502Y0056845D01*
X0235561Y0056829D01*
X0235620Y0056816D01*
X0235679Y0056807D01*
X0235740Y0056802D01*
X0235800Y0056800D01*
X0242800Y0056800D01*
X0242860Y0056802D01*
X0242921Y0056807D01*
X0242980Y0056816D01*
X0243039Y0056829D01*
X0243098Y0056845D01*
X0243155Y0056865D01*
X0243210Y0056888D01*
X0243265Y0056915D01*
X0243317Y0056944D01*
X0243368Y0056977D01*
X0243417Y0057013D01*
X0243463Y0057051D01*
X0243507Y0057093D01*
X0243549Y0057137D01*
X0243587Y0057183D01*
X0243623Y0057232D01*
X0243656Y0057283D01*
X0243685Y0057335D01*
X0243712Y0057390D01*
X0243735Y0057445D01*
X0243755Y0057502D01*
X0243771Y0057561D01*
X0243784Y0057620D01*
X0243793Y0057679D01*
X0243798Y0057740D01*
X0243800Y0057800D01*
X0243800Y0059300D01*
X0243300Y0059800D01*
X0243300Y0078800D01*
X0243800Y0079300D01*
X0243800Y0080800D01*
X0243798Y0080860D01*
X0243793Y0080921D01*
X0243784Y0080980D01*
X0243771Y0081039D01*
X0243755Y0081098D01*
X0243735Y0081155D01*
X0243712Y0081210D01*
X0243685Y0081265D01*
X0243656Y0081317D01*
X0243623Y0081368D01*
X0243587Y0081417D01*
X0243549Y0081463D01*
X0243507Y0081507D01*
X0243463Y0081549D01*
X0243417Y0081587D01*
X0243368Y0081623D01*
X0243317Y0081656D01*
X0243265Y0081685D01*
X0243210Y0081712D01*
X0243155Y0081735D01*
X0243098Y0081755D01*
X0243039Y0081771D01*
X0242980Y0081784D01*
X0242921Y0081793D01*
X0242860Y0081798D01*
X0242800Y0081800D01*
X0257800Y0024300D02*
X0265300Y0024300D01*
X0265302Y0024426D01*
X0265308Y0024551D01*
X0265318Y0024676D01*
X0265332Y0024801D01*
X0265349Y0024926D01*
X0265371Y0025050D01*
X0265396Y0025173D01*
X0265426Y0025295D01*
X0265459Y0025416D01*
X0265496Y0025536D01*
X0265536Y0025655D01*
X0265581Y0025772D01*
X0265629Y0025889D01*
X0265681Y0026003D01*
X0265736Y0026116D01*
X0265795Y0026227D01*
X0265857Y0026336D01*
X0265923Y0026443D01*
X0265992Y0026548D01*
X0266064Y0026651D01*
X0266139Y0026752D01*
X0266218Y0026850D01*
X0266300Y0026945D01*
X0266384Y0027038D01*
X0266472Y0027128D01*
X0266562Y0027216D01*
X0266655Y0027300D01*
X0266750Y0027382D01*
X0266848Y0027461D01*
X0266949Y0027536D01*
X0267052Y0027608D01*
X0267157Y0027677D01*
X0267264Y0027743D01*
X0267373Y0027805D01*
X0267484Y0027864D01*
X0267597Y0027919D01*
X0267711Y0027971D01*
X0267828Y0028019D01*
X0267945Y0028064D01*
X0268064Y0028104D01*
X0268184Y0028141D01*
X0268305Y0028174D01*
X0268427Y0028204D01*
X0268550Y0028229D01*
X0268674Y0028251D01*
X0268799Y0028268D01*
X0268924Y0028282D01*
X0269049Y0028292D01*
X0269174Y0028298D01*
X0269300Y0028300D01*
X0269426Y0028298D01*
X0269551Y0028292D01*
X0269676Y0028282D01*
X0269801Y0028268D01*
X0269926Y0028251D01*
X0270050Y0028229D01*
X0270173Y0028204D01*
X0270295Y0028174D01*
X0270416Y0028141D01*
X0270536Y0028104D01*
X0270655Y0028064D01*
X0270772Y0028019D01*
X0270889Y0027971D01*
X0271003Y0027919D01*
X0271116Y0027864D01*
X0271227Y0027805D01*
X0271336Y0027743D01*
X0271443Y0027677D01*
X0271548Y0027608D01*
X0271651Y0027536D01*
X0271752Y0027461D01*
X0271850Y0027382D01*
X0271945Y0027300D01*
X0272038Y0027216D01*
X0272128Y0027128D01*
X0272216Y0027038D01*
X0272300Y0026945D01*
X0272382Y0026850D01*
X0272461Y0026752D01*
X0272536Y0026651D01*
X0272608Y0026548D01*
X0272677Y0026443D01*
X0272743Y0026336D01*
X0272805Y0026227D01*
X0272864Y0026116D01*
X0272919Y0026003D01*
X0272971Y0025889D01*
X0273019Y0025772D01*
X0273064Y0025655D01*
X0273104Y0025536D01*
X0273141Y0025416D01*
X0273174Y0025295D01*
X0273204Y0025173D01*
X0273229Y0025050D01*
X0273251Y0024926D01*
X0273268Y0024801D01*
X0273282Y0024676D01*
X0273292Y0024551D01*
X0273298Y0024426D01*
X0273300Y0024300D01*
X0280800Y0024300D01*
X0060800Y0024300D02*
X0037800Y0024300D01*
X0037800Y0094300D02*
X0045300Y0094300D01*
X0045302Y0094174D01*
X0045308Y0094049D01*
X0045318Y0093924D01*
X0045332Y0093799D01*
X0045349Y0093674D01*
X0045371Y0093550D01*
X0045396Y0093427D01*
X0045426Y0093305D01*
X0045459Y0093184D01*
X0045496Y0093064D01*
X0045536Y0092945D01*
X0045581Y0092828D01*
X0045629Y0092711D01*
X0045681Y0092597D01*
X0045736Y0092484D01*
X0045795Y0092373D01*
X0045857Y0092264D01*
X0045923Y0092157D01*
X0045992Y0092052D01*
X0046064Y0091949D01*
X0046139Y0091848D01*
X0046218Y0091750D01*
X0046300Y0091655D01*
X0046384Y0091562D01*
X0046472Y0091472D01*
X0046562Y0091384D01*
X0046655Y0091300D01*
X0046750Y0091218D01*
X0046848Y0091139D01*
X0046949Y0091064D01*
X0047052Y0090992D01*
X0047157Y0090923D01*
X0047264Y0090857D01*
X0047373Y0090795D01*
X0047484Y0090736D01*
X0047597Y0090681D01*
X0047711Y0090629D01*
X0047828Y0090581D01*
X0047945Y0090536D01*
X0048064Y0090496D01*
X0048184Y0090459D01*
X0048305Y0090426D01*
X0048427Y0090396D01*
X0048550Y0090371D01*
X0048674Y0090349D01*
X0048799Y0090332D01*
X0048924Y0090318D01*
X0049049Y0090308D01*
X0049174Y0090302D01*
X0049300Y0090300D01*
X0049426Y0090302D01*
X0049551Y0090308D01*
X0049676Y0090318D01*
X0049801Y0090332D01*
X0049926Y0090349D01*
X0050050Y0090371D01*
X0050173Y0090396D01*
X0050295Y0090426D01*
X0050416Y0090459D01*
X0050536Y0090496D01*
X0050655Y0090536D01*
X0050772Y0090581D01*
X0050889Y0090629D01*
X0051003Y0090681D01*
X0051116Y0090736D01*
X0051227Y0090795D01*
X0051336Y0090857D01*
X0051443Y0090923D01*
X0051548Y0090992D01*
X0051651Y0091064D01*
X0051752Y0091139D01*
X0051850Y0091218D01*
X0051945Y0091300D01*
X0052038Y0091384D01*
X0052128Y0091472D01*
X0052216Y0091562D01*
X0052300Y0091655D01*
X0052382Y0091750D01*
X0052461Y0091848D01*
X0052536Y0091949D01*
X0052608Y0092052D01*
X0052677Y0092157D01*
X0052743Y0092264D01*
X0052805Y0092373D01*
X0052864Y0092484D01*
X0052919Y0092597D01*
X0052971Y0092711D01*
X0053019Y0092828D01*
X0053064Y0092945D01*
X0053104Y0093064D01*
X0053141Y0093184D01*
X0053174Y0093305D01*
X0053204Y0093427D01*
X0053229Y0093550D01*
X0053251Y0093674D01*
X0053268Y0093799D01*
X0053282Y0093924D01*
X0053292Y0094049D01*
X0053298Y0094174D01*
X0053300Y0094300D01*
X0060800Y0094300D01*
X0060800Y0119300D02*
X0037800Y0119300D01*
X0129800Y0152800D02*
X0129800Y0154300D01*
X0130300Y0154800D01*
X0130300Y0173800D01*
X0129800Y0174300D01*
X0129800Y0175800D01*
X0129802Y0175860D01*
X0129807Y0175921D01*
X0129816Y0175980D01*
X0129829Y0176039D01*
X0129845Y0176098D01*
X0129865Y0176155D01*
X0129888Y0176210D01*
X0129915Y0176265D01*
X0129944Y0176317D01*
X0129977Y0176368D01*
X0130013Y0176417D01*
X0130051Y0176463D01*
X0130093Y0176507D01*
X0130137Y0176549D01*
X0130183Y0176587D01*
X0130232Y0176623D01*
X0130283Y0176656D01*
X0130335Y0176685D01*
X0130390Y0176712D01*
X0130445Y0176735D01*
X0130502Y0176755D01*
X0130561Y0176771D01*
X0130620Y0176784D01*
X0130679Y0176793D01*
X0130740Y0176798D01*
X0130800Y0176800D01*
X0137800Y0176800D01*
X0137860Y0176798D01*
X0137921Y0176793D01*
X0137980Y0176784D01*
X0138039Y0176771D01*
X0138098Y0176755D01*
X0138155Y0176735D01*
X0138210Y0176712D01*
X0138265Y0176685D01*
X0138317Y0176656D01*
X0138368Y0176623D01*
X0138417Y0176587D01*
X0138463Y0176549D01*
X0138507Y0176507D01*
X0138549Y0176463D01*
X0138587Y0176417D01*
X0138623Y0176368D01*
X0138656Y0176317D01*
X0138685Y0176265D01*
X0138712Y0176210D01*
X0138735Y0176155D01*
X0138755Y0176098D01*
X0138771Y0176039D01*
X0138784Y0175980D01*
X0138793Y0175921D01*
X0138798Y0175860D01*
X0138800Y0175800D01*
X0138800Y0174300D01*
X0138300Y0173800D01*
X0138300Y0154800D01*
X0138800Y0154300D01*
X0138800Y0152800D01*
X0138798Y0152740D01*
X0138793Y0152679D01*
X0138784Y0152620D01*
X0138771Y0152561D01*
X0138755Y0152502D01*
X0138735Y0152445D01*
X0138712Y0152390D01*
X0138685Y0152335D01*
X0138656Y0152283D01*
X0138623Y0152232D01*
X0138587Y0152183D01*
X0138549Y0152137D01*
X0138507Y0152093D01*
X0138463Y0152051D01*
X0138417Y0152013D01*
X0138368Y0151977D01*
X0138317Y0151944D01*
X0138265Y0151915D01*
X0138210Y0151888D01*
X0138155Y0151865D01*
X0138098Y0151845D01*
X0138039Y0151829D01*
X0137980Y0151816D01*
X0137921Y0151807D01*
X0137860Y0151802D01*
X0137800Y0151800D01*
X0130800Y0151800D01*
X0130740Y0151802D01*
X0130679Y0151807D01*
X0130620Y0151816D01*
X0130561Y0151829D01*
X0130502Y0151845D01*
X0130445Y0151865D01*
X0130390Y0151888D01*
X0130335Y0151915D01*
X0130283Y0151944D01*
X0130232Y0151977D01*
X0130183Y0152013D01*
X0130137Y0152051D01*
X0130093Y0152093D01*
X0130051Y0152137D01*
X0130013Y0152183D01*
X0129977Y0152232D01*
X0129944Y0152283D01*
X0129915Y0152335D01*
X0129888Y0152390D01*
X0129865Y0152445D01*
X0129845Y0152502D01*
X0129829Y0152561D01*
X0129816Y0152620D01*
X0129807Y0152679D01*
X0129802Y0152740D01*
X0129800Y0152800D01*
X0149800Y0152800D02*
X0149800Y0154300D01*
X0150300Y0154800D01*
X0150300Y0173800D01*
X0149800Y0174300D01*
X0149800Y0175800D01*
X0149802Y0175860D01*
X0149807Y0175921D01*
X0149816Y0175980D01*
X0149829Y0176039D01*
X0149845Y0176098D01*
X0149865Y0176155D01*
X0149888Y0176210D01*
X0149915Y0176265D01*
X0149944Y0176317D01*
X0149977Y0176368D01*
X0150013Y0176417D01*
X0150051Y0176463D01*
X0150093Y0176507D01*
X0150137Y0176549D01*
X0150183Y0176587D01*
X0150232Y0176623D01*
X0150283Y0176656D01*
X0150335Y0176685D01*
X0150390Y0176712D01*
X0150445Y0176735D01*
X0150502Y0176755D01*
X0150561Y0176771D01*
X0150620Y0176784D01*
X0150679Y0176793D01*
X0150740Y0176798D01*
X0150800Y0176800D01*
X0157800Y0176800D01*
X0157860Y0176798D01*
X0157921Y0176793D01*
X0157980Y0176784D01*
X0158039Y0176771D01*
X0158098Y0176755D01*
X0158155Y0176735D01*
X0158210Y0176712D01*
X0158265Y0176685D01*
X0158317Y0176656D01*
X0158368Y0176623D01*
X0158417Y0176587D01*
X0158463Y0176549D01*
X0158507Y0176507D01*
X0158549Y0176463D01*
X0158587Y0176417D01*
X0158623Y0176368D01*
X0158656Y0176317D01*
X0158685Y0176265D01*
X0158712Y0176210D01*
X0158735Y0176155D01*
X0158755Y0176098D01*
X0158771Y0176039D01*
X0158784Y0175980D01*
X0158793Y0175921D01*
X0158798Y0175860D01*
X0158800Y0175800D01*
X0158800Y0174300D01*
X0158300Y0173800D01*
X0158300Y0154800D01*
X0158800Y0154300D01*
X0158800Y0152800D01*
X0158798Y0152740D01*
X0158793Y0152679D01*
X0158784Y0152620D01*
X0158771Y0152561D01*
X0158755Y0152502D01*
X0158735Y0152445D01*
X0158712Y0152390D01*
X0158685Y0152335D01*
X0158656Y0152283D01*
X0158623Y0152232D01*
X0158587Y0152183D01*
X0158549Y0152137D01*
X0158507Y0152093D01*
X0158463Y0152051D01*
X0158417Y0152013D01*
X0158368Y0151977D01*
X0158317Y0151944D01*
X0158265Y0151915D01*
X0158210Y0151888D01*
X0158155Y0151865D01*
X0158098Y0151845D01*
X0158039Y0151829D01*
X0157980Y0151816D01*
X0157921Y0151807D01*
X0157860Y0151802D01*
X0157800Y0151800D01*
X0150800Y0151800D01*
X0150740Y0151802D01*
X0150679Y0151807D01*
X0150620Y0151816D01*
X0150561Y0151829D01*
X0150502Y0151845D01*
X0150445Y0151865D01*
X0150390Y0151888D01*
X0150335Y0151915D01*
X0150283Y0151944D01*
X0150232Y0151977D01*
X0150183Y0152013D01*
X0150137Y0152051D01*
X0150093Y0152093D01*
X0150051Y0152137D01*
X0150013Y0152183D01*
X0149977Y0152232D01*
X0149944Y0152283D01*
X0149915Y0152335D01*
X0149888Y0152390D01*
X0149865Y0152445D01*
X0149845Y0152502D01*
X0149829Y0152561D01*
X0149816Y0152620D01*
X0149807Y0152679D01*
X0149802Y0152740D01*
X0149800Y0152800D01*
X0169800Y0152800D02*
X0169800Y0154300D01*
X0170300Y0154800D01*
X0170300Y0173800D01*
X0169800Y0174300D01*
X0169800Y0175800D01*
X0169802Y0175860D01*
X0169807Y0175921D01*
X0169816Y0175980D01*
X0169829Y0176039D01*
X0169845Y0176098D01*
X0169865Y0176155D01*
X0169888Y0176210D01*
X0169915Y0176265D01*
X0169944Y0176317D01*
X0169977Y0176368D01*
X0170013Y0176417D01*
X0170051Y0176463D01*
X0170093Y0176507D01*
X0170137Y0176549D01*
X0170183Y0176587D01*
X0170232Y0176623D01*
X0170283Y0176656D01*
X0170335Y0176685D01*
X0170390Y0176712D01*
X0170445Y0176735D01*
X0170502Y0176755D01*
X0170561Y0176771D01*
X0170620Y0176784D01*
X0170679Y0176793D01*
X0170740Y0176798D01*
X0170800Y0176800D01*
X0177800Y0176800D01*
X0177860Y0176798D01*
X0177921Y0176793D01*
X0177980Y0176784D01*
X0178039Y0176771D01*
X0178098Y0176755D01*
X0178155Y0176735D01*
X0178210Y0176712D01*
X0178265Y0176685D01*
X0178317Y0176656D01*
X0178368Y0176623D01*
X0178417Y0176587D01*
X0178463Y0176549D01*
X0178507Y0176507D01*
X0178549Y0176463D01*
X0178587Y0176417D01*
X0178623Y0176368D01*
X0178656Y0176317D01*
X0178685Y0176265D01*
X0178712Y0176210D01*
X0178735Y0176155D01*
X0178755Y0176098D01*
X0178771Y0176039D01*
X0178784Y0175980D01*
X0178793Y0175921D01*
X0178798Y0175860D01*
X0178800Y0175800D01*
X0178800Y0174300D01*
X0178300Y0173800D01*
X0178300Y0154800D01*
X0178800Y0154300D01*
X0178800Y0152800D01*
X0178798Y0152740D01*
X0178793Y0152679D01*
X0178784Y0152620D01*
X0178771Y0152561D01*
X0178755Y0152502D01*
X0178735Y0152445D01*
X0178712Y0152390D01*
X0178685Y0152335D01*
X0178656Y0152283D01*
X0178623Y0152232D01*
X0178587Y0152183D01*
X0178549Y0152137D01*
X0178507Y0152093D01*
X0178463Y0152051D01*
X0178417Y0152013D01*
X0178368Y0151977D01*
X0178317Y0151944D01*
X0178265Y0151915D01*
X0178210Y0151888D01*
X0178155Y0151865D01*
X0178098Y0151845D01*
X0178039Y0151829D01*
X0177980Y0151816D01*
X0177921Y0151807D01*
X0177860Y0151802D01*
X0177800Y0151800D01*
X0170800Y0151800D01*
X0170740Y0151802D01*
X0170679Y0151807D01*
X0170620Y0151816D01*
X0170561Y0151829D01*
X0170502Y0151845D01*
X0170445Y0151865D01*
X0170390Y0151888D01*
X0170335Y0151915D01*
X0170283Y0151944D01*
X0170232Y0151977D01*
X0170183Y0152013D01*
X0170137Y0152051D01*
X0170093Y0152093D01*
X0170051Y0152137D01*
X0170013Y0152183D01*
X0169977Y0152232D01*
X0169944Y0152283D01*
X0169915Y0152335D01*
X0169888Y0152390D01*
X0169865Y0152445D01*
X0169845Y0152502D01*
X0169829Y0152561D01*
X0169816Y0152620D01*
X0169807Y0152679D01*
X0169802Y0152740D01*
X0169800Y0152800D01*
X0229300Y0178300D02*
X0229300Y0189800D01*
X0229300Y0178300D02*
X0230300Y0177300D01*
X0268300Y0177300D01*
X0269300Y0178300D01*
X0269300Y0189800D01*
X0282800Y0171300D02*
X0255800Y0171300D01*
X0255740Y0171298D01*
X0255679Y0171293D01*
X0255620Y0171284D01*
X0255561Y0171271D01*
X0255502Y0171255D01*
X0255445Y0171235D01*
X0255390Y0171212D01*
X0255335Y0171185D01*
X0255283Y0171156D01*
X0255232Y0171123D01*
X0255183Y0171087D01*
X0255137Y0171049D01*
X0255093Y0171007D01*
X0255051Y0170963D01*
X0255013Y0170917D01*
X0254977Y0170868D01*
X0254944Y0170817D01*
X0254915Y0170765D01*
X0254888Y0170710D01*
X0254865Y0170655D01*
X0254845Y0170598D01*
X0254829Y0170539D01*
X0254816Y0170480D01*
X0254807Y0170421D01*
X0254802Y0170360D01*
X0254800Y0170300D01*
X0254800Y0158300D01*
X0254802Y0158240D01*
X0254807Y0158179D01*
X0254816Y0158120D01*
X0254829Y0158061D01*
X0254845Y0158002D01*
X0254865Y0157945D01*
X0254888Y0157890D01*
X0254915Y0157835D01*
X0254944Y0157783D01*
X0254977Y0157732D01*
X0255013Y0157683D01*
X0255051Y0157637D01*
X0255093Y0157593D01*
X0255137Y0157551D01*
X0255183Y0157513D01*
X0255232Y0157477D01*
X0255283Y0157444D01*
X0255335Y0157415D01*
X0255390Y0157388D01*
X0255445Y0157365D01*
X0255502Y0157345D01*
X0255561Y0157329D01*
X0255620Y0157316D01*
X0255679Y0157307D01*
X0255740Y0157302D01*
X0255800Y0157300D01*
X0282800Y0157300D01*
X0282860Y0157302D01*
X0282921Y0157307D01*
X0282980Y0157316D01*
X0283039Y0157329D01*
X0283098Y0157345D01*
X0283155Y0157365D01*
X0283210Y0157388D01*
X0283265Y0157415D01*
X0283317Y0157444D01*
X0283368Y0157477D01*
X0283417Y0157513D01*
X0283463Y0157551D01*
X0283507Y0157593D01*
X0283549Y0157637D01*
X0283587Y0157683D01*
X0283623Y0157732D01*
X0283656Y0157783D01*
X0283685Y0157835D01*
X0283712Y0157890D01*
X0283735Y0157945D01*
X0283755Y0158002D01*
X0283771Y0158061D01*
X0283784Y0158120D01*
X0283793Y0158179D01*
X0283798Y0158240D01*
X0283800Y0158300D01*
X0283800Y0170300D01*
X0283798Y0170360D01*
X0283793Y0170421D01*
X0283784Y0170480D01*
X0283771Y0170539D01*
X0283755Y0170598D01*
X0283735Y0170655D01*
X0283712Y0170710D01*
X0283685Y0170765D01*
X0283656Y0170817D01*
X0283623Y0170868D01*
X0283587Y0170917D01*
X0283549Y0170963D01*
X0283507Y0171007D01*
X0283463Y0171049D01*
X0283417Y0171087D01*
X0283368Y0171123D01*
X0283317Y0171156D01*
X0283265Y0171185D01*
X0283210Y0171212D01*
X0283155Y0171235D01*
X0283098Y0171255D01*
X0283039Y0171271D01*
X0282980Y0171284D01*
X0282921Y0171293D01*
X0282860Y0171298D01*
X0282800Y0171300D01*
X0275300Y0164300D02*
X0270600Y0164300D01*
X0268100Y0164300D02*
X0263300Y0164300D01*
X0255800Y0149300D02*
X0248300Y0149300D01*
X0248298Y0149174D01*
X0248292Y0149049D01*
X0248282Y0148924D01*
X0248268Y0148799D01*
X0248251Y0148674D01*
X0248229Y0148550D01*
X0248204Y0148427D01*
X0248174Y0148305D01*
X0248141Y0148184D01*
X0248104Y0148064D01*
X0248064Y0147945D01*
X0248019Y0147828D01*
X0247971Y0147711D01*
X0247919Y0147597D01*
X0247864Y0147484D01*
X0247805Y0147373D01*
X0247743Y0147264D01*
X0247677Y0147157D01*
X0247608Y0147052D01*
X0247536Y0146949D01*
X0247461Y0146848D01*
X0247382Y0146750D01*
X0247300Y0146655D01*
X0247216Y0146562D01*
X0247128Y0146472D01*
X0247038Y0146384D01*
X0246945Y0146300D01*
X0246850Y0146218D01*
X0246752Y0146139D01*
X0246651Y0146064D01*
X0246548Y0145992D01*
X0246443Y0145923D01*
X0246336Y0145857D01*
X0246227Y0145795D01*
X0246116Y0145736D01*
X0246003Y0145681D01*
X0245889Y0145629D01*
X0245772Y0145581D01*
X0245655Y0145536D01*
X0245536Y0145496D01*
X0245416Y0145459D01*
X0245295Y0145426D01*
X0245173Y0145396D01*
X0245050Y0145371D01*
X0244926Y0145349D01*
X0244801Y0145332D01*
X0244676Y0145318D01*
X0244551Y0145308D01*
X0244426Y0145302D01*
X0244300Y0145300D01*
X0244174Y0145302D01*
X0244049Y0145308D01*
X0243924Y0145318D01*
X0243799Y0145332D01*
X0243674Y0145349D01*
X0243550Y0145371D01*
X0243427Y0145396D01*
X0243305Y0145426D01*
X0243184Y0145459D01*
X0243064Y0145496D01*
X0242945Y0145536D01*
X0242828Y0145581D01*
X0242711Y0145629D01*
X0242597Y0145681D01*
X0242484Y0145736D01*
X0242373Y0145795D01*
X0242264Y0145857D01*
X0242157Y0145923D01*
X0242052Y0145992D01*
X0241949Y0146064D01*
X0241848Y0146139D01*
X0241750Y0146218D01*
X0241655Y0146300D01*
X0241562Y0146384D01*
X0241472Y0146472D01*
X0241384Y0146562D01*
X0241300Y0146655D01*
X0241218Y0146750D01*
X0241139Y0146848D01*
X0241064Y0146949D01*
X0240992Y0147052D01*
X0240923Y0147157D01*
X0240857Y0147264D01*
X0240795Y0147373D01*
X0240736Y0147484D01*
X0240681Y0147597D01*
X0240629Y0147711D01*
X0240581Y0147828D01*
X0240536Y0147945D01*
X0240496Y0148064D01*
X0240459Y0148184D01*
X0240426Y0148305D01*
X0240396Y0148427D01*
X0240371Y0148550D01*
X0240349Y0148674D01*
X0240332Y0148799D01*
X0240318Y0148924D01*
X0240308Y0149049D01*
X0240302Y0149174D01*
X0240300Y0149300D01*
X0232800Y0149300D01*
X0060800Y0189300D02*
X0053300Y0189300D01*
X0053298Y0189174D01*
X0053292Y0189049D01*
X0053282Y0188924D01*
X0053268Y0188799D01*
X0053251Y0188674D01*
X0053229Y0188550D01*
X0053204Y0188427D01*
X0053174Y0188305D01*
X0053141Y0188184D01*
X0053104Y0188064D01*
X0053064Y0187945D01*
X0053019Y0187828D01*
X0052971Y0187711D01*
X0052919Y0187597D01*
X0052864Y0187484D01*
X0052805Y0187373D01*
X0052743Y0187264D01*
X0052677Y0187157D01*
X0052608Y0187052D01*
X0052536Y0186949D01*
X0052461Y0186848D01*
X0052382Y0186750D01*
X0052300Y0186655D01*
X0052216Y0186562D01*
X0052128Y0186472D01*
X0052038Y0186384D01*
X0051945Y0186300D01*
X0051850Y0186218D01*
X0051752Y0186139D01*
X0051651Y0186064D01*
X0051548Y0185992D01*
X0051443Y0185923D01*
X0051336Y0185857D01*
X0051227Y0185795D01*
X0051116Y0185736D01*
X0051003Y0185681D01*
X0050889Y0185629D01*
X0050772Y0185581D01*
X0050655Y0185536D01*
X0050536Y0185496D01*
X0050416Y0185459D01*
X0050295Y0185426D01*
X0050173Y0185396D01*
X0050050Y0185371D01*
X0049926Y0185349D01*
X0049801Y0185332D01*
X0049676Y0185318D01*
X0049551Y0185308D01*
X0049426Y0185302D01*
X0049300Y0185300D01*
X0049174Y0185302D01*
X0049049Y0185308D01*
X0048924Y0185318D01*
X0048799Y0185332D01*
X0048674Y0185349D01*
X0048550Y0185371D01*
X0048427Y0185396D01*
X0048305Y0185426D01*
X0048184Y0185459D01*
X0048064Y0185496D01*
X0047945Y0185536D01*
X0047828Y0185581D01*
X0047711Y0185629D01*
X0047597Y0185681D01*
X0047484Y0185736D01*
X0047373Y0185795D01*
X0047264Y0185857D01*
X0047157Y0185923D01*
X0047052Y0185992D01*
X0046949Y0186064D01*
X0046848Y0186139D01*
X0046750Y0186218D01*
X0046655Y0186300D01*
X0046562Y0186384D01*
X0046472Y0186472D01*
X0046384Y0186562D01*
X0046300Y0186655D01*
X0046218Y0186750D01*
X0046139Y0186848D01*
X0046064Y0186949D01*
X0045992Y0187052D01*
X0045923Y0187157D01*
X0045857Y0187264D01*
X0045795Y0187373D01*
X0045736Y0187484D01*
X0045681Y0187597D01*
X0045629Y0187711D01*
X0045581Y0187828D01*
X0045536Y0187945D01*
X0045496Y0188064D01*
X0045459Y0188184D01*
X0045426Y0188305D01*
X0045396Y0188427D01*
X0045371Y0188550D01*
X0045349Y0188674D01*
X0045332Y0188799D01*
X0045318Y0188924D01*
X0045308Y0189049D01*
X0045302Y0189174D01*
X0045300Y0189300D01*
X0037800Y0189300D01*
D18*
X0231100Y0179700D03*
D19*
X0232050Y0191800D03*
X0266550Y0191800D03*
D20*
X0259300Y0192800D03*
X0249300Y0192800D03*
X0239300Y0192800D03*
D21*
X0244300Y0191800D03*
X0254300Y0191800D03*
D22*
X0174300Y0178500D03*
X0154300Y0178500D03*
X0134300Y0178500D03*
X0134300Y0150100D03*
X0154300Y0150100D03*
X0174300Y0150100D03*
X0214300Y0108500D03*
X0239300Y0083500D03*
X0214300Y0080100D03*
X0239300Y0055100D03*
X0129300Y0070100D03*
X0129300Y0098500D03*
X0279300Y0115100D03*
X0279300Y0143500D03*
D23*
X0208500Y0124300D03*
X0180100Y0124300D03*
M02*
