G75*
%MOIN*%
%OFA0B0*%
%FSLAX25Y25*%
%IPPOS*%
%LPD*%
%AMOC8*
5,1,8,0,0,1.08239X$1,22.5*
%
%ADD10R,0.05150X0.05150*%
%ADD11C,0.05150*%
%ADD12OC8,0.05200*%
%ADD13C,0.05200*%
%ADD14C,0.06000*%
%ADD15C,0.01600*%
D10*
X0379300Y0034300D03*
D11*
X0379300Y0044300D03*
X0379300Y0054300D03*
X0379300Y0064300D03*
X0379300Y0074300D03*
X0379300Y0084300D03*
X0379300Y0094300D03*
X0379300Y0104300D03*
X0379300Y0114300D03*
X0379300Y0124300D03*
X0379300Y0134300D03*
X0379300Y0144300D03*
X0379300Y0154300D03*
X0379300Y0164300D03*
X0379300Y0174300D03*
X0319300Y0174300D03*
X0319300Y0164300D03*
X0319300Y0154300D03*
X0319300Y0144300D03*
X0319300Y0134300D03*
X0319300Y0124300D03*
X0319300Y0114300D03*
X0319300Y0104300D03*
X0319300Y0094300D03*
X0319300Y0084300D03*
X0319300Y0074300D03*
X0319300Y0064300D03*
X0319300Y0054300D03*
X0319300Y0044300D03*
X0319300Y0034300D03*
D12*
X0239300Y0049300D03*
X0214300Y0074300D03*
X0189300Y0064300D03*
X0189300Y0084300D03*
X0239300Y0089300D03*
X0279300Y0109300D03*
X0214300Y0114300D03*
X0214300Y0124300D03*
X0174300Y0124300D03*
X0174300Y0144300D03*
X0154300Y0144300D03*
X0134300Y0144300D03*
X0129300Y0104300D03*
X0129300Y0064300D03*
X0279300Y0149300D03*
X0279300Y0164300D03*
X0259300Y0164300D03*
X0174300Y0184300D03*
X0154300Y0184300D03*
X0134300Y0184300D03*
D13*
X0066900Y0184300D02*
X0061700Y0184300D01*
X0061700Y0174300D02*
X0066900Y0174300D01*
X0066900Y0164300D02*
X0061700Y0164300D01*
X0061700Y0154300D02*
X0066900Y0154300D01*
X0066900Y0144300D02*
X0061700Y0144300D01*
X0061700Y0134300D02*
X0066900Y0134300D01*
X0066900Y0124300D02*
X0061700Y0124300D01*
X0036900Y0124300D02*
X0031700Y0124300D01*
X0031700Y0134300D02*
X0036900Y0134300D01*
X0036900Y0144300D02*
X0031700Y0144300D01*
X0031700Y0154300D02*
X0036900Y0154300D01*
X0036900Y0164300D02*
X0031700Y0164300D01*
X0031700Y0174300D02*
X0036900Y0174300D01*
X0036900Y0184300D02*
X0031700Y0184300D01*
X0031700Y0089300D02*
X0036900Y0089300D01*
X0036900Y0079300D02*
X0031700Y0079300D01*
X0031700Y0069300D02*
X0036900Y0069300D01*
X0036900Y0059300D02*
X0031700Y0059300D01*
X0031700Y0049300D02*
X0036900Y0049300D01*
X0036900Y0039300D02*
X0031700Y0039300D01*
X0031700Y0029300D02*
X0036900Y0029300D01*
X0061700Y0029300D02*
X0066900Y0029300D01*
X0066900Y0039300D02*
X0061700Y0039300D01*
X0061700Y0049300D02*
X0066900Y0049300D01*
X0066900Y0059300D02*
X0061700Y0059300D01*
X0061700Y0069300D02*
X0066900Y0069300D01*
X0066900Y0079300D02*
X0061700Y0079300D01*
X0061700Y0089300D02*
X0066900Y0089300D01*
X0141700Y0084300D02*
X0146900Y0084300D01*
X0146900Y0074300D02*
X0141700Y0074300D01*
X0141700Y0064300D02*
X0146900Y0064300D01*
X0146900Y0054300D02*
X0141700Y0054300D01*
X0141700Y0044300D02*
X0146900Y0044300D01*
X0146900Y0034300D02*
X0141700Y0034300D01*
X0141700Y0024300D02*
X0146900Y0024300D01*
X0171700Y0024300D02*
X0176900Y0024300D01*
X0176900Y0034300D02*
X0171700Y0034300D01*
X0171700Y0044300D02*
X0176900Y0044300D01*
X0176900Y0054300D02*
X0171700Y0054300D01*
X0171700Y0064300D02*
X0176900Y0064300D01*
X0176900Y0074300D02*
X0171700Y0074300D01*
X0171700Y0084300D02*
X0176900Y0084300D01*
X0226700Y0114300D02*
X0231900Y0114300D01*
X0231900Y0124300D02*
X0226700Y0124300D01*
X0226700Y0134300D02*
X0231900Y0134300D01*
X0231900Y0144300D02*
X0226700Y0144300D01*
X0256700Y0144300D02*
X0261900Y0144300D01*
X0261900Y0134300D02*
X0256700Y0134300D01*
X0256700Y0124300D02*
X0261900Y0124300D01*
X0261900Y0114300D02*
X0256700Y0114300D01*
X0256900Y0089300D02*
X0251700Y0089300D01*
X0251700Y0079300D02*
X0256900Y0079300D01*
X0256900Y0069300D02*
X0251700Y0069300D01*
X0251700Y0059300D02*
X0256900Y0059300D01*
X0256900Y0049300D02*
X0251700Y0049300D01*
X0251700Y0039300D02*
X0256900Y0039300D01*
X0256900Y0029300D02*
X0251700Y0029300D01*
X0281700Y0029300D02*
X0286900Y0029300D01*
X0286900Y0039300D02*
X0281700Y0039300D01*
X0281700Y0049300D02*
X0286900Y0049300D01*
X0286900Y0059300D02*
X0281700Y0059300D01*
X0281700Y0069300D02*
X0286900Y0069300D01*
X0286900Y0079300D02*
X0281700Y0079300D01*
X0281700Y0089300D02*
X0286900Y0089300D01*
D14*
X0259300Y0181300D02*
X0259300Y0187300D01*
X0249300Y0187300D02*
X0249300Y0181300D01*
X0239300Y0181300D02*
X0239300Y0187300D01*
D15*
X0006600Y0197000D02*
X0006600Y0006600D01*
X0397000Y0006600D01*
X0397000Y0197000D01*
X0006600Y0197000D01*
X0006600Y0196818D02*
X0397000Y0196818D01*
X0397000Y0195220D02*
X0006600Y0195220D01*
X0006600Y0193621D02*
X0397000Y0193621D01*
X0397000Y0192023D02*
X0382344Y0192023D01*
X0380951Y0192600D02*
X0377649Y0192600D01*
X0374598Y0191336D01*
X0372264Y0189002D01*
X0371000Y0185951D01*
X0371000Y0182649D01*
X0372264Y0179598D01*
X0374598Y0177264D01*
X0375844Y0176748D01*
X0375761Y0176665D01*
X0375125Y0175130D01*
X0375125Y0173470D01*
X0375761Y0171935D01*
X0376935Y0170761D01*
X0378470Y0170125D01*
X0380130Y0170125D01*
X0381665Y0170761D01*
X0382839Y0171935D01*
X0383475Y0173470D01*
X0383475Y0175130D01*
X0382839Y0176665D01*
X0382756Y0176748D01*
X0384002Y0177264D01*
X0386336Y0179598D01*
X0387600Y0182649D01*
X0387600Y0185951D01*
X0386336Y0189002D01*
X0384002Y0191336D01*
X0380951Y0192600D01*
X0384914Y0190424D02*
X0397000Y0190424D01*
X0397000Y0188826D02*
X0386409Y0188826D01*
X0387071Y0187227D02*
X0397000Y0187227D01*
X0397000Y0185629D02*
X0387600Y0185629D01*
X0387600Y0184030D02*
X0397000Y0184030D01*
X0397000Y0182432D02*
X0387510Y0182432D01*
X0386848Y0180833D02*
X0397000Y0180833D01*
X0397000Y0179235D02*
X0385973Y0179235D01*
X0384374Y0177636D02*
X0397000Y0177636D01*
X0397000Y0176038D02*
X0383099Y0176038D01*
X0383475Y0174439D02*
X0397000Y0174439D01*
X0397000Y0172841D02*
X0383214Y0172841D01*
X0382146Y0171242D02*
X0397000Y0171242D01*
X0397000Y0169644D02*
X0247866Y0169644D01*
X0248159Y0169765D02*
X0250659Y0172265D01*
X0251335Y0172941D01*
X0251700Y0173823D01*
X0251700Y0177315D01*
X0251906Y0177400D01*
X0253200Y0178694D01*
X0253900Y0180385D01*
X0253900Y0188215D01*
X0253200Y0189906D01*
X0251906Y0191200D01*
X0250215Y0191900D01*
X0248385Y0191900D01*
X0246694Y0191200D01*
X0245400Y0189906D01*
X0244700Y0188215D01*
X0244700Y0180385D01*
X0245400Y0178694D01*
X0246694Y0177400D01*
X0246900Y0177315D01*
X0246900Y0175294D01*
X0245806Y0174200D01*
X0176323Y0174200D01*
X0175441Y0173835D01*
X0174765Y0173159D01*
X0172265Y0170659D01*
X0171900Y0169777D01*
X0171900Y0147840D01*
X0170100Y0146040D01*
X0170100Y0142560D01*
X0171900Y0140760D01*
X0171900Y0127840D01*
X0170760Y0126700D01*
X0131323Y0126700D01*
X0130441Y0126335D01*
X0129765Y0125659D01*
X0127265Y0123159D01*
X0126900Y0122277D01*
X0126900Y0107840D01*
X0125100Y0106040D01*
X0125100Y0102560D01*
X0127560Y0100100D01*
X0131040Y0100100D01*
X0133500Y0102560D01*
X0133500Y0106040D01*
X0131700Y0107840D01*
X0131700Y0120806D01*
X0132794Y0121900D01*
X0170760Y0121900D01*
X0171900Y0120760D01*
X0171900Y0115294D01*
X0162941Y0106335D01*
X0162941Y0106335D01*
X0162265Y0105659D01*
X0161900Y0104777D01*
X0161900Y0076323D01*
X0162265Y0075441D01*
X0162941Y0074765D01*
X0165441Y0072265D01*
X0166323Y0071900D01*
X0168160Y0071900D01*
X0169321Y0070739D01*
X0170865Y0070100D01*
X0177735Y0070100D01*
X0179279Y0070739D01*
X0180461Y0071921D01*
X0181100Y0073465D01*
X0181100Y0075135D01*
X0180461Y0076679D01*
X0179279Y0077861D01*
X0177735Y0078500D01*
X0170865Y0078500D01*
X0169321Y0077861D01*
X0168160Y0076700D01*
X0167794Y0076700D01*
X0166700Y0077794D01*
X0166700Y0103306D01*
X0175659Y0112265D01*
X0176335Y0112941D01*
X0176700Y0113823D01*
X0176700Y0120760D01*
X0178500Y0122560D01*
X0178500Y0126040D01*
X0176700Y0127840D01*
X0176700Y0140760D01*
X0178500Y0142560D01*
X0178500Y0146040D01*
X0176700Y0147840D01*
X0176700Y0168306D01*
X0177794Y0169400D01*
X0247277Y0169400D01*
X0248159Y0169765D01*
X0249636Y0171242D02*
X0316454Y0171242D01*
X0316935Y0170761D02*
X0315761Y0171935D01*
X0315125Y0173470D01*
X0315125Y0175130D01*
X0315761Y0176665D01*
X0315844Y0176748D01*
X0314598Y0177264D01*
X0312264Y0179598D01*
X0311000Y0182649D01*
X0311000Y0185951D01*
X0312264Y0189002D01*
X0314598Y0191336D01*
X0317649Y0192600D01*
X0320951Y0192600D01*
X0324002Y0191336D01*
X0326336Y0189002D01*
X0327600Y0185951D01*
X0327600Y0182649D01*
X0326336Y0179598D01*
X0324002Y0177264D01*
X0322756Y0176748D01*
X0322839Y0176665D01*
X0323475Y0175130D01*
X0323475Y0173470D01*
X0322839Y0171935D01*
X0321665Y0170761D01*
X0320130Y0170125D01*
X0318470Y0170125D01*
X0316935Y0170761D01*
X0315386Y0172841D02*
X0251235Y0172841D01*
X0251700Y0174439D02*
X0315125Y0174439D01*
X0315501Y0176038D02*
X0251700Y0176038D01*
X0252142Y0177636D02*
X0256458Y0177636D01*
X0256694Y0177400D02*
X0258385Y0176700D01*
X0260215Y0176700D01*
X0261906Y0177400D01*
X0263200Y0178694D01*
X0263900Y0180385D01*
X0263900Y0188215D01*
X0263200Y0189906D01*
X0261906Y0191200D01*
X0260215Y0191900D01*
X0258385Y0191900D01*
X0256694Y0191200D01*
X0255400Y0189906D01*
X0254700Y0188215D01*
X0254700Y0180385D01*
X0255400Y0178694D01*
X0256694Y0177400D01*
X0255176Y0179235D02*
X0253424Y0179235D01*
X0253900Y0180833D02*
X0254700Y0180833D01*
X0254700Y0182432D02*
X0253900Y0182432D01*
X0253900Y0184030D02*
X0254700Y0184030D01*
X0254700Y0185629D02*
X0253900Y0185629D01*
X0253900Y0187227D02*
X0254700Y0187227D01*
X0254953Y0188826D02*
X0253647Y0188826D01*
X0252681Y0190424D02*
X0255919Y0190424D01*
X0262681Y0190424D02*
X0313686Y0190424D01*
X0312191Y0188826D02*
X0263647Y0188826D01*
X0263900Y0187227D02*
X0311529Y0187227D01*
X0311000Y0185629D02*
X0263900Y0185629D01*
X0263900Y0184030D02*
X0311000Y0184030D01*
X0311090Y0182432D02*
X0263900Y0182432D01*
X0263900Y0180833D02*
X0311752Y0180833D01*
X0312627Y0179235D02*
X0263424Y0179235D01*
X0262142Y0177636D02*
X0314226Y0177636D01*
X0323099Y0176038D02*
X0375501Y0176038D01*
X0375125Y0174439D02*
X0323475Y0174439D01*
X0323214Y0172841D02*
X0375386Y0172841D01*
X0376454Y0171242D02*
X0322146Y0171242D01*
X0321168Y0168045D02*
X0377014Y0168045D01*
X0377007Y0168042D02*
X0376450Y0167637D01*
X0375963Y0167150D01*
X0375558Y0166593D01*
X0375246Y0165979D01*
X0375033Y0165324D01*
X0374925Y0164644D01*
X0374925Y0164300D01*
X0379300Y0164300D01*
X0379300Y0164300D01*
X0379300Y0168675D01*
X0378956Y0168675D01*
X0378276Y0168567D01*
X0377621Y0168354D01*
X0377007Y0168042D01*
X0375484Y0166447D02*
X0322930Y0166447D01*
X0322839Y0166665D02*
X0323475Y0165130D01*
X0323475Y0163470D01*
X0322839Y0161935D01*
X0321665Y0160761D01*
X0320130Y0160125D01*
X0318470Y0160125D01*
X0316935Y0160761D01*
X0315761Y0161935D01*
X0315125Y0163470D01*
X0315125Y0165130D01*
X0315761Y0166665D01*
X0316935Y0167839D01*
X0318470Y0168475D01*
X0320130Y0168475D01*
X0321665Y0167839D01*
X0322839Y0166665D01*
X0323475Y0164848D02*
X0374957Y0164848D01*
X0374925Y0164300D02*
X0374925Y0163956D01*
X0375033Y0163276D01*
X0375246Y0162621D01*
X0375558Y0162007D01*
X0375963Y0161450D01*
X0376450Y0160963D01*
X0377007Y0160558D01*
X0377621Y0160246D01*
X0378276Y0160033D01*
X0378956Y0159925D01*
X0379300Y0159925D01*
X0379644Y0159925D01*
X0380324Y0160033D01*
X0380979Y0160246D01*
X0381593Y0160558D01*
X0382150Y0160963D01*
X0382637Y0161450D01*
X0383042Y0162007D01*
X0383354Y0162621D01*
X0383567Y0163276D01*
X0383675Y0163956D01*
X0383675Y0164300D01*
X0383675Y0164644D01*
X0383567Y0165324D01*
X0383354Y0165979D01*
X0383042Y0166593D01*
X0382637Y0167150D01*
X0382150Y0167637D01*
X0381593Y0168042D01*
X0380979Y0168354D01*
X0380324Y0168567D01*
X0379644Y0168675D01*
X0379300Y0168675D01*
X0379300Y0164300D01*
X0383675Y0164300D01*
X0379300Y0164300D01*
X0379300Y0164300D01*
X0379300Y0164300D01*
X0379300Y0159925D01*
X0379300Y0164300D01*
X0379300Y0164300D01*
X0374925Y0164300D01*
X0375041Y0163250D02*
X0323384Y0163250D01*
X0322555Y0161651D02*
X0375817Y0161651D01*
X0378215Y0160053D02*
X0281275Y0160053D01*
X0281123Y0159900D02*
X0283700Y0162477D01*
X0283700Y0164300D01*
X0283700Y0166123D01*
X0281123Y0168700D01*
X0279300Y0168700D01*
X0279300Y0164300D01*
X0283700Y0164300D01*
X0279300Y0164300D01*
X0279300Y0164300D01*
X0279300Y0164300D01*
X0279300Y0159900D01*
X0281123Y0159900D01*
X0279300Y0159900D02*
X0279300Y0164300D01*
X0279300Y0164300D01*
X0279300Y0164300D01*
X0274900Y0164300D01*
X0274900Y0166123D01*
X0277477Y0168700D01*
X0279300Y0168700D01*
X0279300Y0164300D01*
X0274900Y0164300D01*
X0274900Y0162477D01*
X0277477Y0159900D01*
X0279300Y0159900D01*
X0279300Y0160053D02*
X0279300Y0160053D01*
X0279300Y0161651D02*
X0279300Y0161651D01*
X0279300Y0163250D02*
X0279300Y0163250D01*
X0279300Y0164848D02*
X0279300Y0164848D01*
X0279300Y0166447D02*
X0279300Y0166447D01*
X0279300Y0168045D02*
X0279300Y0168045D01*
X0281777Y0168045D02*
X0317432Y0168045D01*
X0315670Y0166447D02*
X0283376Y0166447D01*
X0283700Y0164848D02*
X0315125Y0164848D01*
X0315216Y0163250D02*
X0283700Y0163250D01*
X0282874Y0161651D02*
X0316045Y0161651D01*
X0316935Y0157839D02*
X0315761Y0156665D01*
X0315125Y0155130D01*
X0315125Y0153470D01*
X0315761Y0151935D01*
X0316935Y0150761D01*
X0318470Y0150125D01*
X0320130Y0150125D01*
X0321665Y0150761D01*
X0322839Y0151935D01*
X0323475Y0153470D01*
X0323475Y0155130D01*
X0322839Y0156665D01*
X0321665Y0157839D01*
X0320130Y0158475D01*
X0318470Y0158475D01*
X0316935Y0157839D01*
X0315952Y0156856D02*
X0176700Y0156856D01*
X0176700Y0158454D02*
X0318420Y0158454D01*
X0320180Y0158454D02*
X0378420Y0158454D01*
X0378470Y0158475D02*
X0376935Y0157839D01*
X0375761Y0156665D01*
X0375125Y0155130D01*
X0375125Y0153470D01*
X0375761Y0151935D01*
X0376935Y0150761D01*
X0378470Y0150125D01*
X0380130Y0150125D01*
X0381665Y0150761D01*
X0382839Y0151935D01*
X0383475Y0153470D01*
X0383475Y0155130D01*
X0382839Y0156665D01*
X0381665Y0157839D01*
X0380130Y0158475D01*
X0378470Y0158475D01*
X0380180Y0158454D02*
X0397000Y0158454D01*
X0397000Y0156856D02*
X0382648Y0156856D01*
X0383422Y0155257D02*
X0397000Y0155257D01*
X0397000Y0153659D02*
X0383475Y0153659D01*
X0382891Y0152060D02*
X0397000Y0152060D01*
X0397000Y0150462D02*
X0380942Y0150462D01*
X0380130Y0148475D02*
X0378470Y0148475D01*
X0376935Y0147839D01*
X0375761Y0146665D01*
X0375125Y0145130D01*
X0375125Y0143470D01*
X0375761Y0141935D01*
X0376935Y0140761D01*
X0378470Y0140125D01*
X0380130Y0140125D01*
X0381665Y0140761D01*
X0382839Y0141935D01*
X0383475Y0143470D01*
X0383475Y0145130D01*
X0382839Y0146665D01*
X0381665Y0147839D01*
X0380130Y0148475D01*
X0382240Y0147265D02*
X0397000Y0147265D01*
X0397000Y0148863D02*
X0283500Y0148863D01*
X0283500Y0147560D02*
X0281040Y0145100D01*
X0277560Y0145100D01*
X0275100Y0147560D01*
X0275100Y0151040D01*
X0277560Y0153500D01*
X0281040Y0153500D01*
X0283500Y0151040D01*
X0283500Y0147560D01*
X0283204Y0147265D02*
X0316078Y0147265D01*
X0315963Y0147150D02*
X0315558Y0146593D01*
X0315246Y0145979D01*
X0315033Y0145324D01*
X0314925Y0144644D01*
X0314925Y0144300D01*
X0319300Y0144300D01*
X0319300Y0144300D01*
X0319300Y0148675D01*
X0318956Y0148675D01*
X0318276Y0148567D01*
X0317621Y0148354D01*
X0317007Y0148042D01*
X0316450Y0147637D01*
X0315963Y0147150D01*
X0315144Y0145666D02*
X0281606Y0145666D01*
X0276994Y0145666D02*
X0265880Y0145666D01*
X0266100Y0145135D02*
X0265461Y0146679D01*
X0264279Y0147861D01*
X0262735Y0148500D01*
X0255865Y0148500D01*
X0254321Y0147861D01*
X0253139Y0146679D01*
X0252500Y0145135D01*
X0252500Y0143465D01*
X0253139Y0141921D01*
X0254321Y0140739D01*
X0255865Y0140100D01*
X0262735Y0140100D01*
X0264279Y0140739D01*
X0265461Y0141921D01*
X0266100Y0143465D01*
X0266100Y0145135D01*
X0266100Y0144068D02*
X0314925Y0144068D01*
X0314925Y0143956D02*
X0315033Y0143276D01*
X0315246Y0142621D01*
X0315558Y0142007D01*
X0315963Y0141450D01*
X0316450Y0140963D01*
X0317007Y0140558D01*
X0317621Y0140246D01*
X0318276Y0140033D01*
X0318956Y0139925D01*
X0319300Y0139925D01*
X0319644Y0139925D01*
X0320324Y0140033D01*
X0320979Y0140246D01*
X0321593Y0140558D01*
X0322150Y0140963D01*
X0322637Y0141450D01*
X0323042Y0142007D01*
X0323354Y0142621D01*
X0323567Y0143276D01*
X0323675Y0143956D01*
X0323675Y0144300D01*
X0323675Y0144644D01*
X0323567Y0145324D01*
X0323354Y0145979D01*
X0323042Y0146593D01*
X0322637Y0147150D01*
X0322150Y0147637D01*
X0321593Y0148042D01*
X0320979Y0148354D01*
X0320324Y0148567D01*
X0319644Y0148675D01*
X0319300Y0148675D01*
X0319300Y0144300D01*
X0323675Y0144300D01*
X0319300Y0144300D01*
X0319300Y0144300D01*
X0319300Y0144300D01*
X0319300Y0139925D01*
X0319300Y0144300D01*
X0319300Y0144300D01*
X0314925Y0144300D01*
X0314925Y0143956D01*
X0315323Y0142469D02*
X0265688Y0142469D01*
X0264410Y0140870D02*
X0316577Y0140870D01*
X0319300Y0140870D02*
X0319300Y0140870D01*
X0319300Y0142469D02*
X0319300Y0142469D01*
X0319300Y0144068D02*
X0319300Y0144068D01*
X0319300Y0145666D02*
X0319300Y0145666D01*
X0319300Y0147265D02*
X0319300Y0147265D01*
X0322522Y0147265D02*
X0376360Y0147265D01*
X0375347Y0145666D02*
X0323456Y0145666D01*
X0323675Y0144068D02*
X0375125Y0144068D01*
X0375540Y0142469D02*
X0323277Y0142469D01*
X0322023Y0140870D02*
X0376825Y0140870D01*
X0378470Y0138475D02*
X0376935Y0137839D01*
X0375761Y0136665D01*
X0375125Y0135130D01*
X0375125Y0133470D01*
X0375761Y0131935D01*
X0376935Y0130761D01*
X0378470Y0130125D01*
X0380130Y0130125D01*
X0381665Y0130761D01*
X0382839Y0131935D01*
X0383475Y0133470D01*
X0383475Y0135130D01*
X0382839Y0136665D01*
X0381665Y0137839D01*
X0380130Y0138475D01*
X0378470Y0138475D01*
X0376769Y0137673D02*
X0321831Y0137673D01*
X0321665Y0137839D02*
X0320130Y0138475D01*
X0318470Y0138475D01*
X0316935Y0137839D01*
X0315796Y0136700D01*
X0265440Y0136700D01*
X0264279Y0137861D01*
X0262735Y0138500D01*
X0255865Y0138500D01*
X0254321Y0137861D01*
X0253139Y0136679D01*
X0252500Y0135135D01*
X0252500Y0133465D01*
X0253139Y0131921D01*
X0254321Y0130739D01*
X0255865Y0130100D01*
X0262735Y0130100D01*
X0264279Y0130739D01*
X0265440Y0131900D01*
X0276900Y0131900D01*
X0276900Y0112840D01*
X0275100Y0111040D01*
X0275100Y0107560D01*
X0276900Y0105760D01*
X0276900Y0105294D01*
X0275806Y0104200D01*
X0216323Y0104200D01*
X0215441Y0103835D01*
X0212941Y0101335D01*
X0212265Y0100659D01*
X0211900Y0099777D01*
X0211900Y0077840D01*
X0210100Y0076040D01*
X0210100Y0072560D01*
X0212560Y0070100D01*
X0216040Y0070100D01*
X0218500Y0072560D01*
X0218500Y0076040D01*
X0216700Y0077840D01*
X0216700Y0098306D01*
X0217794Y0099400D01*
X0277277Y0099400D01*
X0278159Y0099765D01*
X0278835Y0100441D01*
X0281335Y0102941D01*
X0281700Y0103823D01*
X0281700Y0105760D01*
X0283500Y0107560D01*
X0283500Y0111040D01*
X0281700Y0112840D01*
X0281700Y0131900D01*
X0315796Y0131900D01*
X0316935Y0130761D01*
X0318470Y0130125D01*
X0320130Y0130125D01*
X0321665Y0130761D01*
X0322839Y0131935D01*
X0323475Y0133470D01*
X0323475Y0135130D01*
X0322839Y0136665D01*
X0321665Y0137839D01*
X0323084Y0136075D02*
X0375516Y0136075D01*
X0375125Y0134476D02*
X0323475Y0134476D01*
X0323230Y0132878D02*
X0375370Y0132878D01*
X0376417Y0131279D02*
X0322183Y0131279D01*
X0320130Y0128475D02*
X0318470Y0128475D01*
X0316935Y0127839D01*
X0315796Y0126700D01*
X0301323Y0126700D01*
X0300441Y0126335D01*
X0299765Y0125659D01*
X0294765Y0120659D01*
X0294400Y0119777D01*
X0294400Y0082794D01*
X0293306Y0081700D01*
X0290440Y0081700D01*
X0289279Y0082861D01*
X0287735Y0083500D01*
X0280865Y0083500D01*
X0279321Y0082861D01*
X0278139Y0081679D01*
X0277500Y0080135D01*
X0277500Y0078465D01*
X0278139Y0076921D01*
X0279321Y0075739D01*
X0280865Y0075100D01*
X0287735Y0075100D01*
X0289279Y0075739D01*
X0290440Y0076900D01*
X0294777Y0076900D01*
X0295659Y0077265D01*
X0298159Y0079765D01*
X0298835Y0080441D01*
X0299200Y0081323D01*
X0299200Y0118306D01*
X0302794Y0121900D01*
X0315796Y0121900D01*
X0316935Y0120761D01*
X0318470Y0120125D01*
X0320130Y0120125D01*
X0321665Y0120761D01*
X0322839Y0121935D01*
X0323475Y0123470D01*
X0323475Y0125130D01*
X0322839Y0126665D01*
X0321665Y0127839D01*
X0320130Y0128475D01*
X0321078Y0128082D02*
X0377522Y0128082D01*
X0376935Y0127839D02*
X0375761Y0126665D01*
X0375125Y0125130D01*
X0375125Y0123470D01*
X0375761Y0121935D01*
X0376935Y0120761D01*
X0378470Y0120125D01*
X0380130Y0120125D01*
X0381665Y0120761D01*
X0382839Y0121935D01*
X0383475Y0123470D01*
X0383475Y0125130D01*
X0382839Y0126665D01*
X0381665Y0127839D01*
X0380130Y0128475D01*
X0378470Y0128475D01*
X0376935Y0127839D01*
X0375686Y0126484D02*
X0322914Y0126484D01*
X0323475Y0124885D02*
X0375125Y0124885D01*
X0375201Y0123287D02*
X0323399Y0123287D01*
X0322592Y0121688D02*
X0376008Y0121688D01*
X0376935Y0117839D02*
X0378470Y0118475D01*
X0380130Y0118475D01*
X0381665Y0117839D01*
X0382839Y0116665D01*
X0383475Y0115130D01*
X0383475Y0113470D01*
X0382839Y0111935D01*
X0381665Y0110761D01*
X0380130Y0110125D01*
X0378470Y0110125D01*
X0376935Y0110761D01*
X0375761Y0111935D01*
X0375125Y0113470D01*
X0375125Y0115130D01*
X0375761Y0116665D01*
X0376935Y0117839D01*
X0375989Y0116893D02*
X0322611Y0116893D01*
X0322839Y0116665D02*
X0321665Y0117839D01*
X0320130Y0118475D01*
X0318470Y0118475D01*
X0316935Y0117839D01*
X0315761Y0116665D01*
X0315125Y0115130D01*
X0315125Y0113470D01*
X0315761Y0111935D01*
X0316935Y0110761D01*
X0318470Y0110125D01*
X0320130Y0110125D01*
X0321665Y0110761D01*
X0322839Y0111935D01*
X0323475Y0113470D01*
X0323475Y0115130D01*
X0322839Y0116665D01*
X0323407Y0115294D02*
X0375193Y0115294D01*
X0375125Y0113696D02*
X0323475Y0113696D01*
X0322906Y0112097D02*
X0375694Y0112097D01*
X0377568Y0110499D02*
X0321032Y0110499D01*
X0320130Y0108475D02*
X0318470Y0108475D01*
X0316935Y0107839D01*
X0315761Y0106665D01*
X0315125Y0105130D01*
X0315125Y0103470D01*
X0315761Y0101935D01*
X0316935Y0100761D01*
X0318470Y0100125D01*
X0320130Y0100125D01*
X0321665Y0100761D01*
X0322839Y0101935D01*
X0323475Y0103470D01*
X0323475Y0105130D01*
X0322839Y0106665D01*
X0321665Y0107839D01*
X0320130Y0108475D01*
X0322202Y0107302D02*
X0376398Y0107302D01*
X0376935Y0107839D02*
X0375761Y0106665D01*
X0375125Y0105130D01*
X0375125Y0103470D01*
X0375761Y0101935D01*
X0376935Y0100761D01*
X0378470Y0100125D01*
X0380130Y0100125D01*
X0381665Y0100761D01*
X0382839Y0101935D01*
X0383475Y0103470D01*
X0383475Y0105130D01*
X0382839Y0106665D01*
X0381665Y0107839D01*
X0380130Y0108475D01*
X0378470Y0108475D01*
X0376935Y0107839D01*
X0375362Y0105703D02*
X0323238Y0105703D01*
X0323475Y0104105D02*
X0375125Y0104105D01*
X0375524Y0102506D02*
X0323076Y0102506D01*
X0321812Y0100908D02*
X0376788Y0100908D01*
X0378470Y0098475D02*
X0376935Y0097839D01*
X0375761Y0096665D01*
X0375125Y0095130D01*
X0375125Y0093470D01*
X0375761Y0091935D01*
X0376935Y0090761D01*
X0378470Y0090125D01*
X0380130Y0090125D01*
X0381665Y0090761D01*
X0382839Y0091935D01*
X0383475Y0093470D01*
X0383475Y0095130D01*
X0382839Y0096665D01*
X0381665Y0097839D01*
X0380130Y0098475D01*
X0378470Y0098475D01*
X0376807Y0097711D02*
X0321793Y0097711D01*
X0321665Y0097839D02*
X0322839Y0096665D01*
X0323475Y0095130D01*
X0323475Y0093470D01*
X0322839Y0091935D01*
X0321665Y0090761D01*
X0320130Y0090125D01*
X0318470Y0090125D01*
X0316935Y0090761D01*
X0315761Y0091935D01*
X0315125Y0093470D01*
X0315125Y0095130D01*
X0315761Y0096665D01*
X0316935Y0097839D01*
X0318470Y0098475D01*
X0320130Y0098475D01*
X0321665Y0097839D01*
X0323068Y0096112D02*
X0375532Y0096112D01*
X0375125Y0094514D02*
X0323475Y0094514D01*
X0323245Y0092915D02*
X0375355Y0092915D01*
X0376379Y0091317D02*
X0322221Y0091317D01*
X0320988Y0088120D02*
X0377612Y0088120D01*
X0376935Y0087839D02*
X0375761Y0086665D01*
X0375125Y0085130D01*
X0375125Y0083470D01*
X0375761Y0081935D01*
X0376935Y0080761D01*
X0378470Y0080125D01*
X0380130Y0080125D01*
X0381665Y0080761D01*
X0382839Y0081935D01*
X0383475Y0083470D01*
X0383475Y0085130D01*
X0382839Y0086665D01*
X0381665Y0087839D01*
X0380130Y0088475D01*
X0378470Y0088475D01*
X0376935Y0087839D01*
X0375701Y0086521D02*
X0322899Y0086521D01*
X0322839Y0086665D02*
X0321665Y0087839D01*
X0320130Y0088475D01*
X0318470Y0088475D01*
X0316935Y0087839D01*
X0315761Y0086665D01*
X0315125Y0085130D01*
X0315125Y0083470D01*
X0315761Y0081935D01*
X0316935Y0080761D01*
X0318470Y0080125D01*
X0320130Y0080125D01*
X0321665Y0080761D01*
X0322839Y0081935D01*
X0323475Y0083470D01*
X0323475Y0085130D01*
X0322839Y0086665D01*
X0323475Y0084923D02*
X0375125Y0084923D01*
X0375185Y0083324D02*
X0323415Y0083324D01*
X0322630Y0081726D02*
X0375970Y0081726D01*
X0378465Y0080127D02*
X0320135Y0080127D01*
X0320130Y0078475D02*
X0318470Y0078475D01*
X0316935Y0077839D01*
X0315761Y0076665D01*
X0315125Y0075130D01*
X0315125Y0073470D01*
X0315761Y0071935D01*
X0316935Y0070761D01*
X0318470Y0070125D01*
X0320130Y0070125D01*
X0321665Y0070761D01*
X0322839Y0071935D01*
X0323475Y0073470D01*
X0323475Y0075130D01*
X0322839Y0076665D01*
X0321665Y0077839D01*
X0320130Y0078475D01*
X0318465Y0080127D02*
X0298521Y0080127D01*
X0299200Y0081726D02*
X0315970Y0081726D01*
X0315185Y0083324D02*
X0299200Y0083324D01*
X0299200Y0084923D02*
X0315125Y0084923D01*
X0315701Y0086521D02*
X0299200Y0086521D01*
X0299200Y0088120D02*
X0317612Y0088120D01*
X0316379Y0091317D02*
X0299200Y0091317D01*
X0299200Y0092915D02*
X0315355Y0092915D01*
X0315125Y0094514D02*
X0299200Y0094514D01*
X0299200Y0096112D02*
X0315532Y0096112D01*
X0316807Y0097711D02*
X0299200Y0097711D01*
X0299200Y0099309D02*
X0397000Y0099309D01*
X0397000Y0097711D02*
X0381793Y0097711D01*
X0383068Y0096112D02*
X0397000Y0096112D01*
X0397000Y0094514D02*
X0383475Y0094514D01*
X0383245Y0092915D02*
X0397000Y0092915D01*
X0397000Y0091317D02*
X0382221Y0091317D01*
X0380988Y0088120D02*
X0397000Y0088120D01*
X0397000Y0089718D02*
X0299200Y0089718D01*
X0294400Y0089718D02*
X0291289Y0089718D01*
X0291300Y0089646D02*
X0291192Y0090330D01*
X0290978Y0090989D01*
X0290663Y0091606D01*
X0290256Y0092166D01*
X0289766Y0092656D01*
X0289206Y0093063D01*
X0288589Y0093378D01*
X0287930Y0093592D01*
X0287246Y0093700D01*
X0284300Y0093700D01*
X0284300Y0089300D01*
X0284300Y0089300D01*
X0291300Y0089300D01*
X0291300Y0089646D01*
X0291300Y0089300D02*
X0284300Y0089300D01*
X0284300Y0089300D01*
X0284300Y0093700D01*
X0281354Y0093700D01*
X0280670Y0093592D01*
X0280011Y0093378D01*
X0279394Y0093063D01*
X0278834Y0092656D01*
X0278344Y0092166D01*
X0277937Y0091606D01*
X0277622Y0090989D01*
X0277408Y0090330D01*
X0277300Y0089646D01*
X0277300Y0089300D01*
X0284300Y0089300D01*
X0284300Y0084900D01*
X0287246Y0084900D01*
X0287930Y0085008D01*
X0288589Y0085222D01*
X0289206Y0085537D01*
X0289766Y0085944D01*
X0290256Y0086434D01*
X0290663Y0086994D01*
X0290978Y0087611D01*
X0291192Y0088270D01*
X0291300Y0088954D01*
X0291300Y0089300D01*
X0291143Y0088120D02*
X0294400Y0088120D01*
X0294400Y0086521D02*
X0290320Y0086521D01*
X0287389Y0084923D02*
X0294400Y0084923D01*
X0294400Y0083324D02*
X0288160Y0083324D01*
X0290414Y0081726D02*
X0293331Y0081726D01*
X0294300Y0079300D02*
X0296800Y0081800D01*
X0296800Y0119300D01*
X0301800Y0124300D01*
X0319300Y0124300D01*
X0317522Y0128082D02*
X0281700Y0128082D01*
X0281700Y0126484D02*
X0300801Y0126484D01*
X0298991Y0124885D02*
X0281700Y0124885D01*
X0281700Y0123287D02*
X0297393Y0123287D01*
X0295794Y0121688D02*
X0281700Y0121688D01*
X0281700Y0120090D02*
X0294529Y0120090D01*
X0294400Y0118491D02*
X0281700Y0118491D01*
X0281700Y0116893D02*
X0294400Y0116893D01*
X0294400Y0115294D02*
X0281700Y0115294D01*
X0281700Y0113696D02*
X0294400Y0113696D01*
X0294400Y0112097D02*
X0282442Y0112097D01*
X0283500Y0110499D02*
X0294400Y0110499D01*
X0294400Y0108900D02*
X0283500Y0108900D01*
X0283241Y0107302D02*
X0294400Y0107302D01*
X0294400Y0105703D02*
X0281700Y0105703D01*
X0281700Y0104105D02*
X0294400Y0104105D01*
X0294400Y0102506D02*
X0280900Y0102506D01*
X0279302Y0100908D02*
X0294400Y0100908D01*
X0294400Y0099309D02*
X0217703Y0099309D01*
X0216700Y0097711D02*
X0294400Y0097711D01*
X0294400Y0096112D02*
X0216700Y0096112D01*
X0216700Y0094514D02*
X0294400Y0094514D01*
X0294400Y0092915D02*
X0289410Y0092915D01*
X0290811Y0091317D02*
X0294400Y0091317D01*
X0284300Y0091317D02*
X0284300Y0091317D01*
X0284300Y0092915D02*
X0284300Y0092915D01*
X0284300Y0089718D02*
X0284300Y0089718D01*
X0284300Y0089300D02*
X0284300Y0089300D01*
X0284300Y0089300D01*
X0284300Y0084900D01*
X0281354Y0084900D01*
X0280670Y0085008D01*
X0280011Y0085222D01*
X0279394Y0085537D01*
X0278834Y0085944D01*
X0278344Y0086434D01*
X0277937Y0086994D01*
X0277622Y0087611D01*
X0277408Y0088270D01*
X0277300Y0088954D01*
X0277300Y0089300D01*
X0284300Y0089300D01*
X0284300Y0088120D02*
X0284300Y0088120D01*
X0284300Y0086521D02*
X0284300Y0086521D01*
X0284300Y0084923D02*
X0284300Y0084923D01*
X0281211Y0084923D02*
X0241700Y0084923D01*
X0241700Y0085760D02*
X0242840Y0086900D01*
X0248160Y0086900D01*
X0249321Y0085739D01*
X0250865Y0085100D01*
X0257735Y0085100D01*
X0259279Y0085739D01*
X0260461Y0086921D01*
X0261100Y0088465D01*
X0261100Y0090135D01*
X0260461Y0091679D01*
X0259279Y0092861D01*
X0257735Y0093500D01*
X0250865Y0093500D01*
X0249321Y0092861D01*
X0248160Y0091700D01*
X0242840Y0091700D01*
X0241040Y0093500D01*
X0237560Y0093500D01*
X0235100Y0091040D01*
X0235100Y0087560D01*
X0236900Y0085760D01*
X0236900Y0070294D01*
X0233306Y0066700D01*
X0192840Y0066700D01*
X0191040Y0068500D01*
X0187560Y0068500D01*
X0185760Y0066700D01*
X0180440Y0066700D01*
X0179279Y0067861D01*
X0177735Y0068500D01*
X0170865Y0068500D01*
X0169321Y0067861D01*
X0168139Y0066679D01*
X0167500Y0065135D01*
X0167500Y0063465D01*
X0168139Y0061921D01*
X0169321Y0060739D01*
X0170865Y0060100D01*
X0177735Y0060100D01*
X0179279Y0060739D01*
X0180440Y0061900D01*
X0185760Y0061900D01*
X0187560Y0060100D01*
X0191040Y0060100D01*
X0192840Y0061900D01*
X0234777Y0061900D01*
X0235659Y0062265D01*
X0241335Y0067941D01*
X0241700Y0068823D01*
X0241700Y0085760D01*
X0242461Y0086521D02*
X0248539Y0086521D01*
X0249321Y0082861D02*
X0250865Y0083500D01*
X0257735Y0083500D01*
X0259279Y0082861D01*
X0260461Y0081679D01*
X0261100Y0080135D01*
X0261100Y0078465D01*
X0260461Y0076921D01*
X0259279Y0075739D01*
X0257735Y0075100D01*
X0250865Y0075100D01*
X0249321Y0075739D01*
X0248139Y0076921D01*
X0247500Y0078465D01*
X0247500Y0080135D01*
X0248139Y0081679D01*
X0249321Y0082861D01*
X0250440Y0083324D02*
X0241700Y0083324D01*
X0241700Y0081726D02*
X0248186Y0081726D01*
X0247500Y0080127D02*
X0241700Y0080127D01*
X0241700Y0078529D02*
X0247500Y0078529D01*
X0248136Y0076930D02*
X0241700Y0076930D01*
X0241700Y0075332D02*
X0250306Y0075332D01*
X0250865Y0073500D02*
X0249321Y0072861D01*
X0248139Y0071679D01*
X0247500Y0070135D01*
X0247500Y0068465D01*
X0248139Y0066921D01*
X0249321Y0065739D01*
X0250865Y0065100D01*
X0257735Y0065100D01*
X0259279Y0065739D01*
X0260461Y0066921D01*
X0261100Y0068465D01*
X0261100Y0070135D01*
X0260461Y0071679D01*
X0259279Y0072861D01*
X0257735Y0073500D01*
X0250865Y0073500D01*
X0248595Y0072134D02*
X0241700Y0072134D01*
X0241700Y0070536D02*
X0247666Y0070536D01*
X0247500Y0068937D02*
X0241700Y0068937D01*
X0240733Y0067339D02*
X0247966Y0067339D01*
X0249320Y0065740D02*
X0239135Y0065740D01*
X0237536Y0064142D02*
X0304400Y0064142D01*
X0304400Y0065740D02*
X0289280Y0065740D01*
X0289279Y0065739D02*
X0290440Y0066900D01*
X0303306Y0066900D01*
X0304400Y0065806D01*
X0304400Y0038823D01*
X0304765Y0037941D01*
X0309765Y0032941D01*
X0310441Y0032265D01*
X0311323Y0031900D01*
X0315796Y0031900D01*
X0315844Y0031852D01*
X0314598Y0031336D01*
X0312264Y0029002D01*
X0311000Y0025951D01*
X0311000Y0022649D01*
X0312264Y0019598D01*
X0314598Y0017264D01*
X0317649Y0016000D01*
X0320951Y0016000D01*
X0324002Y0017264D01*
X0326336Y0019598D01*
X0327600Y0022649D01*
X0327600Y0025951D01*
X0326336Y0029002D01*
X0324002Y0031336D01*
X0322756Y0031852D01*
X0322839Y0031935D01*
X0323475Y0033470D01*
X0323475Y0035130D01*
X0322839Y0036665D01*
X0321665Y0037839D01*
X0320130Y0038475D01*
X0318470Y0038475D01*
X0316935Y0037839D01*
X0315796Y0036700D01*
X0312794Y0036700D01*
X0309200Y0040294D01*
X0309200Y0067277D01*
X0308835Y0068159D01*
X0306335Y0070659D01*
X0305659Y0071335D01*
X0304777Y0071700D01*
X0290440Y0071700D01*
X0289279Y0072861D01*
X0287735Y0073500D01*
X0280865Y0073500D01*
X0279321Y0072861D01*
X0278139Y0071679D01*
X0277500Y0070135D01*
X0277500Y0068465D01*
X0278139Y0066921D01*
X0279321Y0065739D01*
X0280865Y0065100D01*
X0287735Y0065100D01*
X0289279Y0065739D01*
X0287735Y0063500D02*
X0280865Y0063500D01*
X0279321Y0062861D01*
X0278139Y0061679D01*
X0277500Y0060135D01*
X0277500Y0058465D01*
X0278139Y0056921D01*
X0279321Y0055739D01*
X0280865Y0055100D01*
X0287735Y0055100D01*
X0289279Y0055739D01*
X0290461Y0056921D01*
X0291100Y0058465D01*
X0291100Y0060135D01*
X0290461Y0061679D01*
X0289279Y0062861D01*
X0287735Y0063500D01*
X0289596Y0062543D02*
X0304400Y0062543D01*
X0304400Y0060945D02*
X0290765Y0060945D01*
X0291100Y0059346D02*
X0304400Y0059346D01*
X0304400Y0057748D02*
X0290803Y0057748D01*
X0289689Y0056149D02*
X0304400Y0056149D01*
X0304400Y0054551D02*
X0181300Y0054551D01*
X0181300Y0054646D02*
X0181192Y0055330D01*
X0180978Y0055989D01*
X0180663Y0056606D01*
X0180256Y0057166D01*
X0179766Y0057656D01*
X0179206Y0058063D01*
X0178589Y0058378D01*
X0177930Y0058592D01*
X0177246Y0058700D01*
X0174300Y0058700D01*
X0174300Y0054300D01*
X0174300Y0054300D01*
X0181300Y0054300D01*
X0181300Y0054646D01*
X0181300Y0054300D02*
X0174300Y0054300D01*
X0174300Y0054300D01*
X0174300Y0049900D01*
X0177246Y0049900D01*
X0177930Y0050008D01*
X0178589Y0050222D01*
X0179206Y0050537D01*
X0179766Y0050944D01*
X0180256Y0051434D01*
X0180663Y0051994D01*
X0180978Y0052611D01*
X0181192Y0053270D01*
X0181300Y0053954D01*
X0181300Y0054300D01*
X0181089Y0052952D02*
X0237013Y0052952D01*
X0237560Y0053500D02*
X0235100Y0051040D01*
X0235100Y0047560D01*
X0237560Y0045100D01*
X0240106Y0045100D01*
X0242941Y0042265D01*
X0243823Y0041900D01*
X0248360Y0041900D01*
X0248139Y0041679D01*
X0247500Y0040135D01*
X0247500Y0038465D01*
X0248139Y0036921D01*
X0249321Y0035739D01*
X0250865Y0035100D01*
X0257735Y0035100D01*
X0259279Y0035739D01*
X0260461Y0036921D01*
X0261100Y0038465D01*
X0261100Y0040135D01*
X0260461Y0041679D01*
X0260240Y0041900D01*
X0267277Y0041900D01*
X0268159Y0042265D01*
X0268835Y0042941D01*
X0272794Y0046900D01*
X0278160Y0046900D01*
X0279321Y0045739D01*
X0280865Y0045100D01*
X0281900Y0045100D01*
X0281900Y0043500D01*
X0280865Y0043500D01*
X0279321Y0042861D01*
X0278139Y0041679D01*
X0277500Y0040135D01*
X0277500Y0038465D01*
X0278139Y0036921D01*
X0279321Y0035739D01*
X0280865Y0035100D01*
X0287735Y0035100D01*
X0289279Y0035739D01*
X0290461Y0036921D01*
X0291100Y0038465D01*
X0291100Y0040135D01*
X0290461Y0041679D01*
X0289279Y0042861D01*
X0287735Y0043500D01*
X0286700Y0043500D01*
X0286700Y0045100D01*
X0287735Y0045100D01*
X0289279Y0045739D01*
X0290461Y0046921D01*
X0291100Y0048465D01*
X0291100Y0050135D01*
X0290461Y0051679D01*
X0289279Y0052861D01*
X0287735Y0053500D01*
X0280865Y0053500D01*
X0279321Y0052861D01*
X0278160Y0051700D01*
X0271323Y0051700D01*
X0270441Y0051335D01*
X0265806Y0046700D01*
X0260240Y0046700D01*
X0260461Y0046921D01*
X0261100Y0048465D01*
X0261100Y0050135D01*
X0260461Y0051679D01*
X0259279Y0052861D01*
X0257735Y0053500D01*
X0250865Y0053500D01*
X0249321Y0052861D01*
X0248139Y0051679D01*
X0247500Y0050135D01*
X0247500Y0048465D01*
X0248139Y0046921D01*
X0248360Y0046700D01*
X0245294Y0046700D01*
X0243500Y0048494D01*
X0243500Y0051040D01*
X0241040Y0053500D01*
X0237560Y0053500D01*
X0235414Y0051354D02*
X0180176Y0051354D01*
X0174300Y0051354D02*
X0174300Y0051354D01*
X0174300Y0049900D02*
X0171354Y0049900D01*
X0170670Y0050008D01*
X0170011Y0050222D01*
X0169394Y0050537D01*
X0168834Y0050944D01*
X0168344Y0051434D01*
X0167937Y0051994D01*
X0167622Y0052611D01*
X0167408Y0053270D01*
X0167300Y0053954D01*
X0167300Y0054300D01*
X0174300Y0054300D01*
X0174300Y0054300D01*
X0174300Y0054300D01*
X0174300Y0058700D01*
X0171354Y0058700D01*
X0170670Y0058592D01*
X0170011Y0058378D01*
X0169394Y0058063D01*
X0168834Y0057656D01*
X0168344Y0057166D01*
X0167937Y0056606D01*
X0167622Y0055989D01*
X0167408Y0055330D01*
X0167300Y0054646D01*
X0167300Y0054300D01*
X0174300Y0054300D01*
X0174300Y0049900D01*
X0177735Y0048500D02*
X0170865Y0048500D01*
X0169321Y0047861D01*
X0168139Y0046679D01*
X0167500Y0045135D01*
X0167500Y0043465D01*
X0168139Y0041921D01*
X0169321Y0040739D01*
X0170865Y0040100D01*
X0177735Y0040100D01*
X0179279Y0040739D01*
X0180461Y0041921D01*
X0181100Y0043465D01*
X0181100Y0045135D01*
X0180461Y0046679D01*
X0179279Y0047861D01*
X0177735Y0048500D01*
X0178564Y0048157D02*
X0235100Y0048157D01*
X0235100Y0049755D02*
X0076700Y0049755D01*
X0076700Y0048157D02*
X0140036Y0048157D01*
X0139321Y0047861D02*
X0138139Y0046679D01*
X0137500Y0045135D01*
X0137500Y0043465D01*
X0138139Y0041921D01*
X0139321Y0040739D01*
X0140865Y0040100D01*
X0147735Y0040100D01*
X0149279Y0040739D01*
X0150461Y0041921D01*
X0151100Y0043465D01*
X0151100Y0045135D01*
X0150461Y0046679D01*
X0149279Y0047861D01*
X0147735Y0048500D01*
X0140865Y0048500D01*
X0139321Y0047861D01*
X0138089Y0046558D02*
X0076700Y0046558D01*
X0076700Y0044960D02*
X0137500Y0044960D01*
X0137543Y0043361D02*
X0076700Y0043361D01*
X0076700Y0041763D02*
X0138298Y0041763D01*
X0140709Y0040164D02*
X0076700Y0040164D01*
X0076700Y0038566D02*
X0247500Y0038566D01*
X0247512Y0040164D02*
X0177891Y0040164D01*
X0177735Y0038500D02*
X0179279Y0037861D01*
X0180461Y0036679D01*
X0181100Y0035135D01*
X0181100Y0033465D01*
X0180461Y0031921D01*
X0179279Y0030739D01*
X0177735Y0030100D01*
X0170865Y0030100D01*
X0169321Y0030739D01*
X0168139Y0031921D01*
X0167500Y0033465D01*
X0167500Y0035135D01*
X0168139Y0036679D01*
X0169321Y0037861D01*
X0170865Y0038500D01*
X0177735Y0038500D01*
X0180172Y0036967D02*
X0248120Y0036967D01*
X0250216Y0035369D02*
X0181003Y0035369D01*
X0181100Y0033770D02*
X0308936Y0033770D01*
X0307337Y0035369D02*
X0288384Y0035369D01*
X0287735Y0033500D02*
X0280865Y0033500D01*
X0279321Y0032861D01*
X0278139Y0031679D01*
X0277500Y0030135D01*
X0277500Y0028465D01*
X0278139Y0026921D01*
X0279321Y0025739D01*
X0280865Y0025100D01*
X0287735Y0025100D01*
X0289279Y0025739D01*
X0290461Y0026921D01*
X0291100Y0028465D01*
X0291100Y0030135D01*
X0290461Y0031679D01*
X0289279Y0032861D01*
X0287735Y0033500D01*
X0289968Y0032172D02*
X0310667Y0032172D01*
X0311800Y0034300D02*
X0319300Y0034300D01*
X0323475Y0033770D02*
X0375125Y0033770D01*
X0375125Y0032172D02*
X0322937Y0032172D01*
X0324765Y0030573D02*
X0373835Y0030573D01*
X0374598Y0031336D02*
X0372264Y0029002D01*
X0371000Y0025951D01*
X0371000Y0022649D01*
X0372264Y0019598D01*
X0374598Y0017264D01*
X0377649Y0016000D01*
X0380951Y0016000D01*
X0384002Y0017264D01*
X0386336Y0019598D01*
X0387600Y0022649D01*
X0387600Y0025951D01*
X0386336Y0029002D01*
X0384002Y0031336D01*
X0383475Y0031555D01*
X0383475Y0037538D01*
X0382538Y0038475D01*
X0376062Y0038475D01*
X0375125Y0037538D01*
X0375125Y0031555D01*
X0374598Y0031336D01*
X0372252Y0028975D02*
X0326348Y0028975D01*
X0327010Y0027376D02*
X0371590Y0027376D01*
X0371000Y0025778D02*
X0327600Y0025778D01*
X0327600Y0024179D02*
X0371000Y0024179D01*
X0371028Y0022581D02*
X0327572Y0022581D01*
X0326910Y0020982D02*
X0371690Y0020982D01*
X0372478Y0019384D02*
X0326122Y0019384D01*
X0324523Y0017785D02*
X0374077Y0017785D01*
X0377199Y0016187D02*
X0321401Y0016187D01*
X0317199Y0016187D02*
X0006600Y0016187D01*
X0006600Y0017785D02*
X0314077Y0017785D01*
X0312478Y0019384D02*
X0006600Y0019384D01*
X0006600Y0020982D02*
X0139078Y0020982D01*
X0139321Y0020739D02*
X0140865Y0020100D01*
X0147735Y0020100D01*
X0149279Y0020739D01*
X0150461Y0021921D01*
X0151100Y0023465D01*
X0151100Y0025135D01*
X0150461Y0026679D01*
X0149279Y0027861D01*
X0147735Y0028500D01*
X0140865Y0028500D01*
X0139321Y0027861D01*
X0138139Y0026679D01*
X0137500Y0025135D01*
X0137500Y0023465D01*
X0138139Y0021921D01*
X0139321Y0020739D01*
X0137866Y0022581D02*
X0006600Y0022581D01*
X0006600Y0024179D02*
X0137500Y0024179D01*
X0137766Y0025778D02*
X0069317Y0025778D01*
X0069279Y0025739D02*
X0070440Y0026900D01*
X0072277Y0026900D01*
X0073159Y0027265D01*
X0075659Y0029765D01*
X0076335Y0030441D01*
X0076700Y0031323D01*
X0076700Y0087277D01*
X0076335Y0088159D01*
X0073835Y0090659D01*
X0073159Y0091335D01*
X0072277Y0091700D01*
X0070440Y0091700D01*
X0069279Y0092861D01*
X0067735Y0093500D01*
X0060865Y0093500D01*
X0059321Y0092861D01*
X0058160Y0091700D01*
X0055294Y0091700D01*
X0024200Y0122794D01*
X0024200Y0131900D01*
X0028160Y0131900D01*
X0029321Y0130739D01*
X0030865Y0130100D01*
X0037735Y0130100D01*
X0039279Y0130739D01*
X0040440Y0131900D01*
X0058160Y0131900D01*
X0059321Y0130739D01*
X0060865Y0130100D01*
X0067735Y0130100D01*
X0069279Y0130739D01*
X0070461Y0131921D01*
X0071100Y0133465D01*
X0071100Y0135135D01*
X0070461Y0136679D01*
X0069279Y0137861D01*
X0067735Y0138500D01*
X0060865Y0138500D01*
X0059321Y0137861D01*
X0058160Y0136700D01*
X0040440Y0136700D01*
X0039279Y0137861D01*
X0037735Y0138500D01*
X0030865Y0138500D01*
X0029321Y0137861D01*
X0028160Y0136700D01*
X0024200Y0136700D01*
X0024200Y0170806D01*
X0025294Y0171900D01*
X0028160Y0171900D01*
X0029321Y0170739D01*
X0030865Y0170100D01*
X0037735Y0170100D01*
X0039279Y0170739D01*
X0040440Y0171900D01*
X0058160Y0171900D01*
X0059321Y0170739D01*
X0060865Y0170100D01*
X0067735Y0170100D01*
X0069279Y0170739D01*
X0070461Y0171921D01*
X0071100Y0173465D01*
X0071100Y0175135D01*
X0070461Y0176679D01*
X0069279Y0177861D01*
X0067735Y0178500D01*
X0060865Y0178500D01*
X0059321Y0177861D01*
X0058160Y0176700D01*
X0040440Y0176700D01*
X0039279Y0177861D01*
X0037735Y0178500D01*
X0036700Y0178500D01*
X0036700Y0180100D01*
X0037735Y0180100D01*
X0039279Y0180739D01*
X0040461Y0181921D01*
X0041100Y0183465D01*
X0041100Y0185135D01*
X0040461Y0186679D01*
X0039279Y0187861D01*
X0037735Y0188500D01*
X0030865Y0188500D01*
X0029321Y0187861D01*
X0028139Y0186679D01*
X0027500Y0185135D01*
X0027500Y0183465D01*
X0028139Y0181921D01*
X0029321Y0180739D01*
X0030865Y0180100D01*
X0031900Y0180100D01*
X0031900Y0178500D01*
X0030865Y0178500D01*
X0029321Y0177861D01*
X0028160Y0176700D01*
X0023823Y0176700D01*
X0022941Y0176335D01*
X0022265Y0175659D01*
X0019765Y0173159D01*
X0019400Y0172277D01*
X0019400Y0121323D01*
X0019765Y0120441D01*
X0020441Y0119765D01*
X0052941Y0087265D01*
X0053823Y0086900D01*
X0058160Y0086900D01*
X0059321Y0085739D01*
X0060865Y0085100D01*
X0067735Y0085100D01*
X0069279Y0085739D01*
X0070440Y0086900D01*
X0070806Y0086900D01*
X0071900Y0085806D01*
X0071900Y0032794D01*
X0070806Y0031700D01*
X0070440Y0031700D01*
X0069279Y0032861D01*
X0067735Y0033500D01*
X0060865Y0033500D01*
X0059321Y0032861D01*
X0058160Y0031700D01*
X0040440Y0031700D01*
X0039279Y0032861D01*
X0037735Y0033500D01*
X0030865Y0033500D01*
X0029321Y0032861D01*
X0028139Y0031679D01*
X0027500Y0030135D01*
X0027500Y0028465D01*
X0028139Y0026921D01*
X0029321Y0025739D01*
X0030865Y0025100D01*
X0037735Y0025100D01*
X0039279Y0025739D01*
X0040440Y0026900D01*
X0058160Y0026900D01*
X0059321Y0025739D01*
X0060865Y0025100D01*
X0067735Y0025100D01*
X0069279Y0025739D01*
X0073270Y0027376D02*
X0138836Y0027376D01*
X0140865Y0030100D02*
X0147735Y0030100D01*
X0149279Y0030739D01*
X0150461Y0031921D01*
X0151100Y0033465D01*
X0151100Y0035135D01*
X0150461Y0036679D01*
X0149279Y0037861D01*
X0147735Y0038500D01*
X0140865Y0038500D01*
X0139321Y0037861D01*
X0138139Y0036679D01*
X0137500Y0035135D01*
X0137500Y0033465D01*
X0138139Y0031921D01*
X0139321Y0030739D01*
X0140865Y0030100D01*
X0139722Y0030573D02*
X0076390Y0030573D01*
X0076700Y0032172D02*
X0138036Y0032172D01*
X0137500Y0033770D02*
X0076700Y0033770D01*
X0076700Y0035369D02*
X0137597Y0035369D01*
X0138428Y0036967D02*
X0076700Y0036967D01*
X0071900Y0036967D02*
X0070480Y0036967D01*
X0070461Y0036921D02*
X0071100Y0038465D01*
X0071100Y0040135D01*
X0070461Y0041679D01*
X0069279Y0042861D01*
X0067735Y0043500D01*
X0060865Y0043500D01*
X0059321Y0042861D01*
X0058139Y0041679D01*
X0057500Y0040135D01*
X0057500Y0038465D01*
X0058139Y0036921D01*
X0059321Y0035739D01*
X0060865Y0035100D01*
X0067735Y0035100D01*
X0069279Y0035739D01*
X0070461Y0036921D01*
X0071100Y0038566D02*
X0071900Y0038566D01*
X0071900Y0040164D02*
X0071088Y0040164D01*
X0070377Y0041763D02*
X0071900Y0041763D01*
X0071900Y0043361D02*
X0068070Y0043361D01*
X0067735Y0045100D02*
X0060865Y0045100D01*
X0059321Y0045739D01*
X0058139Y0046921D01*
X0057500Y0048465D01*
X0057500Y0050135D01*
X0058139Y0051679D01*
X0059321Y0052861D01*
X0060865Y0053500D01*
X0067735Y0053500D01*
X0069279Y0052861D01*
X0070461Y0051679D01*
X0071100Y0050135D01*
X0071100Y0048465D01*
X0070461Y0046921D01*
X0069279Y0045739D01*
X0067735Y0045100D01*
X0070098Y0046558D02*
X0071900Y0046558D01*
X0071900Y0044960D02*
X0006600Y0044960D01*
X0006600Y0046558D02*
X0028502Y0046558D01*
X0028139Y0046921D02*
X0029321Y0045739D01*
X0030865Y0045100D01*
X0037735Y0045100D01*
X0039279Y0045739D01*
X0040461Y0046921D01*
X0041100Y0048465D01*
X0041100Y0050135D01*
X0040461Y0051679D01*
X0039279Y0052861D01*
X0037735Y0053500D01*
X0030865Y0053500D01*
X0029321Y0052861D01*
X0028139Y0051679D01*
X0027500Y0050135D01*
X0027500Y0048465D01*
X0028139Y0046921D01*
X0027627Y0048157D02*
X0006600Y0048157D01*
X0006600Y0049755D02*
X0027500Y0049755D01*
X0028005Y0051354D02*
X0006600Y0051354D01*
X0006600Y0052952D02*
X0029542Y0052952D01*
X0030865Y0055100D02*
X0037735Y0055100D01*
X0039279Y0055739D01*
X0040461Y0056921D01*
X0041100Y0058465D01*
X0041100Y0060135D01*
X0040461Y0061679D01*
X0039279Y0062861D01*
X0037735Y0063500D01*
X0030865Y0063500D01*
X0029321Y0062861D01*
X0028139Y0061679D01*
X0027500Y0060135D01*
X0027500Y0058465D01*
X0028139Y0056921D01*
X0029321Y0055739D01*
X0030865Y0055100D01*
X0028911Y0056149D02*
X0006600Y0056149D01*
X0006600Y0054551D02*
X0071900Y0054551D01*
X0071900Y0056149D02*
X0069689Y0056149D01*
X0069279Y0055739D02*
X0070461Y0056921D01*
X0071100Y0058465D01*
X0071100Y0060135D01*
X0070461Y0061679D01*
X0069279Y0062861D01*
X0067735Y0063500D01*
X0060865Y0063500D01*
X0059321Y0062861D01*
X0058139Y0061679D01*
X0057500Y0060135D01*
X0057500Y0058465D01*
X0058139Y0056921D01*
X0059321Y0055739D01*
X0060865Y0055100D01*
X0067735Y0055100D01*
X0069279Y0055739D01*
X0070803Y0057748D02*
X0071900Y0057748D01*
X0071900Y0059346D02*
X0071100Y0059346D01*
X0070765Y0060945D02*
X0071900Y0060945D01*
X0071900Y0062543D02*
X0069596Y0062543D01*
X0071900Y0064142D02*
X0006600Y0064142D01*
X0006600Y0065740D02*
X0029320Y0065740D01*
X0029321Y0065739D02*
X0030865Y0065100D01*
X0037735Y0065100D01*
X0039279Y0065739D01*
X0040461Y0066921D01*
X0041100Y0068465D01*
X0041100Y0070135D01*
X0040461Y0071679D01*
X0039279Y0072861D01*
X0037735Y0073500D01*
X0030865Y0073500D01*
X0029321Y0072861D01*
X0028139Y0071679D01*
X0027500Y0070135D01*
X0027500Y0068465D01*
X0028139Y0066921D01*
X0029321Y0065739D01*
X0027966Y0067339D02*
X0006600Y0067339D01*
X0006600Y0068937D02*
X0027500Y0068937D01*
X0027666Y0070536D02*
X0006600Y0070536D01*
X0006600Y0072134D02*
X0028595Y0072134D01*
X0030306Y0075332D02*
X0006600Y0075332D01*
X0006600Y0076930D02*
X0028136Y0076930D01*
X0028139Y0076921D02*
X0029321Y0075739D01*
X0030865Y0075100D01*
X0037735Y0075100D01*
X0039279Y0075739D01*
X0040461Y0076921D01*
X0041100Y0078465D01*
X0041100Y0080135D01*
X0040461Y0081679D01*
X0039279Y0082861D01*
X0037735Y0083500D01*
X0030865Y0083500D01*
X0029321Y0082861D01*
X0028139Y0081679D01*
X0027500Y0080135D01*
X0027500Y0078465D01*
X0028139Y0076921D01*
X0027500Y0078529D02*
X0006600Y0078529D01*
X0006600Y0080127D02*
X0027500Y0080127D01*
X0028186Y0081726D02*
X0006600Y0081726D01*
X0006600Y0083324D02*
X0030440Y0083324D01*
X0030865Y0085100D02*
X0037735Y0085100D01*
X0039279Y0085739D01*
X0040461Y0086921D01*
X0041100Y0088465D01*
X0041100Y0090135D01*
X0040461Y0091679D01*
X0039279Y0092861D01*
X0037735Y0093500D01*
X0030865Y0093500D01*
X0029321Y0092861D01*
X0028139Y0091679D01*
X0027500Y0090135D01*
X0027500Y0088465D01*
X0028139Y0086921D01*
X0029321Y0085739D01*
X0030865Y0085100D01*
X0028539Y0086521D02*
X0006600Y0086521D01*
X0006600Y0084923D02*
X0071900Y0084923D01*
X0071900Y0083324D02*
X0068160Y0083324D01*
X0067735Y0083500D02*
X0060865Y0083500D01*
X0059321Y0082861D01*
X0058139Y0081679D01*
X0057500Y0080135D01*
X0057500Y0078465D01*
X0058139Y0076921D01*
X0059321Y0075739D01*
X0060865Y0075100D01*
X0067735Y0075100D01*
X0069279Y0075739D01*
X0070461Y0076921D01*
X0071100Y0078465D01*
X0071100Y0080135D01*
X0070461Y0081679D01*
X0069279Y0082861D01*
X0067735Y0083500D01*
X0070414Y0081726D02*
X0071900Y0081726D01*
X0071900Y0080127D02*
X0071100Y0080127D01*
X0071100Y0078529D02*
X0071900Y0078529D01*
X0071900Y0076930D02*
X0070464Y0076930D01*
X0071900Y0075332D02*
X0068294Y0075332D01*
X0067735Y0073500D02*
X0060865Y0073500D01*
X0059321Y0072861D01*
X0058139Y0071679D01*
X0057500Y0070135D01*
X0057500Y0068465D01*
X0058139Y0066921D01*
X0059321Y0065739D01*
X0060865Y0065100D01*
X0067735Y0065100D01*
X0069279Y0065739D01*
X0070461Y0066921D01*
X0071100Y0068465D01*
X0071100Y0070135D01*
X0070461Y0071679D01*
X0069279Y0072861D01*
X0067735Y0073500D01*
X0070005Y0072134D02*
X0071900Y0072134D01*
X0071900Y0070536D02*
X0070934Y0070536D01*
X0071100Y0068937D02*
X0071900Y0068937D01*
X0071900Y0067339D02*
X0070634Y0067339D01*
X0071900Y0065740D02*
X0069280Y0065740D01*
X0076700Y0065740D02*
X0125100Y0065740D01*
X0125100Y0066040D02*
X0125100Y0062560D01*
X0127560Y0060100D01*
X0131040Y0060100D01*
X0132840Y0061900D01*
X0138160Y0061900D01*
X0139321Y0060739D01*
X0140865Y0060100D01*
X0147735Y0060100D01*
X0149279Y0060739D01*
X0150461Y0061921D01*
X0151100Y0063465D01*
X0151100Y0065135D01*
X0150461Y0066679D01*
X0149279Y0067861D01*
X0147735Y0068500D01*
X0140865Y0068500D01*
X0139321Y0067861D01*
X0138160Y0066700D01*
X0132840Y0066700D01*
X0131700Y0067840D01*
X0131700Y0089777D01*
X0131335Y0090659D01*
X0130659Y0091335D01*
X0115659Y0106335D01*
X0114777Y0106700D01*
X0050294Y0106700D01*
X0036894Y0120100D01*
X0037735Y0120100D01*
X0039279Y0120739D01*
X0040461Y0121921D01*
X0041100Y0123465D01*
X0041100Y0125135D01*
X0040461Y0126679D01*
X0039279Y0127861D01*
X0037735Y0128500D01*
X0030865Y0128500D01*
X0029321Y0127861D01*
X0028139Y0126679D01*
X0027500Y0125135D01*
X0027500Y0123465D01*
X0028139Y0121921D01*
X0029321Y0120739D01*
X0030865Y0120100D01*
X0031900Y0120100D01*
X0031900Y0118823D01*
X0032265Y0117941D01*
X0032941Y0117265D01*
X0047941Y0102265D01*
X0048823Y0101900D01*
X0113306Y0101900D01*
X0126900Y0088306D01*
X0126900Y0067840D01*
X0125100Y0066040D01*
X0126399Y0067339D02*
X0076700Y0067339D01*
X0076700Y0068937D02*
X0126900Y0068937D01*
X0126900Y0070536D02*
X0076700Y0070536D01*
X0076700Y0072134D02*
X0126900Y0072134D01*
X0126900Y0073733D02*
X0076700Y0073733D01*
X0076700Y0075332D02*
X0126900Y0075332D01*
X0126900Y0076930D02*
X0076700Y0076930D01*
X0076700Y0078529D02*
X0126900Y0078529D01*
X0126900Y0080127D02*
X0076700Y0080127D01*
X0076700Y0081726D02*
X0126900Y0081726D01*
X0126900Y0083324D02*
X0076700Y0083324D01*
X0076700Y0084923D02*
X0126900Y0084923D01*
X0126900Y0086521D02*
X0076700Y0086521D01*
X0076351Y0088120D02*
X0126900Y0088120D01*
X0125488Y0089718D02*
X0074776Y0089718D01*
X0073177Y0091317D02*
X0123889Y0091317D01*
X0122291Y0092915D02*
X0069147Y0092915D01*
X0071800Y0089300D02*
X0064300Y0089300D01*
X0054300Y0089300D01*
X0021800Y0121800D01*
X0021800Y0134300D01*
X0021800Y0171800D01*
X0024300Y0174300D01*
X0034300Y0174300D01*
X0064300Y0174300D01*
X0058818Y0171242D02*
X0039782Y0171242D01*
X0034300Y0174300D02*
X0034300Y0184300D01*
X0039912Y0187227D02*
X0058688Y0187227D01*
X0058139Y0186679D02*
X0057500Y0185135D01*
X0057500Y0183465D01*
X0058139Y0181921D01*
X0059321Y0180739D01*
X0060865Y0180100D01*
X0067735Y0180100D01*
X0069279Y0180739D01*
X0070461Y0181921D01*
X0071100Y0183465D01*
X0071100Y0185135D01*
X0070461Y0186679D01*
X0069279Y0187861D01*
X0067735Y0188500D01*
X0060865Y0188500D01*
X0059321Y0187861D01*
X0058139Y0186679D01*
X0057704Y0185629D02*
X0040896Y0185629D01*
X0041100Y0184030D02*
X0057500Y0184030D01*
X0057928Y0182432D02*
X0040672Y0182432D01*
X0039373Y0180833D02*
X0059227Y0180833D01*
X0059097Y0177636D02*
X0039503Y0177636D01*
X0036700Y0179235D02*
X0235176Y0179235D01*
X0235400Y0178694D02*
X0234700Y0180385D01*
X0234700Y0188215D01*
X0235400Y0189906D01*
X0236694Y0191200D01*
X0238385Y0191900D01*
X0240215Y0191900D01*
X0241906Y0191200D01*
X0243200Y0189906D01*
X0243900Y0188215D01*
X0243900Y0180385D01*
X0243200Y0178694D01*
X0241906Y0177400D01*
X0240215Y0176700D01*
X0238385Y0176700D01*
X0236694Y0177400D01*
X0235400Y0178694D01*
X0236458Y0177636D02*
X0069503Y0177636D01*
X0070726Y0176038D02*
X0246900Y0176038D01*
X0246458Y0177636D02*
X0242142Y0177636D01*
X0243424Y0179235D02*
X0245176Y0179235D01*
X0244700Y0180833D02*
X0243900Y0180833D01*
X0243900Y0182432D02*
X0244700Y0182432D01*
X0244700Y0184030D02*
X0243900Y0184030D01*
X0243900Y0185629D02*
X0244700Y0185629D01*
X0244700Y0187227D02*
X0243900Y0187227D01*
X0243647Y0188826D02*
X0244953Y0188826D01*
X0245919Y0190424D02*
X0242681Y0190424D01*
X0235919Y0190424D02*
X0006600Y0190424D01*
X0006600Y0188826D02*
X0234953Y0188826D01*
X0234700Y0187227D02*
X0177312Y0187227D01*
X0178500Y0186040D02*
X0176040Y0188500D01*
X0172560Y0188500D01*
X0170100Y0186040D01*
X0170100Y0182560D01*
X0172560Y0180100D01*
X0176040Y0180100D01*
X0178500Y0182560D01*
X0178500Y0186040D01*
X0178500Y0185629D02*
X0234700Y0185629D01*
X0234700Y0184030D02*
X0178500Y0184030D01*
X0178371Y0182432D02*
X0234700Y0182432D01*
X0234700Y0180833D02*
X0176773Y0180833D01*
X0171827Y0180833D02*
X0156773Y0180833D01*
X0156040Y0180100D02*
X0158500Y0182560D01*
X0158500Y0186040D01*
X0156040Y0188500D01*
X0152560Y0188500D01*
X0150100Y0186040D01*
X0150100Y0182560D01*
X0152560Y0180100D01*
X0156040Y0180100D01*
X0158371Y0182432D02*
X0170229Y0182432D01*
X0170100Y0184030D02*
X0158500Y0184030D01*
X0158500Y0185629D02*
X0170100Y0185629D01*
X0171288Y0187227D02*
X0157312Y0187227D01*
X0151288Y0187227D02*
X0137595Y0187227D01*
X0138700Y0186123D02*
X0136123Y0188700D01*
X0134300Y0188700D01*
X0134300Y0184300D01*
X0134300Y0184300D01*
X0138700Y0184300D01*
X0138700Y0186123D01*
X0138700Y0185629D02*
X0150100Y0185629D01*
X0150100Y0184030D02*
X0138700Y0184030D01*
X0138700Y0184300D02*
X0134300Y0184300D01*
X0134300Y0184300D01*
X0134300Y0184300D01*
X0129900Y0184300D01*
X0129900Y0186123D01*
X0132477Y0188700D01*
X0134300Y0188700D01*
X0134300Y0184300D01*
X0134300Y0179900D01*
X0136123Y0179900D01*
X0138700Y0182477D01*
X0138700Y0184300D01*
X0138654Y0182432D02*
X0150229Y0182432D01*
X0151827Y0180833D02*
X0137056Y0180833D01*
X0134300Y0180833D02*
X0134300Y0180833D01*
X0134300Y0179900D02*
X0134300Y0184300D01*
X0134300Y0184300D01*
X0129900Y0184300D01*
X0129900Y0182477D01*
X0132477Y0179900D01*
X0134300Y0179900D01*
X0134300Y0182432D02*
X0134300Y0182432D01*
X0134300Y0184030D02*
X0134300Y0184030D01*
X0134300Y0185629D02*
X0134300Y0185629D01*
X0134300Y0187227D02*
X0134300Y0187227D01*
X0131005Y0187227D02*
X0069912Y0187227D01*
X0070896Y0185629D02*
X0129900Y0185629D01*
X0129900Y0184030D02*
X0071100Y0184030D01*
X0070672Y0182432D02*
X0129946Y0182432D01*
X0131544Y0180833D02*
X0069373Y0180833D01*
X0071100Y0174439D02*
X0246045Y0174439D01*
X0246800Y0171800D02*
X0249300Y0174300D01*
X0249300Y0184300D01*
X0246800Y0171800D02*
X0176800Y0171800D01*
X0174300Y0169300D01*
X0174300Y0144300D01*
X0174300Y0124300D01*
X0174300Y0114300D01*
X0164300Y0104300D01*
X0164300Y0076800D01*
X0166800Y0074300D01*
X0174300Y0074300D01*
X0180210Y0076930D02*
X0210990Y0076930D01*
X0210100Y0075332D02*
X0181019Y0075332D01*
X0181100Y0073733D02*
X0210100Y0073733D01*
X0210526Y0072134D02*
X0180549Y0072134D01*
X0178788Y0070536D02*
X0212124Y0070536D01*
X0216476Y0070536D02*
X0236900Y0070536D01*
X0236900Y0072134D02*
X0218074Y0072134D01*
X0218500Y0073733D02*
X0236900Y0073733D01*
X0236900Y0075332D02*
X0218500Y0075332D01*
X0217610Y0076930D02*
X0236900Y0076930D01*
X0236900Y0078529D02*
X0216700Y0078529D01*
X0216700Y0080127D02*
X0236900Y0080127D01*
X0236900Y0081726D02*
X0216700Y0081726D01*
X0216700Y0083324D02*
X0236900Y0083324D01*
X0236900Y0084923D02*
X0216700Y0084923D01*
X0216700Y0086521D02*
X0236139Y0086521D01*
X0235100Y0088120D02*
X0216700Y0088120D01*
X0216700Y0089718D02*
X0235100Y0089718D01*
X0235377Y0091317D02*
X0216700Y0091317D01*
X0216700Y0092915D02*
X0236975Y0092915D01*
X0241625Y0092915D02*
X0249453Y0092915D01*
X0254300Y0089300D02*
X0239300Y0089300D01*
X0239300Y0069300D01*
X0234300Y0064300D01*
X0189300Y0064300D01*
X0174300Y0064300D01*
X0179485Y0060945D02*
X0186715Y0060945D01*
X0191885Y0060945D02*
X0247835Y0060945D01*
X0248139Y0061679D02*
X0247500Y0060135D01*
X0247500Y0058465D01*
X0248139Y0056921D01*
X0249321Y0055739D01*
X0250865Y0055100D01*
X0257735Y0055100D01*
X0259279Y0055739D01*
X0260461Y0056921D01*
X0261100Y0058465D01*
X0261100Y0060135D01*
X0260461Y0061679D01*
X0259279Y0062861D01*
X0257735Y0063500D01*
X0250865Y0063500D01*
X0249321Y0062861D01*
X0248139Y0061679D01*
X0249004Y0062543D02*
X0235938Y0062543D01*
X0233945Y0067339D02*
X0192201Y0067339D01*
X0186399Y0067339D02*
X0179801Y0067339D01*
X0169812Y0070536D02*
X0148788Y0070536D01*
X0149279Y0070739D02*
X0150461Y0071921D01*
X0151100Y0073465D01*
X0151100Y0075135D01*
X0150461Y0076679D01*
X0149279Y0077861D01*
X0147735Y0078500D01*
X0146700Y0078500D01*
X0146700Y0080100D01*
X0147735Y0080100D01*
X0149279Y0080739D01*
X0150461Y0081921D01*
X0151100Y0083465D01*
X0151100Y0085135D01*
X0150461Y0086679D01*
X0149279Y0087861D01*
X0147735Y0088500D01*
X0140865Y0088500D01*
X0139321Y0087861D01*
X0138139Y0086679D01*
X0137500Y0085135D01*
X0137500Y0083465D01*
X0138139Y0081921D01*
X0139321Y0080739D01*
X0140865Y0080100D01*
X0141900Y0080100D01*
X0141900Y0078500D01*
X0140865Y0078500D01*
X0139321Y0077861D01*
X0138139Y0076679D01*
X0137500Y0075135D01*
X0137500Y0073465D01*
X0138139Y0071921D01*
X0139321Y0070739D01*
X0140865Y0070100D01*
X0147735Y0070100D01*
X0149279Y0070739D01*
X0150549Y0072134D02*
X0165756Y0072134D01*
X0163973Y0073733D02*
X0151100Y0073733D01*
X0151019Y0075332D02*
X0162374Y0075332D01*
X0161900Y0076930D02*
X0150210Y0076930D01*
X0146700Y0078529D02*
X0161900Y0078529D01*
X0161900Y0080127D02*
X0147801Y0080127D01*
X0150265Y0081726D02*
X0161900Y0081726D01*
X0161900Y0083324D02*
X0151042Y0083324D01*
X0151100Y0084923D02*
X0161900Y0084923D01*
X0161900Y0086521D02*
X0150526Y0086521D01*
X0148654Y0088120D02*
X0161900Y0088120D01*
X0161900Y0089718D02*
X0131700Y0089718D01*
X0131700Y0088120D02*
X0139946Y0088120D01*
X0138074Y0086521D02*
X0131700Y0086521D01*
X0131700Y0084923D02*
X0137500Y0084923D01*
X0137558Y0083324D02*
X0131700Y0083324D01*
X0131700Y0081726D02*
X0138335Y0081726D01*
X0140799Y0080127D02*
X0131700Y0080127D01*
X0131700Y0078529D02*
X0141900Y0078529D01*
X0138390Y0076930D02*
X0131700Y0076930D01*
X0131700Y0075332D02*
X0137581Y0075332D01*
X0137500Y0073733D02*
X0131700Y0073733D01*
X0131700Y0072134D02*
X0138051Y0072134D01*
X0139812Y0070536D02*
X0131700Y0070536D01*
X0131700Y0068937D02*
X0235543Y0068937D01*
X0241700Y0073733D02*
X0315125Y0073733D01*
X0315209Y0075332D02*
X0288294Y0075332D01*
X0284300Y0079300D02*
X0294300Y0079300D01*
X0294850Y0076930D02*
X0316026Y0076930D01*
X0322574Y0076930D02*
X0376026Y0076930D01*
X0375761Y0076665D02*
X0375125Y0075130D01*
X0375125Y0073470D01*
X0375761Y0071935D01*
X0376935Y0070761D01*
X0378470Y0070125D01*
X0380130Y0070125D01*
X0381665Y0070761D01*
X0382839Y0071935D01*
X0383475Y0073470D01*
X0383475Y0075130D01*
X0382839Y0076665D01*
X0381665Y0077839D01*
X0380130Y0078475D01*
X0378470Y0078475D01*
X0376935Y0077839D01*
X0375761Y0076665D01*
X0375209Y0075332D02*
X0323391Y0075332D01*
X0323475Y0073733D02*
X0375125Y0073733D01*
X0375678Y0072134D02*
X0322922Y0072134D01*
X0321122Y0070536D02*
X0377478Y0070536D01*
X0378470Y0068475D02*
X0376935Y0067839D01*
X0375761Y0066665D01*
X0375125Y0065130D01*
X0375125Y0063470D01*
X0375761Y0061935D01*
X0376935Y0060761D01*
X0378470Y0060125D01*
X0380130Y0060125D01*
X0381665Y0060761D01*
X0382839Y0061935D01*
X0383475Y0063470D01*
X0383475Y0065130D01*
X0382839Y0066665D01*
X0381665Y0067839D01*
X0380130Y0068475D01*
X0378470Y0068475D01*
X0376435Y0067339D02*
X0322165Y0067339D01*
X0321665Y0067839D02*
X0320130Y0068475D01*
X0318470Y0068475D01*
X0316935Y0067839D01*
X0315761Y0066665D01*
X0315125Y0065130D01*
X0315125Y0063470D01*
X0315761Y0061935D01*
X0316935Y0060761D01*
X0318470Y0060125D01*
X0320130Y0060125D01*
X0321665Y0060761D01*
X0322839Y0061935D01*
X0323475Y0063470D01*
X0323475Y0065130D01*
X0322839Y0066665D01*
X0321665Y0067839D01*
X0323222Y0065740D02*
X0375378Y0065740D01*
X0375125Y0064142D02*
X0323475Y0064142D01*
X0323091Y0062543D02*
X0375509Y0062543D01*
X0376751Y0060945D02*
X0321849Y0060945D01*
X0320130Y0058475D02*
X0318470Y0058475D01*
X0316935Y0057839D01*
X0315761Y0056665D01*
X0315125Y0055130D01*
X0315125Y0053470D01*
X0315761Y0051935D01*
X0316935Y0050761D01*
X0318470Y0050125D01*
X0320130Y0050125D01*
X0321665Y0050761D01*
X0322839Y0051935D01*
X0323475Y0053470D01*
X0323475Y0055130D01*
X0322839Y0056665D01*
X0321665Y0057839D01*
X0320130Y0058475D01*
X0321756Y0057748D02*
X0376844Y0057748D01*
X0376935Y0057839D02*
X0375761Y0056665D01*
X0375125Y0055130D01*
X0375125Y0053470D01*
X0375761Y0051935D01*
X0376935Y0050761D01*
X0378470Y0050125D01*
X0380130Y0050125D01*
X0381665Y0050761D01*
X0382839Y0051935D01*
X0383475Y0053470D01*
X0383475Y0055130D01*
X0382839Y0056665D01*
X0381665Y0057839D01*
X0380130Y0058475D01*
X0378470Y0058475D01*
X0376935Y0057839D01*
X0375547Y0056149D02*
X0323053Y0056149D01*
X0323475Y0054551D02*
X0375125Y0054551D01*
X0375339Y0052952D02*
X0323261Y0052952D01*
X0322258Y0051354D02*
X0376342Y0051354D01*
X0382258Y0051354D02*
X0397000Y0051354D01*
X0397000Y0052952D02*
X0383261Y0052952D01*
X0383475Y0054551D02*
X0397000Y0054551D01*
X0397000Y0056149D02*
X0383053Y0056149D01*
X0381756Y0057748D02*
X0397000Y0057748D01*
X0397000Y0059346D02*
X0309200Y0059346D01*
X0309200Y0057748D02*
X0316844Y0057748D01*
X0315547Y0056149D02*
X0309200Y0056149D01*
X0309200Y0054551D02*
X0315125Y0054551D01*
X0315339Y0052952D02*
X0309200Y0052952D01*
X0309200Y0051354D02*
X0316342Y0051354D01*
X0317702Y0048157D02*
X0309200Y0048157D01*
X0309200Y0049755D02*
X0397000Y0049755D01*
X0397000Y0048157D02*
X0380898Y0048157D01*
X0381665Y0047839D02*
X0380130Y0048475D01*
X0378470Y0048475D01*
X0376935Y0047839D01*
X0375761Y0046665D01*
X0375125Y0045130D01*
X0375125Y0043470D01*
X0375761Y0041935D01*
X0376935Y0040761D01*
X0378470Y0040125D01*
X0380130Y0040125D01*
X0381665Y0040761D01*
X0382839Y0041935D01*
X0383475Y0043470D01*
X0383475Y0045130D01*
X0382839Y0046665D01*
X0381665Y0047839D01*
X0382883Y0046558D02*
X0397000Y0046558D01*
X0397000Y0044960D02*
X0383475Y0044960D01*
X0383430Y0043361D02*
X0397000Y0043361D01*
X0397000Y0041763D02*
X0382667Y0041763D01*
X0380225Y0040164D02*
X0397000Y0040164D01*
X0397000Y0038566D02*
X0310928Y0038566D01*
X0309330Y0040164D02*
X0318375Y0040164D01*
X0318470Y0040125D02*
X0320130Y0040125D01*
X0321665Y0040761D01*
X0322839Y0041935D01*
X0323475Y0043470D01*
X0323475Y0045130D01*
X0322839Y0046665D01*
X0321665Y0047839D01*
X0320130Y0048475D01*
X0318470Y0048475D01*
X0316935Y0047839D01*
X0315761Y0046665D01*
X0315125Y0045130D01*
X0315125Y0043470D01*
X0315761Y0041935D01*
X0316935Y0040761D01*
X0318470Y0040125D01*
X0320225Y0040164D02*
X0378375Y0040164D01*
X0375933Y0041763D02*
X0322667Y0041763D01*
X0323430Y0043361D02*
X0375170Y0043361D01*
X0375125Y0044960D02*
X0323475Y0044960D01*
X0322883Y0046558D02*
X0375717Y0046558D01*
X0377702Y0048157D02*
X0320898Y0048157D01*
X0315717Y0046558D02*
X0309200Y0046558D01*
X0309200Y0044960D02*
X0315125Y0044960D01*
X0315170Y0043361D02*
X0309200Y0043361D01*
X0309200Y0041763D02*
X0315933Y0041763D01*
X0316063Y0036967D02*
X0312527Y0036967D01*
X0311800Y0034300D02*
X0306800Y0039300D01*
X0306800Y0066800D01*
X0304300Y0069300D01*
X0284300Y0069300D01*
X0290005Y0072134D02*
X0315678Y0072134D01*
X0317478Y0070536D02*
X0306458Y0070536D01*
X0308057Y0068937D02*
X0397000Y0068937D01*
X0397000Y0067339D02*
X0382165Y0067339D01*
X0383222Y0065740D02*
X0397000Y0065740D01*
X0397000Y0064142D02*
X0383475Y0064142D01*
X0383091Y0062543D02*
X0397000Y0062543D01*
X0397000Y0060945D02*
X0381849Y0060945D01*
X0381122Y0070536D02*
X0397000Y0070536D01*
X0397000Y0072134D02*
X0382922Y0072134D01*
X0383475Y0073733D02*
X0397000Y0073733D01*
X0397000Y0075332D02*
X0383391Y0075332D01*
X0382574Y0076930D02*
X0397000Y0076930D01*
X0397000Y0078529D02*
X0296923Y0078529D01*
X0280306Y0075332D02*
X0258294Y0075332D01*
X0260464Y0076930D02*
X0278136Y0076930D01*
X0277500Y0078529D02*
X0261100Y0078529D01*
X0261100Y0080127D02*
X0277500Y0080127D01*
X0278186Y0081726D02*
X0260414Y0081726D01*
X0258160Y0083324D02*
X0280440Y0083324D01*
X0278280Y0086521D02*
X0260061Y0086521D01*
X0260957Y0088120D02*
X0277457Y0088120D01*
X0277311Y0089718D02*
X0261100Y0089718D01*
X0260611Y0091317D02*
X0277789Y0091317D01*
X0279190Y0092915D02*
X0259147Y0092915D01*
X0276800Y0101800D02*
X0216800Y0101800D01*
X0214300Y0099300D01*
X0214300Y0074300D01*
X0211900Y0078529D02*
X0166700Y0078529D01*
X0166700Y0080127D02*
X0170799Y0080127D01*
X0170865Y0080100D02*
X0177735Y0080100D01*
X0179279Y0080739D01*
X0180440Y0081900D01*
X0185760Y0081900D01*
X0187560Y0080100D01*
X0191040Y0080100D01*
X0193500Y0082560D01*
X0193500Y0086040D01*
X0191700Y0087840D01*
X0191700Y0128306D01*
X0195294Y0131900D01*
X0223160Y0131900D01*
X0224321Y0130739D01*
X0225865Y0130100D01*
X0232735Y0130100D01*
X0234279Y0130739D01*
X0235461Y0131921D01*
X0236100Y0133465D01*
X0236100Y0135135D01*
X0235461Y0136679D01*
X0234279Y0137861D01*
X0232735Y0138500D01*
X0225865Y0138500D01*
X0224321Y0137861D01*
X0223160Y0136700D01*
X0193823Y0136700D01*
X0192941Y0136335D01*
X0187941Y0131335D01*
X0187265Y0130659D01*
X0186900Y0129777D01*
X0186900Y0087840D01*
X0185760Y0086700D01*
X0180440Y0086700D01*
X0179279Y0087861D01*
X0177735Y0088500D01*
X0170865Y0088500D01*
X0169321Y0087861D01*
X0168139Y0086679D01*
X0167500Y0085135D01*
X0167500Y0083465D01*
X0168139Y0081921D01*
X0169321Y0080739D01*
X0170865Y0080100D01*
X0168335Y0081726D02*
X0166700Y0081726D01*
X0166700Y0083324D02*
X0167558Y0083324D01*
X0167500Y0084923D02*
X0166700Y0084923D01*
X0166700Y0086521D02*
X0168074Y0086521D01*
X0166700Y0088120D02*
X0169946Y0088120D01*
X0166700Y0089718D02*
X0186900Y0089718D01*
X0186900Y0088120D02*
X0178654Y0088120D01*
X0174300Y0084300D02*
X0189300Y0084300D01*
X0189300Y0129300D01*
X0194300Y0134300D01*
X0229300Y0134300D01*
X0223781Y0131279D02*
X0194674Y0131279D01*
X0193075Y0129681D02*
X0276900Y0129681D01*
X0276900Y0131279D02*
X0264819Y0131279D01*
X0264279Y0127861D02*
X0262735Y0128500D01*
X0255865Y0128500D01*
X0254321Y0127861D01*
X0253139Y0126679D01*
X0252500Y0125135D01*
X0252500Y0123465D01*
X0253139Y0121921D01*
X0254321Y0120739D01*
X0255865Y0120100D01*
X0262735Y0120100D01*
X0264279Y0120739D01*
X0265461Y0121921D01*
X0266100Y0123465D01*
X0266100Y0125135D01*
X0265461Y0126679D01*
X0264279Y0127861D01*
X0263744Y0128082D02*
X0276900Y0128082D01*
X0276900Y0126484D02*
X0265541Y0126484D01*
X0266100Y0124885D02*
X0276900Y0124885D01*
X0276900Y0123287D02*
X0266026Y0123287D01*
X0265228Y0121688D02*
X0276900Y0121688D01*
X0276900Y0120090D02*
X0216700Y0120090D01*
X0216700Y0120760D02*
X0216700Y0117840D01*
X0218500Y0116040D01*
X0218500Y0112560D01*
X0216040Y0110100D01*
X0212560Y0110100D01*
X0210100Y0112560D01*
X0210100Y0116040D01*
X0211900Y0117840D01*
X0211900Y0120760D01*
X0210100Y0122560D01*
X0210100Y0126040D01*
X0212560Y0128500D01*
X0216040Y0128500D01*
X0217840Y0126700D01*
X0223160Y0126700D01*
X0224321Y0127861D01*
X0225865Y0128500D01*
X0232735Y0128500D01*
X0234279Y0127861D01*
X0235461Y0126679D01*
X0236100Y0125135D01*
X0236100Y0123465D01*
X0235461Y0121921D01*
X0234279Y0120739D01*
X0232735Y0120100D01*
X0225865Y0120100D01*
X0224321Y0120739D01*
X0223160Y0121900D01*
X0217840Y0121900D01*
X0216700Y0120760D01*
X0217628Y0121688D02*
X0223372Y0121688D01*
X0225011Y0118378D02*
X0224394Y0118063D01*
X0223834Y0117656D01*
X0223344Y0117166D01*
X0222937Y0116606D01*
X0222622Y0115989D01*
X0222408Y0115330D01*
X0222300Y0114646D01*
X0222300Y0114300D01*
X0229300Y0114300D01*
X0229300Y0114300D01*
X0229300Y0118700D01*
X0232246Y0118700D01*
X0232930Y0118592D01*
X0233589Y0118378D01*
X0234206Y0118063D01*
X0234766Y0117656D01*
X0235256Y0117166D01*
X0235663Y0116606D01*
X0235978Y0115989D01*
X0236192Y0115330D01*
X0236300Y0114646D01*
X0236300Y0114300D01*
X0229300Y0114300D01*
X0229300Y0114300D01*
X0229300Y0109900D01*
X0232246Y0109900D01*
X0232930Y0110008D01*
X0233589Y0110222D01*
X0234206Y0110537D01*
X0234766Y0110944D01*
X0235256Y0111434D01*
X0235663Y0111994D01*
X0235978Y0112611D01*
X0236192Y0113270D01*
X0236300Y0113954D01*
X0236300Y0114300D01*
X0229300Y0114300D01*
X0229300Y0114300D01*
X0229300Y0114300D01*
X0229300Y0118700D01*
X0226354Y0118700D01*
X0225670Y0118592D01*
X0225011Y0118378D01*
X0225361Y0118491D02*
X0216700Y0118491D01*
X0217647Y0116893D02*
X0223145Y0116893D01*
X0222403Y0115294D02*
X0218500Y0115294D01*
X0218500Y0113696D02*
X0222341Y0113696D01*
X0222300Y0113954D02*
X0222408Y0113270D01*
X0222622Y0112611D01*
X0222937Y0111994D01*
X0223344Y0111434D01*
X0223834Y0110944D01*
X0224394Y0110537D01*
X0225011Y0110222D01*
X0225670Y0110008D01*
X0226354Y0109900D01*
X0229300Y0109900D01*
X0229300Y0114300D01*
X0222300Y0114300D01*
X0222300Y0113954D01*
X0222884Y0112097D02*
X0218037Y0112097D01*
X0216438Y0110499D02*
X0224469Y0110499D01*
X0229300Y0110499D02*
X0229300Y0110499D01*
X0229300Y0112097D02*
X0229300Y0112097D01*
X0229300Y0113696D02*
X0229300Y0113696D01*
X0229300Y0115294D02*
X0229300Y0115294D01*
X0229300Y0116893D02*
X0229300Y0116893D01*
X0229300Y0118491D02*
X0229300Y0118491D01*
X0233239Y0118491D02*
X0255844Y0118491D01*
X0255865Y0118500D02*
X0254321Y0117861D01*
X0253139Y0116679D01*
X0252500Y0115135D01*
X0252500Y0113465D01*
X0253139Y0111921D01*
X0254321Y0110739D01*
X0255865Y0110100D01*
X0262735Y0110100D01*
X0264279Y0110739D01*
X0265461Y0111921D01*
X0266100Y0113465D01*
X0266100Y0115135D01*
X0265461Y0116679D01*
X0264279Y0117861D01*
X0262735Y0118500D01*
X0255865Y0118500D01*
X0253353Y0116893D02*
X0235455Y0116893D01*
X0236197Y0115294D02*
X0252566Y0115294D01*
X0252500Y0113696D02*
X0236259Y0113696D01*
X0235716Y0112097D02*
X0253066Y0112097D01*
X0254902Y0110499D02*
X0234131Y0110499D01*
X0235228Y0121688D02*
X0253372Y0121688D01*
X0252574Y0123287D02*
X0236026Y0123287D01*
X0236100Y0124885D02*
X0252500Y0124885D01*
X0253059Y0126484D02*
X0235541Y0126484D01*
X0233744Y0128082D02*
X0254856Y0128082D01*
X0253781Y0131279D02*
X0234819Y0131279D01*
X0235857Y0132878D02*
X0252743Y0132878D01*
X0252500Y0134476D02*
X0236100Y0134476D01*
X0235711Y0136075D02*
X0252889Y0136075D01*
X0254134Y0137673D02*
X0234466Y0137673D01*
X0233589Y0140222D02*
X0234206Y0140537D01*
X0234766Y0140944D01*
X0235256Y0141434D01*
X0235663Y0141994D01*
X0235978Y0142611D01*
X0236192Y0143270D01*
X0236300Y0143954D01*
X0236300Y0144300D01*
X0236300Y0144646D01*
X0236192Y0145330D01*
X0235978Y0145989D01*
X0235663Y0146606D01*
X0235256Y0147166D01*
X0234766Y0147656D01*
X0234206Y0148063D01*
X0233589Y0148378D01*
X0232930Y0148592D01*
X0232246Y0148700D01*
X0229300Y0148700D01*
X0229300Y0144300D01*
X0229300Y0144300D01*
X0236300Y0144300D01*
X0229300Y0144300D01*
X0229300Y0144300D01*
X0229300Y0139900D01*
X0232246Y0139900D01*
X0232930Y0140008D01*
X0233589Y0140222D01*
X0234665Y0140870D02*
X0254190Y0140870D01*
X0252912Y0142469D02*
X0235905Y0142469D01*
X0236300Y0144068D02*
X0252500Y0144068D01*
X0252720Y0145666D02*
X0236083Y0145666D01*
X0235158Y0147265D02*
X0253725Y0147265D01*
X0264875Y0147265D02*
X0275396Y0147265D01*
X0275100Y0148863D02*
X0176700Y0148863D01*
X0176700Y0150462D02*
X0275100Y0150462D01*
X0276120Y0152060D02*
X0176700Y0152060D01*
X0176700Y0153659D02*
X0315125Y0153659D01*
X0315178Y0155257D02*
X0176700Y0155257D01*
X0171900Y0155257D02*
X0071050Y0155257D01*
X0071100Y0155135D02*
X0070461Y0156679D01*
X0069279Y0157861D01*
X0067735Y0158500D01*
X0060865Y0158500D01*
X0059321Y0157861D01*
X0058139Y0156679D01*
X0057500Y0155135D01*
X0057500Y0153465D01*
X0058139Y0151921D01*
X0059321Y0150739D01*
X0060865Y0150100D01*
X0067735Y0150100D01*
X0069279Y0150739D01*
X0070461Y0151921D01*
X0071100Y0153465D01*
X0071100Y0155135D01*
X0071100Y0153659D02*
X0171900Y0153659D01*
X0171900Y0152060D02*
X0070518Y0152060D01*
X0068608Y0150462D02*
X0171900Y0150462D01*
X0171900Y0148863D02*
X0024200Y0148863D01*
X0024200Y0147265D02*
X0028442Y0147265D01*
X0028344Y0147166D02*
X0027937Y0146606D01*
X0027622Y0145989D01*
X0027408Y0145330D01*
X0027300Y0144646D01*
X0027300Y0144300D01*
X0034300Y0144300D01*
X0034300Y0144300D01*
X0034300Y0148700D01*
X0037246Y0148700D01*
X0037930Y0148592D01*
X0038589Y0148378D01*
X0039206Y0148063D01*
X0039766Y0147656D01*
X0040256Y0147166D01*
X0040663Y0146606D01*
X0040978Y0145989D01*
X0041192Y0145330D01*
X0041300Y0144646D01*
X0041300Y0144300D01*
X0034300Y0144300D01*
X0034300Y0144300D01*
X0034300Y0139900D01*
X0037246Y0139900D01*
X0037930Y0140008D01*
X0038589Y0140222D01*
X0039206Y0140537D01*
X0039766Y0140944D01*
X0040256Y0141434D01*
X0040663Y0141994D01*
X0040978Y0142611D01*
X0041192Y0143270D01*
X0041300Y0143954D01*
X0041300Y0144300D01*
X0034300Y0144300D01*
X0034300Y0144300D01*
X0034300Y0144300D01*
X0034300Y0148700D01*
X0031354Y0148700D01*
X0030670Y0148592D01*
X0030011Y0148378D01*
X0029394Y0148063D01*
X0028834Y0147656D01*
X0028344Y0147166D01*
X0027517Y0145666D02*
X0024200Y0145666D01*
X0024200Y0144068D02*
X0027300Y0144068D01*
X0027300Y0143954D02*
X0027408Y0143270D01*
X0027622Y0142611D01*
X0027937Y0141994D01*
X0028344Y0141434D01*
X0028834Y0140944D01*
X0029394Y0140537D01*
X0030011Y0140222D01*
X0030670Y0140008D01*
X0031354Y0139900D01*
X0034300Y0139900D01*
X0034300Y0144300D01*
X0027300Y0144300D01*
X0027300Y0143954D01*
X0027695Y0142469D02*
X0024200Y0142469D01*
X0024200Y0140870D02*
X0028935Y0140870D01*
X0034300Y0140870D02*
X0034300Y0140870D01*
X0034300Y0142469D02*
X0034300Y0142469D01*
X0034300Y0144068D02*
X0034300Y0144068D01*
X0034300Y0145666D02*
X0034300Y0145666D01*
X0034300Y0147265D02*
X0034300Y0147265D01*
X0030865Y0150100D02*
X0037735Y0150100D01*
X0039279Y0150739D01*
X0040461Y0151921D01*
X0041100Y0153465D01*
X0041100Y0155135D01*
X0040461Y0156679D01*
X0039279Y0157861D01*
X0037735Y0158500D01*
X0030865Y0158500D01*
X0029321Y0157861D01*
X0028139Y0156679D01*
X0027500Y0155135D01*
X0027500Y0153465D01*
X0028139Y0151921D01*
X0029321Y0150739D01*
X0030865Y0150100D01*
X0029992Y0150462D02*
X0024200Y0150462D01*
X0024200Y0152060D02*
X0028082Y0152060D01*
X0027500Y0153659D02*
X0024200Y0153659D01*
X0024200Y0155257D02*
X0027550Y0155257D01*
X0028316Y0156856D02*
X0024200Y0156856D01*
X0024200Y0158454D02*
X0030754Y0158454D01*
X0030670Y0160008D02*
X0031354Y0159900D01*
X0034300Y0159900D01*
X0037246Y0159900D01*
X0037930Y0160008D01*
X0038589Y0160222D01*
X0039206Y0160537D01*
X0039766Y0160944D01*
X0040256Y0161434D01*
X0040663Y0161994D01*
X0040978Y0162611D01*
X0041192Y0163270D01*
X0041300Y0163954D01*
X0041300Y0164300D01*
X0041300Y0164646D01*
X0041192Y0165330D01*
X0040978Y0165989D01*
X0040663Y0166606D01*
X0040256Y0167166D01*
X0039766Y0167656D01*
X0039206Y0168063D01*
X0038589Y0168378D01*
X0037930Y0168592D01*
X0037246Y0168700D01*
X0034300Y0168700D01*
X0034300Y0164300D01*
X0034300Y0164300D01*
X0041300Y0164300D01*
X0034300Y0164300D01*
X0034300Y0164300D01*
X0034300Y0159900D01*
X0034300Y0164300D01*
X0034300Y0164300D01*
X0034300Y0164300D01*
X0027300Y0164300D01*
X0027300Y0164646D01*
X0027408Y0165330D01*
X0027622Y0165989D01*
X0027937Y0166606D01*
X0028344Y0167166D01*
X0028834Y0167656D01*
X0029394Y0168063D01*
X0030011Y0168378D01*
X0030670Y0168592D01*
X0031354Y0168700D01*
X0034300Y0168700D01*
X0034300Y0164300D01*
X0027300Y0164300D01*
X0027300Y0163954D01*
X0027408Y0163270D01*
X0027622Y0162611D01*
X0027937Y0161994D01*
X0028344Y0161434D01*
X0028834Y0160944D01*
X0029394Y0160537D01*
X0030011Y0160222D01*
X0030670Y0160008D01*
X0030533Y0160053D02*
X0024200Y0160053D01*
X0024200Y0161651D02*
X0028186Y0161651D01*
X0027415Y0163250D02*
X0024200Y0163250D01*
X0024200Y0164848D02*
X0027332Y0164848D01*
X0027856Y0166447D02*
X0024200Y0166447D01*
X0024200Y0168045D02*
X0029369Y0168045D01*
X0034300Y0168045D02*
X0034300Y0168045D01*
X0034300Y0166447D02*
X0034300Y0166447D01*
X0034300Y0164848D02*
X0034300Y0164848D01*
X0034300Y0163250D02*
X0034300Y0163250D01*
X0034300Y0161651D02*
X0034300Y0161651D01*
X0034300Y0160053D02*
X0034300Y0160053D01*
X0038067Y0160053D02*
X0171900Y0160053D01*
X0171900Y0161651D02*
X0070191Y0161651D01*
X0070461Y0161921D02*
X0071100Y0163465D01*
X0071100Y0165135D01*
X0070461Y0166679D01*
X0069279Y0167861D01*
X0067735Y0168500D01*
X0060865Y0168500D01*
X0059321Y0167861D01*
X0058139Y0166679D01*
X0057500Y0165135D01*
X0057500Y0163465D01*
X0058139Y0161921D01*
X0059321Y0160739D01*
X0060865Y0160100D01*
X0067735Y0160100D01*
X0069279Y0160739D01*
X0070461Y0161921D01*
X0071011Y0163250D02*
X0171900Y0163250D01*
X0171900Y0164848D02*
X0071100Y0164848D01*
X0070557Y0166447D02*
X0171900Y0166447D01*
X0171900Y0168045D02*
X0068833Y0168045D01*
X0069782Y0171242D02*
X0172848Y0171242D01*
X0171900Y0169644D02*
X0024200Y0169644D01*
X0024636Y0171242D02*
X0028818Y0171242D01*
X0022644Y0176038D02*
X0006600Y0176038D01*
X0006600Y0177636D02*
X0029097Y0177636D01*
X0029227Y0180833D02*
X0006600Y0180833D01*
X0006600Y0179235D02*
X0031900Y0179235D01*
X0027928Y0182432D02*
X0006600Y0182432D01*
X0006600Y0184030D02*
X0027500Y0184030D01*
X0027704Y0185629D02*
X0006600Y0185629D01*
X0006600Y0187227D02*
X0028688Y0187227D01*
X0021045Y0174439D02*
X0006600Y0174439D01*
X0006600Y0172841D02*
X0019633Y0172841D01*
X0019400Y0171242D02*
X0006600Y0171242D01*
X0006600Y0169644D02*
X0019400Y0169644D01*
X0019400Y0168045D02*
X0006600Y0168045D01*
X0006600Y0166447D02*
X0019400Y0166447D01*
X0019400Y0164848D02*
X0006600Y0164848D01*
X0006600Y0163250D02*
X0019400Y0163250D01*
X0019400Y0161651D02*
X0006600Y0161651D01*
X0006600Y0160053D02*
X0019400Y0160053D01*
X0019400Y0158454D02*
X0006600Y0158454D01*
X0006600Y0156856D02*
X0019400Y0156856D01*
X0019400Y0155257D02*
X0006600Y0155257D01*
X0006600Y0153659D02*
X0019400Y0153659D01*
X0019400Y0152060D02*
X0006600Y0152060D01*
X0006600Y0150462D02*
X0019400Y0150462D01*
X0019400Y0148863D02*
X0006600Y0148863D01*
X0006600Y0147265D02*
X0019400Y0147265D01*
X0019400Y0145666D02*
X0006600Y0145666D01*
X0006600Y0144068D02*
X0019400Y0144068D01*
X0019400Y0142469D02*
X0006600Y0142469D01*
X0006600Y0140870D02*
X0019400Y0140870D01*
X0019400Y0139272D02*
X0006600Y0139272D01*
X0006600Y0137673D02*
X0019400Y0137673D01*
X0019400Y0136075D02*
X0006600Y0136075D01*
X0006600Y0134476D02*
X0019400Y0134476D01*
X0019400Y0132878D02*
X0006600Y0132878D01*
X0006600Y0131279D02*
X0019400Y0131279D01*
X0019400Y0129681D02*
X0006600Y0129681D01*
X0006600Y0128082D02*
X0019400Y0128082D01*
X0019400Y0126484D02*
X0006600Y0126484D01*
X0006600Y0124885D02*
X0019400Y0124885D01*
X0019400Y0123287D02*
X0006600Y0123287D01*
X0006600Y0121688D02*
X0019400Y0121688D01*
X0020116Y0120090D02*
X0006600Y0120090D01*
X0006600Y0118491D02*
X0021715Y0118491D01*
X0023313Y0116893D02*
X0006600Y0116893D01*
X0006600Y0115294D02*
X0024912Y0115294D01*
X0026510Y0113696D02*
X0006600Y0113696D01*
X0006600Y0112097D02*
X0028109Y0112097D01*
X0029707Y0110499D02*
X0006600Y0110499D01*
X0006600Y0108900D02*
X0031306Y0108900D01*
X0032904Y0107302D02*
X0006600Y0107302D01*
X0006600Y0105703D02*
X0034503Y0105703D01*
X0036101Y0104105D02*
X0006600Y0104105D01*
X0006600Y0102506D02*
X0037700Y0102506D01*
X0039298Y0100908D02*
X0006600Y0100908D01*
X0006600Y0099309D02*
X0040897Y0099309D01*
X0042495Y0097711D02*
X0006600Y0097711D01*
X0006600Y0096112D02*
X0044094Y0096112D01*
X0045692Y0094514D02*
X0006600Y0094514D01*
X0006600Y0092915D02*
X0029453Y0092915D01*
X0027989Y0091317D02*
X0006600Y0091317D01*
X0006600Y0089718D02*
X0027500Y0089718D01*
X0027643Y0088120D02*
X0006600Y0088120D01*
X0006600Y0073733D02*
X0071900Y0073733D01*
X0060306Y0075332D02*
X0038294Y0075332D01*
X0040464Y0076930D02*
X0058136Y0076930D01*
X0057500Y0078529D02*
X0041100Y0078529D01*
X0041100Y0080127D02*
X0057500Y0080127D01*
X0058186Y0081726D02*
X0040414Y0081726D01*
X0038160Y0083324D02*
X0060440Y0083324D01*
X0058539Y0086521D02*
X0040061Y0086521D01*
X0040957Y0088120D02*
X0052086Y0088120D01*
X0050488Y0089718D02*
X0041100Y0089718D01*
X0040611Y0091317D02*
X0048889Y0091317D01*
X0047291Y0092915D02*
X0039147Y0092915D01*
X0047685Y0099309D02*
X0115897Y0099309D01*
X0117495Y0097711D02*
X0049283Y0097711D01*
X0050882Y0096112D02*
X0119094Y0096112D01*
X0120692Y0094514D02*
X0052480Y0094514D01*
X0054079Y0092915D02*
X0059453Y0092915D01*
X0070061Y0086521D02*
X0071185Y0086521D01*
X0071800Y0089300D02*
X0074300Y0086800D01*
X0074300Y0031800D01*
X0071800Y0029300D01*
X0064300Y0029300D01*
X0034300Y0029300D01*
X0039968Y0032172D02*
X0058632Y0032172D01*
X0060216Y0035369D02*
X0038384Y0035369D01*
X0037735Y0035100D02*
X0039279Y0035739D01*
X0040461Y0036921D01*
X0041100Y0038465D01*
X0041100Y0040135D01*
X0040461Y0041679D01*
X0039279Y0042861D01*
X0037735Y0043500D01*
X0030865Y0043500D01*
X0029321Y0042861D01*
X0028139Y0041679D01*
X0027500Y0040135D01*
X0027500Y0038465D01*
X0028139Y0036921D01*
X0029321Y0035739D01*
X0030865Y0035100D01*
X0037735Y0035100D01*
X0040480Y0036967D02*
X0058120Y0036967D01*
X0057500Y0038566D02*
X0041100Y0038566D01*
X0041088Y0040164D02*
X0057512Y0040164D01*
X0058223Y0041763D02*
X0040377Y0041763D01*
X0038070Y0043361D02*
X0060530Y0043361D01*
X0058502Y0046558D02*
X0040098Y0046558D01*
X0040973Y0048157D02*
X0057627Y0048157D01*
X0057500Y0049755D02*
X0041100Y0049755D01*
X0040595Y0051354D02*
X0058005Y0051354D01*
X0059542Y0052952D02*
X0039058Y0052952D01*
X0039689Y0056149D02*
X0058911Y0056149D01*
X0057797Y0057748D02*
X0040803Y0057748D01*
X0041100Y0059346D02*
X0057500Y0059346D01*
X0057835Y0060945D02*
X0040765Y0060945D01*
X0039596Y0062543D02*
X0059004Y0062543D01*
X0059320Y0065740D02*
X0039280Y0065740D01*
X0040634Y0067339D02*
X0057966Y0067339D01*
X0057500Y0068937D02*
X0041100Y0068937D01*
X0040934Y0070536D02*
X0057666Y0070536D01*
X0058595Y0072134D02*
X0040005Y0072134D01*
X0029004Y0062543D02*
X0006600Y0062543D01*
X0006600Y0060945D02*
X0027835Y0060945D01*
X0027500Y0059346D02*
X0006600Y0059346D01*
X0006600Y0057748D02*
X0027797Y0057748D01*
X0030530Y0043361D02*
X0006600Y0043361D01*
X0006600Y0041763D02*
X0028223Y0041763D01*
X0027512Y0040164D02*
X0006600Y0040164D01*
X0006600Y0038566D02*
X0027500Y0038566D01*
X0028120Y0036967D02*
X0006600Y0036967D01*
X0006600Y0035369D02*
X0030216Y0035369D01*
X0028632Y0032172D02*
X0006600Y0032172D01*
X0006600Y0033770D02*
X0071900Y0033770D01*
X0071900Y0035369D02*
X0068384Y0035369D01*
X0069968Y0032172D02*
X0071278Y0032172D01*
X0074869Y0028975D02*
X0247500Y0028975D01*
X0247500Y0028465D02*
X0247500Y0030135D01*
X0248139Y0031679D01*
X0249321Y0032861D01*
X0250865Y0033500D01*
X0257735Y0033500D01*
X0259279Y0032861D01*
X0260461Y0031679D01*
X0261100Y0030135D01*
X0261100Y0028465D01*
X0260461Y0026921D01*
X0259279Y0025739D01*
X0257735Y0025100D01*
X0250865Y0025100D01*
X0249321Y0025739D01*
X0248139Y0026921D01*
X0247500Y0028465D01*
X0247951Y0027376D02*
X0179763Y0027376D01*
X0179279Y0027861D02*
X0177735Y0028500D01*
X0170865Y0028500D01*
X0169321Y0027861D01*
X0168139Y0026679D01*
X0167500Y0025135D01*
X0167500Y0023465D01*
X0168139Y0021921D01*
X0169321Y0020739D01*
X0170865Y0020100D01*
X0177735Y0020100D01*
X0179279Y0020739D01*
X0180461Y0021921D01*
X0181100Y0023465D01*
X0181100Y0025135D01*
X0180461Y0026679D01*
X0179279Y0027861D01*
X0180834Y0025778D02*
X0249283Y0025778D01*
X0247681Y0030573D02*
X0178878Y0030573D01*
X0180564Y0032172D02*
X0248632Y0032172D01*
X0258384Y0035369D02*
X0280216Y0035369D01*
X0278120Y0036967D02*
X0260480Y0036967D01*
X0261100Y0038566D02*
X0277500Y0038566D01*
X0277512Y0040164D02*
X0261088Y0040164D01*
X0260377Y0041763D02*
X0278223Y0041763D01*
X0280530Y0043361D02*
X0269255Y0043361D01*
X0270854Y0044960D02*
X0281900Y0044960D01*
X0278502Y0046558D02*
X0272452Y0046558D01*
X0271800Y0049300D02*
X0266800Y0044300D01*
X0244300Y0044300D01*
X0239300Y0049300D01*
X0243500Y0049755D02*
X0247500Y0049755D01*
X0247627Y0048157D02*
X0243837Y0048157D01*
X0240246Y0044960D02*
X0181100Y0044960D01*
X0181057Y0043361D02*
X0241845Y0043361D01*
X0236102Y0046558D02*
X0180511Y0046558D01*
X0180302Y0041763D02*
X0248223Y0041763D01*
X0260973Y0048157D02*
X0267263Y0048157D01*
X0268861Y0049755D02*
X0261100Y0049755D01*
X0260595Y0051354D02*
X0270487Y0051354D01*
X0271800Y0049300D02*
X0284300Y0049300D01*
X0284300Y0039300D01*
X0290377Y0041763D02*
X0304400Y0041763D01*
X0304400Y0043361D02*
X0288070Y0043361D01*
X0286700Y0044960D02*
X0304400Y0044960D01*
X0304400Y0046558D02*
X0290098Y0046558D01*
X0290973Y0048157D02*
X0304400Y0048157D01*
X0304400Y0049755D02*
X0291100Y0049755D01*
X0290595Y0051354D02*
X0304400Y0051354D01*
X0304400Y0052952D02*
X0289058Y0052952D01*
X0279542Y0052952D02*
X0259058Y0052952D01*
X0259689Y0056149D02*
X0278911Y0056149D01*
X0277797Y0057748D02*
X0260803Y0057748D01*
X0261100Y0059346D02*
X0277500Y0059346D01*
X0277835Y0060945D02*
X0260765Y0060945D01*
X0259596Y0062543D02*
X0279004Y0062543D01*
X0279320Y0065740D02*
X0259280Y0065740D01*
X0260634Y0067339D02*
X0277966Y0067339D01*
X0277500Y0068937D02*
X0261100Y0068937D01*
X0260934Y0070536D02*
X0277666Y0070536D01*
X0278595Y0072134D02*
X0260005Y0072134D01*
X0247500Y0059346D02*
X0076700Y0059346D01*
X0076700Y0057748D02*
X0139208Y0057748D01*
X0139321Y0057861D02*
X0138139Y0056679D01*
X0137500Y0055135D01*
X0137500Y0053465D01*
X0138139Y0051921D01*
X0139321Y0050739D01*
X0140865Y0050100D01*
X0147735Y0050100D01*
X0149279Y0050739D01*
X0150461Y0051921D01*
X0151100Y0053465D01*
X0151100Y0055135D01*
X0150461Y0056679D01*
X0149279Y0057861D01*
X0147735Y0058500D01*
X0140865Y0058500D01*
X0139321Y0057861D01*
X0137920Y0056149D02*
X0076700Y0056149D01*
X0076700Y0054551D02*
X0137500Y0054551D01*
X0137712Y0052952D02*
X0076700Y0052952D01*
X0076700Y0051354D02*
X0138706Y0051354D01*
X0148564Y0048157D02*
X0170036Y0048157D01*
X0168089Y0046558D02*
X0150511Y0046558D01*
X0151100Y0044960D02*
X0167500Y0044960D01*
X0167543Y0043361D02*
X0151057Y0043361D01*
X0150302Y0041763D02*
X0168298Y0041763D01*
X0170709Y0040164D02*
X0147891Y0040164D01*
X0150172Y0036967D02*
X0168428Y0036967D01*
X0167597Y0035369D02*
X0151003Y0035369D01*
X0151100Y0033770D02*
X0167500Y0033770D01*
X0168036Y0032172D02*
X0150564Y0032172D01*
X0148878Y0030573D02*
X0169722Y0030573D01*
X0168836Y0027376D02*
X0149763Y0027376D01*
X0150834Y0025778D02*
X0167766Y0025778D01*
X0167500Y0024179D02*
X0151100Y0024179D01*
X0150734Y0022581D02*
X0167866Y0022581D01*
X0169078Y0020982D02*
X0149522Y0020982D01*
X0179522Y0020982D02*
X0311690Y0020982D01*
X0311028Y0022581D02*
X0180734Y0022581D01*
X0181100Y0024179D02*
X0311000Y0024179D01*
X0311000Y0025778D02*
X0289317Y0025778D01*
X0290649Y0027376D02*
X0311590Y0027376D01*
X0312252Y0028975D02*
X0291100Y0028975D01*
X0290919Y0030573D02*
X0313835Y0030573D01*
X0305739Y0036967D02*
X0290480Y0036967D01*
X0291100Y0038566D02*
X0304506Y0038566D01*
X0304400Y0040164D02*
X0291088Y0040164D01*
X0278632Y0032172D02*
X0259968Y0032172D01*
X0260919Y0030573D02*
X0277681Y0030573D01*
X0277500Y0028975D02*
X0261100Y0028975D01*
X0260649Y0027376D02*
X0277951Y0027376D01*
X0279283Y0025778D02*
X0259317Y0025778D01*
X0248005Y0051354D02*
X0243186Y0051354D01*
X0241587Y0052952D02*
X0249542Y0052952D01*
X0248911Y0056149D02*
X0180896Y0056149D01*
X0179640Y0057748D02*
X0247797Y0057748D01*
X0211900Y0080127D02*
X0191067Y0080127D01*
X0192665Y0081726D02*
X0211900Y0081726D01*
X0211900Y0083324D02*
X0193500Y0083324D01*
X0193500Y0084923D02*
X0211900Y0084923D01*
X0211900Y0086521D02*
X0193019Y0086521D01*
X0191700Y0088120D02*
X0211900Y0088120D01*
X0211900Y0089718D02*
X0191700Y0089718D01*
X0191700Y0091317D02*
X0211900Y0091317D01*
X0211900Y0092915D02*
X0191700Y0092915D01*
X0191700Y0094514D02*
X0211900Y0094514D01*
X0211900Y0096112D02*
X0191700Y0096112D01*
X0191700Y0097711D02*
X0211900Y0097711D01*
X0211900Y0099309D02*
X0191700Y0099309D01*
X0191700Y0100908D02*
X0212514Y0100908D01*
X0214112Y0102506D02*
X0191700Y0102506D01*
X0191700Y0104105D02*
X0216093Y0104105D01*
X0212162Y0110499D02*
X0191700Y0110499D01*
X0191700Y0112097D02*
X0210563Y0112097D01*
X0210100Y0113696D02*
X0191700Y0113696D01*
X0191700Y0115294D02*
X0210100Y0115294D01*
X0210953Y0116893D02*
X0191700Y0116893D01*
X0191700Y0118491D02*
X0211900Y0118491D01*
X0211900Y0120090D02*
X0191700Y0120090D01*
X0191700Y0121688D02*
X0210972Y0121688D01*
X0210100Y0123287D02*
X0191700Y0123287D01*
X0191700Y0124885D02*
X0210100Y0124885D01*
X0210544Y0126484D02*
X0191700Y0126484D01*
X0191700Y0128082D02*
X0212143Y0128082D01*
X0216457Y0128082D02*
X0224856Y0128082D01*
X0229300Y0124300D02*
X0214300Y0124300D01*
X0214300Y0114300D01*
X0191700Y0108900D02*
X0275100Y0108900D01*
X0275100Y0110499D02*
X0263698Y0110499D01*
X0265534Y0112097D02*
X0276158Y0112097D01*
X0276900Y0113696D02*
X0266100Y0113696D01*
X0266034Y0115294D02*
X0276900Y0115294D01*
X0276900Y0116893D02*
X0265247Y0116893D01*
X0262756Y0118491D02*
X0276900Y0118491D01*
X0279300Y0109300D02*
X0279300Y0104300D01*
X0276800Y0101800D01*
X0276900Y0105703D02*
X0191700Y0105703D01*
X0191700Y0107302D02*
X0275359Y0107302D01*
X0279300Y0109300D02*
X0279300Y0134300D01*
X0259300Y0134300D01*
X0264466Y0137673D02*
X0316769Y0137673D01*
X0319300Y0134300D02*
X0279300Y0134300D01*
X0281700Y0131279D02*
X0316417Y0131279D01*
X0316008Y0121688D02*
X0302582Y0121688D01*
X0300984Y0120090D02*
X0397000Y0120090D01*
X0397000Y0121688D02*
X0382592Y0121688D01*
X0383399Y0123287D02*
X0397000Y0123287D01*
X0397000Y0124885D02*
X0383475Y0124885D01*
X0382914Y0126484D02*
X0397000Y0126484D01*
X0397000Y0128082D02*
X0381078Y0128082D01*
X0382183Y0131279D02*
X0397000Y0131279D01*
X0397000Y0129681D02*
X0281700Y0129681D01*
X0299385Y0118491D02*
X0397000Y0118491D01*
X0397000Y0116893D02*
X0382611Y0116893D01*
X0383407Y0115294D02*
X0397000Y0115294D01*
X0397000Y0113696D02*
X0383475Y0113696D01*
X0382906Y0112097D02*
X0397000Y0112097D01*
X0397000Y0110499D02*
X0381032Y0110499D01*
X0382202Y0107302D02*
X0397000Y0107302D01*
X0397000Y0108900D02*
X0299200Y0108900D01*
X0299200Y0107302D02*
X0316398Y0107302D01*
X0315362Y0105703D02*
X0299200Y0105703D01*
X0299200Y0104105D02*
X0315125Y0104105D01*
X0315524Y0102506D02*
X0299200Y0102506D01*
X0299200Y0100908D02*
X0316788Y0100908D01*
X0317568Y0110499D02*
X0299200Y0110499D01*
X0299200Y0112097D02*
X0315694Y0112097D01*
X0315125Y0113696D02*
X0299200Y0113696D01*
X0299200Y0115294D02*
X0315193Y0115294D01*
X0315989Y0116893D02*
X0299200Y0116893D01*
X0283500Y0150462D02*
X0317658Y0150462D01*
X0315709Y0152060D02*
X0282480Y0152060D01*
X0277325Y0160053D02*
X0176700Y0160053D01*
X0176700Y0161651D02*
X0256009Y0161651D01*
X0255100Y0162560D02*
X0257560Y0160100D01*
X0261040Y0160100D01*
X0263500Y0162560D01*
X0263500Y0166040D01*
X0261040Y0168500D01*
X0257560Y0168500D01*
X0255100Y0166040D01*
X0255100Y0162560D01*
X0255100Y0163250D02*
X0176700Y0163250D01*
X0176700Y0164848D02*
X0255100Y0164848D01*
X0255507Y0166447D02*
X0176700Y0166447D01*
X0176700Y0168045D02*
X0257105Y0168045D01*
X0261495Y0168045D02*
X0276823Y0168045D01*
X0275224Y0166447D02*
X0263093Y0166447D01*
X0263500Y0164848D02*
X0274900Y0164848D01*
X0274900Y0163250D02*
X0263500Y0163250D01*
X0262591Y0161651D02*
X0275726Y0161651D01*
X0320942Y0150462D02*
X0377658Y0150462D01*
X0375709Y0152060D02*
X0322891Y0152060D01*
X0323475Y0153659D02*
X0375125Y0153659D01*
X0375178Y0155257D02*
X0323422Y0155257D01*
X0322648Y0156856D02*
X0375952Y0156856D01*
X0379300Y0160053D02*
X0379300Y0160053D01*
X0380385Y0160053D02*
X0397000Y0160053D01*
X0397000Y0161651D02*
X0382783Y0161651D01*
X0383559Y0163250D02*
X0397000Y0163250D01*
X0397000Y0164848D02*
X0383643Y0164848D01*
X0383116Y0166447D02*
X0397000Y0166447D01*
X0397000Y0168045D02*
X0381586Y0168045D01*
X0379300Y0168045D02*
X0379300Y0168045D01*
X0379300Y0166447D02*
X0379300Y0166447D01*
X0379300Y0164848D02*
X0379300Y0164848D01*
X0379300Y0163250D02*
X0379300Y0163250D01*
X0379300Y0161651D02*
X0379300Y0161651D01*
X0383253Y0145666D02*
X0397000Y0145666D01*
X0397000Y0144068D02*
X0383475Y0144068D01*
X0383060Y0142469D02*
X0397000Y0142469D01*
X0397000Y0140870D02*
X0381775Y0140870D01*
X0381831Y0137673D02*
X0397000Y0137673D01*
X0397000Y0136075D02*
X0383084Y0136075D01*
X0383475Y0134476D02*
X0397000Y0134476D01*
X0397000Y0132878D02*
X0383230Y0132878D01*
X0397000Y0139272D02*
X0176700Y0139272D01*
X0176700Y0137673D02*
X0224134Y0137673D01*
X0225011Y0140222D02*
X0225670Y0140008D01*
X0226354Y0139900D01*
X0229300Y0139900D01*
X0229300Y0144300D01*
X0229300Y0144300D01*
X0229300Y0144300D01*
X0222300Y0144300D01*
X0222300Y0144646D01*
X0222408Y0145330D01*
X0222622Y0145989D01*
X0222937Y0146606D01*
X0223344Y0147166D01*
X0223834Y0147656D01*
X0224394Y0148063D01*
X0225011Y0148378D01*
X0225670Y0148592D01*
X0226354Y0148700D01*
X0229300Y0148700D01*
X0229300Y0144300D01*
X0222300Y0144300D01*
X0222300Y0143954D01*
X0222408Y0143270D01*
X0222622Y0142611D01*
X0222937Y0141994D01*
X0223344Y0141434D01*
X0223834Y0140944D01*
X0224394Y0140537D01*
X0225011Y0140222D01*
X0223935Y0140870D02*
X0176810Y0140870D01*
X0178409Y0142469D02*
X0222695Y0142469D01*
X0222300Y0144068D02*
X0178500Y0144068D01*
X0178500Y0145666D02*
X0222517Y0145666D01*
X0223442Y0147265D02*
X0177275Y0147265D01*
X0171325Y0147265D02*
X0157558Y0147265D01*
X0158700Y0146123D02*
X0156123Y0148700D01*
X0154300Y0148700D01*
X0154300Y0144300D01*
X0154300Y0144300D01*
X0158700Y0144300D01*
X0158700Y0146123D01*
X0158700Y0145666D02*
X0170100Y0145666D01*
X0170100Y0144068D02*
X0158700Y0144068D01*
X0158700Y0144300D02*
X0154300Y0144300D01*
X0154300Y0144300D01*
X0154300Y0144300D01*
X0149900Y0144300D01*
X0149900Y0146123D01*
X0152477Y0148700D01*
X0154300Y0148700D01*
X0154300Y0144300D01*
X0154300Y0139900D01*
X0156123Y0139900D01*
X0158700Y0142477D01*
X0158700Y0144300D01*
X0158692Y0142469D02*
X0170191Y0142469D01*
X0171790Y0140870D02*
X0157093Y0140870D01*
X0154300Y0140870D02*
X0154300Y0140870D01*
X0154300Y0139900D02*
X0152477Y0139900D01*
X0149900Y0142477D01*
X0149900Y0144300D01*
X0154300Y0144300D01*
X0154300Y0144300D01*
X0154300Y0139900D01*
X0154300Y0142469D02*
X0154300Y0142469D01*
X0154300Y0144068D02*
X0154300Y0144068D01*
X0154300Y0145666D02*
X0154300Y0145666D01*
X0154300Y0147265D02*
X0154300Y0147265D01*
X0151042Y0147265D02*
X0137275Y0147265D01*
X0138500Y0146040D02*
X0136040Y0148500D01*
X0132560Y0148500D01*
X0130760Y0146700D01*
X0070440Y0146700D01*
X0069279Y0147861D01*
X0067735Y0148500D01*
X0060865Y0148500D01*
X0059321Y0147861D01*
X0058139Y0146679D01*
X0057500Y0145135D01*
X0057500Y0143465D01*
X0058139Y0141921D01*
X0059321Y0140739D01*
X0060865Y0140100D01*
X0067735Y0140100D01*
X0069279Y0140739D01*
X0070440Y0141900D01*
X0130760Y0141900D01*
X0132560Y0140100D01*
X0136040Y0140100D01*
X0138500Y0142560D01*
X0138500Y0146040D01*
X0138500Y0145666D02*
X0149900Y0145666D01*
X0149900Y0144068D02*
X0138500Y0144068D01*
X0138409Y0142469D02*
X0149908Y0142469D01*
X0151507Y0140870D02*
X0136810Y0140870D01*
X0134300Y0144300D02*
X0064300Y0144300D01*
X0059190Y0140870D02*
X0039665Y0140870D01*
X0040905Y0142469D02*
X0057912Y0142469D01*
X0057500Y0144068D02*
X0041300Y0144068D01*
X0041083Y0145666D02*
X0057720Y0145666D01*
X0058725Y0147265D02*
X0040158Y0147265D01*
X0038608Y0150462D02*
X0059992Y0150462D01*
X0058082Y0152060D02*
X0040518Y0152060D01*
X0041100Y0153659D02*
X0057500Y0153659D01*
X0057550Y0155257D02*
X0041050Y0155257D01*
X0040284Y0156856D02*
X0058316Y0156856D01*
X0060754Y0158454D02*
X0037846Y0158454D01*
X0040414Y0161651D02*
X0058409Y0161651D01*
X0057589Y0163250D02*
X0041185Y0163250D01*
X0041268Y0164848D02*
X0057500Y0164848D01*
X0058043Y0166447D02*
X0040744Y0166447D01*
X0039231Y0168045D02*
X0059767Y0168045D01*
X0070842Y0172841D02*
X0174447Y0172841D01*
X0171900Y0158454D02*
X0067846Y0158454D01*
X0070284Y0156856D02*
X0171900Y0156856D01*
X0171900Y0139272D02*
X0024200Y0139272D01*
X0024200Y0137673D02*
X0029134Y0137673D01*
X0034300Y0134300D02*
X0021800Y0134300D01*
X0024200Y0131279D02*
X0028781Y0131279D01*
X0034300Y0134300D02*
X0064300Y0134300D01*
X0058781Y0131279D02*
X0039819Y0131279D01*
X0038744Y0128082D02*
X0059856Y0128082D01*
X0059321Y0127861D02*
X0058139Y0126679D01*
X0057500Y0125135D01*
X0057500Y0123465D01*
X0058139Y0121921D01*
X0059321Y0120739D01*
X0060865Y0120100D01*
X0067735Y0120100D01*
X0069279Y0120739D01*
X0070461Y0121921D01*
X0071100Y0123465D01*
X0071100Y0125135D01*
X0070461Y0126679D01*
X0069279Y0127861D01*
X0067735Y0128500D01*
X0060865Y0128500D01*
X0059321Y0127861D01*
X0058059Y0126484D02*
X0040541Y0126484D01*
X0041100Y0124885D02*
X0057500Y0124885D01*
X0057574Y0123287D02*
X0041026Y0123287D01*
X0040228Y0121688D02*
X0058372Y0121688D01*
X0070228Y0121688D02*
X0126900Y0121688D01*
X0126900Y0120090D02*
X0036904Y0120090D01*
X0038503Y0118491D02*
X0126900Y0118491D01*
X0126900Y0116893D02*
X0040101Y0116893D01*
X0041700Y0115294D02*
X0126900Y0115294D01*
X0126900Y0113696D02*
X0043298Y0113696D01*
X0044897Y0112097D02*
X0126900Y0112097D01*
X0126900Y0110499D02*
X0046495Y0110499D01*
X0048094Y0108900D02*
X0126900Y0108900D01*
X0126362Y0107302D02*
X0049692Y0107302D01*
X0049300Y0104300D02*
X0034300Y0119300D01*
X0034300Y0124300D01*
X0029856Y0128082D02*
X0024200Y0128082D01*
X0024200Y0126484D02*
X0028059Y0126484D01*
X0027500Y0124885D02*
X0024200Y0124885D01*
X0024200Y0123287D02*
X0027574Y0123287D01*
X0028372Y0121688D02*
X0025306Y0121688D01*
X0026904Y0120090D02*
X0031900Y0120090D01*
X0032037Y0118491D02*
X0028503Y0118491D01*
X0030101Y0116893D02*
X0033313Y0116893D01*
X0034912Y0115294D02*
X0031700Y0115294D01*
X0033298Y0113696D02*
X0036510Y0113696D01*
X0038109Y0112097D02*
X0034897Y0112097D01*
X0036495Y0110499D02*
X0039707Y0110499D01*
X0041306Y0108900D02*
X0038094Y0108900D01*
X0039692Y0107302D02*
X0042904Y0107302D01*
X0044503Y0105703D02*
X0041291Y0105703D01*
X0042889Y0104105D02*
X0046101Y0104105D01*
X0047700Y0102506D02*
X0044488Y0102506D01*
X0046086Y0100908D02*
X0114298Y0100908D01*
X0119488Y0102506D02*
X0125154Y0102506D01*
X0125100Y0104105D02*
X0117889Y0104105D01*
X0116291Y0105703D02*
X0125100Y0105703D01*
X0129300Y0104300D02*
X0129300Y0121800D01*
X0131800Y0124300D01*
X0174300Y0124300D01*
X0178500Y0124885D02*
X0186900Y0124885D01*
X0186900Y0123287D02*
X0178500Y0123287D01*
X0177628Y0121688D02*
X0186900Y0121688D01*
X0186900Y0120090D02*
X0176700Y0120090D01*
X0176700Y0118491D02*
X0186900Y0118491D01*
X0186900Y0116893D02*
X0176700Y0116893D01*
X0176700Y0115294D02*
X0186900Y0115294D01*
X0186900Y0113696D02*
X0176647Y0113696D01*
X0175659Y0112265D02*
X0175659Y0112265D01*
X0175491Y0112097D02*
X0186900Y0112097D01*
X0186900Y0110499D02*
X0173893Y0110499D01*
X0172294Y0108900D02*
X0186900Y0108900D01*
X0186900Y0107302D02*
X0170696Y0107302D01*
X0169097Y0105703D02*
X0186900Y0105703D01*
X0186900Y0104105D02*
X0167499Y0104105D01*
X0166700Y0102506D02*
X0186900Y0102506D01*
X0186900Y0100908D02*
X0166700Y0100908D01*
X0166700Y0099309D02*
X0186900Y0099309D01*
X0186900Y0097711D02*
X0166700Y0097711D01*
X0166700Y0096112D02*
X0186900Y0096112D01*
X0186900Y0094514D02*
X0166700Y0094514D01*
X0166700Y0092915D02*
X0186900Y0092915D01*
X0186900Y0091317D02*
X0166700Y0091317D01*
X0161900Y0091317D02*
X0130677Y0091317D01*
X0129079Y0092915D02*
X0161900Y0092915D01*
X0161900Y0094514D02*
X0127480Y0094514D01*
X0125882Y0096112D02*
X0161900Y0096112D01*
X0161900Y0097711D02*
X0124283Y0097711D01*
X0122685Y0099309D02*
X0161900Y0099309D01*
X0161900Y0100908D02*
X0131847Y0100908D01*
X0133446Y0102506D02*
X0161900Y0102506D01*
X0161900Y0104105D02*
X0133500Y0104105D01*
X0133500Y0105703D02*
X0162309Y0105703D01*
X0163908Y0107302D02*
X0132238Y0107302D01*
X0131700Y0108900D02*
X0165506Y0108900D01*
X0167105Y0110499D02*
X0131700Y0110499D01*
X0131700Y0112097D02*
X0168703Y0112097D01*
X0170302Y0113696D02*
X0131700Y0113696D01*
X0131700Y0115294D02*
X0171900Y0115294D01*
X0171900Y0116893D02*
X0131700Y0116893D01*
X0131700Y0118491D02*
X0171900Y0118491D01*
X0171900Y0120090D02*
X0131700Y0120090D01*
X0132582Y0121688D02*
X0170972Y0121688D01*
X0171900Y0128082D02*
X0068744Y0128082D01*
X0070541Y0126484D02*
X0130801Y0126484D01*
X0128991Y0124885D02*
X0071100Y0124885D01*
X0071026Y0123287D02*
X0127393Y0123287D01*
X0131790Y0140870D02*
X0069410Y0140870D01*
X0069466Y0137673D02*
X0171900Y0137673D01*
X0171900Y0136075D02*
X0070711Y0136075D01*
X0071100Y0134476D02*
X0171900Y0134476D01*
X0171900Y0132878D02*
X0070857Y0132878D01*
X0069819Y0131279D02*
X0171900Y0131279D01*
X0171900Y0129681D02*
X0024200Y0129681D01*
X0039466Y0137673D02*
X0059134Y0137673D01*
X0069875Y0147265D02*
X0131325Y0147265D01*
X0176700Y0136075D02*
X0192681Y0136075D01*
X0191082Y0134476D02*
X0176700Y0134476D01*
X0176700Y0132878D02*
X0189484Y0132878D01*
X0187885Y0131279D02*
X0176700Y0131279D01*
X0176700Y0129681D02*
X0186900Y0129681D01*
X0186900Y0128082D02*
X0176700Y0128082D01*
X0178056Y0126484D02*
X0186900Y0126484D01*
X0229300Y0140870D02*
X0229300Y0140870D01*
X0229300Y0142469D02*
X0229300Y0142469D01*
X0229300Y0144068D02*
X0229300Y0144068D01*
X0229300Y0145666D02*
X0229300Y0145666D01*
X0229300Y0147265D02*
X0229300Y0147265D01*
X0316256Y0192023D02*
X0006600Y0192023D01*
X0049300Y0104300D02*
X0114300Y0104300D01*
X0129300Y0089300D01*
X0129300Y0064300D01*
X0144300Y0064300D01*
X0149485Y0060945D02*
X0169115Y0060945D01*
X0167882Y0062543D02*
X0150718Y0062543D01*
X0151100Y0064142D02*
X0167500Y0064142D01*
X0167751Y0065740D02*
X0150849Y0065740D01*
X0149801Y0067339D02*
X0168799Y0067339D01*
X0168390Y0076930D02*
X0167564Y0076930D01*
X0177801Y0080127D02*
X0187533Y0080127D01*
X0185935Y0081726D02*
X0180265Y0081726D01*
X0144300Y0084300D02*
X0144300Y0074300D01*
X0138799Y0067339D02*
X0132201Y0067339D01*
X0125100Y0064142D02*
X0076700Y0064142D01*
X0076700Y0062543D02*
X0125117Y0062543D01*
X0126715Y0060945D02*
X0076700Y0060945D01*
X0071900Y0052952D02*
X0069058Y0052952D01*
X0070595Y0051354D02*
X0071900Y0051354D01*
X0071900Y0049755D02*
X0071100Y0049755D01*
X0070973Y0048157D02*
X0071900Y0048157D01*
X0059283Y0025778D02*
X0039317Y0025778D01*
X0029283Y0025778D02*
X0006600Y0025778D01*
X0006600Y0027376D02*
X0027951Y0027376D01*
X0027500Y0028975D02*
X0006600Y0028975D01*
X0006600Y0030573D02*
X0027681Y0030573D01*
X0006600Y0014588D02*
X0397000Y0014588D01*
X0397000Y0012990D02*
X0006600Y0012990D01*
X0006600Y0011391D02*
X0397000Y0011391D01*
X0397000Y0009793D02*
X0006600Y0009793D01*
X0006600Y0008194D02*
X0397000Y0008194D01*
X0397000Y0016187D02*
X0381401Y0016187D01*
X0384523Y0017785D02*
X0397000Y0017785D01*
X0397000Y0019384D02*
X0386122Y0019384D01*
X0386910Y0020982D02*
X0397000Y0020982D01*
X0397000Y0022581D02*
X0387572Y0022581D01*
X0387600Y0024179D02*
X0397000Y0024179D01*
X0397000Y0025778D02*
X0387600Y0025778D01*
X0387010Y0027376D02*
X0397000Y0027376D01*
X0397000Y0028975D02*
X0386348Y0028975D01*
X0384765Y0030573D02*
X0397000Y0030573D01*
X0397000Y0032172D02*
X0383475Y0032172D01*
X0383475Y0033770D02*
X0397000Y0033770D01*
X0397000Y0035369D02*
X0383475Y0035369D01*
X0383475Y0036967D02*
X0397000Y0036967D01*
X0375125Y0036967D02*
X0322537Y0036967D01*
X0323376Y0035369D02*
X0375125Y0035369D01*
X0316751Y0060945D02*
X0309200Y0060945D01*
X0309200Y0062543D02*
X0315509Y0062543D01*
X0315125Y0064142D02*
X0309200Y0064142D01*
X0309200Y0065740D02*
X0315378Y0065740D01*
X0316435Y0067339D02*
X0309174Y0067339D01*
X0380135Y0080127D02*
X0397000Y0080127D01*
X0397000Y0081726D02*
X0382630Y0081726D01*
X0383415Y0083324D02*
X0397000Y0083324D01*
X0397000Y0084923D02*
X0383475Y0084923D01*
X0382899Y0086521D02*
X0397000Y0086521D01*
X0397000Y0100908D02*
X0381812Y0100908D01*
X0383076Y0102506D02*
X0397000Y0102506D01*
X0397000Y0104105D02*
X0383475Y0104105D01*
X0383238Y0105703D02*
X0397000Y0105703D01*
X0374226Y0177636D02*
X0324374Y0177636D01*
X0325973Y0179235D02*
X0372627Y0179235D01*
X0371752Y0180833D02*
X0326848Y0180833D01*
X0327510Y0182432D02*
X0371090Y0182432D01*
X0371000Y0184030D02*
X0327600Y0184030D01*
X0327600Y0185629D02*
X0371000Y0185629D01*
X0371529Y0187227D02*
X0327071Y0187227D01*
X0326409Y0188826D02*
X0372191Y0188826D01*
X0373686Y0190424D02*
X0324914Y0190424D01*
X0322344Y0192023D02*
X0376256Y0192023D01*
X0126753Y0100908D02*
X0121086Y0100908D01*
X0131885Y0060945D02*
X0139115Y0060945D01*
X0149392Y0057748D02*
X0168960Y0057748D01*
X0167704Y0056149D02*
X0150680Y0056149D01*
X0151100Y0054551D02*
X0167300Y0054551D01*
X0167511Y0052952D02*
X0150888Y0052952D01*
X0149894Y0051354D02*
X0168424Y0051354D01*
X0174300Y0052952D02*
X0174300Y0052952D01*
X0174300Y0054551D02*
X0174300Y0054551D01*
X0174300Y0056149D02*
X0174300Y0056149D01*
X0174300Y0057748D02*
X0174300Y0057748D01*
M02*
