%
M48
M72
T01C0.03150
T02C0.03200
T03C0.04000
T04C0.07000
%
T01
X319300Y34300
X319300Y44300
X319300Y54300
X319300Y64300
X319300Y74300
X319300Y84300
X319300Y94300
X319300Y104300
X319300Y114300
X319300Y124300
X319300Y134300
X319300Y144300
X319300Y154300
X319300Y164300
X319300Y174300
X379300Y174300
X379300Y164300
X379300Y154300
X379300Y144300
X379300Y134300
X379300Y124300
X379300Y114300
X379300Y104300
X379300Y94300
X379300Y84300
X379300Y74300
X379300Y64300
X379300Y54300
X379300Y44300
X379300Y34300
T02
X34300Y29300
X34300Y39300
X34300Y49300
X34300Y59300
X34300Y69300
X34300Y79300
X34300Y89300
X64300Y89300
X64300Y79300
X64300Y69300
X64300Y59300
X64300Y49300
X64300Y39300
X64300Y29300
X129300Y64300
X144300Y64300
X144300Y54300
X144300Y44300
X144300Y34300
X144300Y24300
X174300Y24300
X174300Y34300
X174300Y44300
X174300Y54300
X174300Y64300
X189300Y64300
X174300Y74300
X174300Y84300
X189300Y84300
X214300Y74300
X239300Y89300
X254300Y89300
X254300Y79300
X254300Y69300
X254300Y59300
X254300Y49300
X239300Y49300
X254300Y39300
X254300Y29300
X284300Y29300
X284300Y39300
X284300Y49300
X284300Y59300
X284300Y69300
X284300Y79300
X284300Y89300
X279300Y109300
X259300Y114300
X259300Y124300
X259300Y134300
X259300Y144300
X279300Y149300
X279300Y164300
X259300Y164300
X229300Y144300
X229300Y134300
X229300Y124300
X214300Y124300
X214300Y114300
X229300Y114300
X174300Y124300
X174300Y144300
X154300Y144300
X134300Y144300
X64300Y144300
X64300Y134300
X64300Y124300
X34300Y124300
X34300Y134300
X34300Y144300
X34300Y154300
X34300Y164300
X34300Y174300
X34300Y184300
X64300Y184300
X64300Y174300
X64300Y164300
X64300Y154300
X134300Y184300
X154300Y184300
X174300Y184300
X129300Y104300
X144300Y84300
X144300Y74300
T03
X239300Y184300
X249300Y184300
X259300Y184300
T04
X319300Y184300
X379300Y184300
X379300Y24300
X319300Y24300
M30
